<?xml version="1.0" encoding="utf-8"?>
<!-- Generator: Adobe Illustrator 16.0.0, SVG Export Plug-In . SVG Version: 6.00 Build 0)  -->
<!DOCTYPE svg PUBLIC "-//W3C//DTD SVG 1.1//EN" "http://www.w3.org/Graphics/SVG/1.1/DTD/svg11.dtd">
<svg version="1.1" id="Layer_1" xmlns="http://www.w3.org/2000/svg" xmlns:xlink="http://www.w3.org/1999/xlink" x="0px" y="0px"
	 width="251.5px" height="98px" viewBox="0 0 251.5 98" enable-background="new 0 0 251.5 98" xml:space="preserve">
<path fill="#333333" d="M7.98,58.92c6.31,8.41,11.77,16.68,18.08,25.09c2.09,2.79,4.66,6.48,7.63,8.43
	c2.97,1.951,7.62,1.48,10.99,1.351c12.63-0.5,24.791-5.399,35.11-12.54c5.28-3.66,10.14-7.939,14.44-12.71
	c3.779-4.2,8.56-9.34,9.129-15.21c0.471-4.78-1.629-9.39-3.68-13.73C94.811,29.27,89.33,19.33,84.46,9"/>
<path fill="#E6E6E6" d="M34.11,19.13c0.79-0.63,1.59-1.27,2.38-1.92C46.53,9.06,61.6,5.15,74.25,4.56c2.96-0.14,6.2,0,8.43,1.95
	c2.53,2.21,2.9,6.01,2.5,9.34C84.2,23.98,79.73,31.39,73.971,37.21c-5.761,5.82-12.781,10.23-19.861,14.351
	C42.66,58.23,30.06,64.48,16.84,63.53c-4.6-0.33-9.12-2.82-10.08-7.57c-1.03-5.06,2.1-9.79,4.63-13.95
	C17.3,32.28,25.56,25.97,34.11,19.13z"/>
<path fill="#F4806D" d="M61.62,29.44c1.55-2.22,2.88-5.33,1.21-7.47c-1.7-2.18-5.109-1.59-7.71-0.66
	c-10.11,3.63-19.5,9.26-27.47,16.46c-1.81,1.64-3.66,3.57-3.92,6c-0.96,9.07,15.79,2.44,19.33,0.86
	c7.39-3.29,13.911-8.56,18.549-15.2L61.62,29.44z"/>
<path fill="#C1DC83" d="M46.48,38.7c-3.93-0.1-0.01-8.01,2.18-11.28c0,0,8.93-5.75,11.01-5.61s2.58,5.01,2.58,5.01
	s-10.69,12-15.77,11.87V38.7z"/>
<path fill="#FFDA3A" d="M31.23,37.44c4.89,1.11,10.43,0.54,14.71-1.51l1.47-10.09l-16.19,11.6H31.23z"/>
<path fill="#666666" d="M35.2,62.04L57.26,92.27c-17.44,2.75-15.69,2.17-19.8,1.461c-5.01-0.86-26.62-27.84-26.62-27.84L35.2,62.04z
	"/>
<path fill="#FFFFFF" d="M31.23,58.92c0,0-6.41,1.43-7.53-1.29c-1.12-2.72-3.57-2.149-5-2.58c-1.43-0.43-2.72,1.15-2.44-1.86
	c0.28-3.01-0.37-4.58-0.04-5.589c0.33-1.01,0.33-2.87,1.9-4.01c1.57-1.14,1.29-3.68,3.72-6.64c2.43-2.96,11.03-11.41,14.47-12.27
	s8.58-4.35,11.1-6.33s2.66-3.56,5.52-4.42c2.86-0.86,2.291,0.72,6.589-1c4.301-1.72,9.311-6.59,9.311-6.59s-23.2,7.021-26.36,8.6
	c-3.16,1.58-16.62,10.5-17.63,12.48C23.83,29.4,9.22,43.45,9.08,44.02s-1.92,7.589-2.54,9.46c-0.62,1.869,2.68,4.869,3.68,6.3
	c1,1.43,6.3,3.579,8.021,3.579c1.72,0,12.96-4.439,12.96-4.439H31.23z"/>
<path fill="#666666" d="M83.52,25.84l16.551,32.83c0,0,2.289-5.57,2.789-6.77c0.5-1.2-15.799-36-15.799-36l-3.551,9.94H83.52z"/>
<path d="M19.55,67.471c-0.99,0-1.98-0.031-2.98-0.11C9.54,66.85,4.21,62.68,2.99,56.721C1.72,50.46,5.03,45.04,7.69,40.68L8.1,40
	c5.95-9.8,13.88-16.12,22.27-22.82l1.33-1.07c0.78-0.63,1.57-1.26,2.36-1.9c9.52-7.73,24.48-12.78,40-13.5
	C77.51,0.55,81.91,0.73,85.2,3.6c3.11,2.71,4.45,7.22,3.79,12.7c-1.27,10.52-7.391,18.64-12.301,23.61
	c-6.34,6.4-13.979,11.08-20.649,14.97c-11.3,6.58-23.5,12.591-36.5,12.591H19.55z M75.77,8.37c-0.459,0-0.91,0.01-1.34,0.03
	C60.48,9.05,47.21,13.46,38.91,20.19c-0.8,0.65-1.6,1.29-2.4,1.93l-1.34,1.07c-7.84,6.26-15.25,12.17-20.49,20.8l-0.42,0.69
	c-2.16,3.54-4.4,7.2-3.72,10.5c0.61,3.021,3.81,4.311,6.59,4.51C29.16,60.561,41.09,54.7,52.19,48.24c6.24-3.64,13.38-8,19.06-13.73
	c4.061-4.11,9.12-10.76,10.13-19.12c0.16-1.34,0.37-4.61-1.21-5.98c-0.97-0.84-2.71-1.04-4.391-1.04H75.77z"/>
<path d="M40.59,97.77c-2.99,0-6.32-0.359-9.01-2.119c-3.23-2.12-5.84-5.631-7.94-8.461l-0.66-0.879c-3.19-4.25-6.2-8.51-9.1-12.631
	C11,69.6,8.03,65.391,4.91,61.23c-1.27-1.7-0.93-4.11,0.77-5.381c1.7-1.27,4.11-0.93,5.38,0.771c3.19,4.25,6.2,8.51,9.11,12.64
	c2.88,4.08,5.85,8.291,8.97,12.45l0.68,0.91c1.73,2.34,3.89,5.24,5.98,6.61c1.61,1.06,5.09,0.89,7.63,0.77
	c0.38-0.02,0.75-0.04,1.11-0.05c11.05-0.44,22.489-4.54,33.069-11.86c5.021-3.479,9.66-7.56,13.771-12.119l0.31-0.341
	c3.301-3.659,7.42-8.22,7.851-12.68c0.38-3.86-1.59-8.03-3.33-11.72C93.8,36.12,91.189,31,88.66,26.04
	c-2.561-5.01-5.2-10.19-7.67-15.42c-0.91-1.92-0.08-4.21,1.84-5.12c1.92-0.91,4.21-0.08,5.12,1.84c2.409,5.11,5.03,10.24,7.56,15.2
	c2.561,5.01,5.2,10.19,7.66,15.41c2.051,4.36,4.609,9.78,4.02,15.739c-0.68,6.98-5.739,12.58-9.799,17.08L97.09,71.11
	c-4.51,5-9.6,9.479-15.109,13.29C70.2,92.561,57.35,97.13,44.84,97.62c-0.34,0.01-0.69,0.03-1.05,0.05
	C42.81,97.721,41.72,97.77,40.59,97.77z"/>
<path d="M28.94,52.27c-2.35,0-4.5-0.459-6.14-1.649c-1.27-0.92-3.33-3.09-2.89-7.26c0.39-3.68,2.83-6.34,5.16-8.45
	c8.29-7.5,18.23-13.45,28.75-17.23c7.18-2.57,10.63,0.1,12.039,1.92c2.451,3.15,2.051,7.53-1.1,12.03
	c-4.99,7.15-11.96,12.86-20.14,16.51c-3.32,1.48-10.05,4.129-15.69,4.129H28.94z M27.54,44.49c1.77,0.58,7.95-0.69,13.96-3.37
	c6.9-3.08,12.77-7.88,16.971-13.89c0.989-1.41,1.279-2.47,1.289-2.88c-0.38-0.09-1.449-0.11-3.34,0.57
	c-9.58,3.44-18.64,8.87-26.19,15.69c-1.18,1.07-2.56,2.44-2.67,3.56C27.55,44.3,27.54,44.41,27.54,44.49z"/>
<path d="M46.48,40.62c-0.89,0-1.69-0.62-1.88-1.52c-0.93-4.38-0.04-9.03,2.46-12.75c0.59-0.88,1.79-1.12,2.67-0.52
	c0.88,0.59,1.12,1.79,0.52,2.67c-1.89,2.82-2.6,6.48-1.9,9.81c0.22,1.04-0.44,2.06-1.48,2.28c-0.14,0.03-0.27,0.04-0.4,0.04
	L46.48,40.62z"/>
<path d="M36.34,39.93c-1.87,0-3.74-0.2-5.53-0.61c-1.03-0.24-1.68-1.27-1.45-2.3c0.24-1.04,1.26-1.68,2.3-1.45
	c4.43,1.01,9.59,0.49,13.45-1.37c0.96-0.46,2.11-0.06,2.56,0.9c0.46,0.96,0.06,2.11-0.9,2.56c-3.1,1.49-6.77,2.26-10.44,2.26
	L36.34,39.93z"/>
<g>
	<path fill="#FFCE6F" d="M141.93,95.076l17.03-48.89c0,0-0.729,8.289,1.479,11.509c2.211,3.221,17.65,13.881,22.15,18.34
		c4.5,4.461,11.01,14.131,11.01,14.131l-26.32,3.09l-25.34,1.82H141.93z"/>
	<path fill="#DD9D2C" d="M188.91,79.955c-0.1-0.98-0.98-1.68-1.96-1.58l-18.511,1.951l1.301-7.91l6.65-0.4
		c0.979-0.061,1.729-0.9,1.67-1.881c-0.061-0.979-0.91-1.74-1.881-1.67l-5.85,0.352l0.561-3.422c0.159-0.969-0.5-1.889-1.471-2.039
		c-0.97-0.16-1.891,0.5-2.04,1.471l-0.69,4.209l-6.459,0.381c-0.98,0.059-1.73,0.9-1.67,1.879c0.06,0.951,0.84,1.67,1.77,1.67
		c0.04,0,0.07,0,0.109,0l5.66-0.34l-1.33,8.08l-9.42,0.99c-0.979,0.1-1.689,0.98-1.58,1.961c0.101,0.91,0.871,1.59,1.771,1.59
		c0.06,0,0.13,0,0.19,0l8.449-0.891l-0.18,1.1c-0.16,0.971,0.5,1.891,1.471,2.041c0.1,0.02,0.189,0.02,0.289,0.02
		c0.86,0,1.61-0.621,1.75-1.49l0.34-2.07l19.48-2.049c0.98-0.102,1.689-0.98,1.58-1.961V79.955z"/>
	<path fill="#FCE3BB" d="M151.971,93.215l13.6-32.76l-8.36-7.039l-15.28,41.66L151.971,93.215z"/>
	<path fill="#C1DC83" d="M164.24,59.756c0,0-5.17-2.031-5.28-6.34c-0.11-4.31,0.681-14.98,0.64-17.98
		c-0.039-3,3.711-8.76,5.971-8.221c2.26,0.541,4.17,4.801,4.17,4.801s6.99-3.141,9.23-4.83c2.239-1.69,8.209-0.62,8.209-0.62
		s18.721,16.31,20.32,19.62c1.6,3.31,4.609,11.58,4.609,11.58l10.521,10.971c0,0-9.021,12.568-10.08,14.18
		c-1.06,1.609-3.88,3.57-3.88,3.57s2.2,3.43,0.54,5.049c-1.66,1.621-8.04,4.35-10.19,2.689c-2.149-1.658-12.069-14.08-12.739-15.67
		S164.26,59.756,164.26,59.756H164.24z"/>
	<path fill="#E8F9BB" d="M173,64.545c0,0-5.87-8.809-5.721-12.789c0.15-3.98,2.65-5.57,2.861-8.361
		c0.209-2.789,4.85-2.649,6.709-4.109c1.86-1.46,9.69-9.15,13.24-8.359l-6.47-5.061c0,0-8.04,1.66-8.95,2.311
		c-0.91,0.649-4.92,3.84-4.92,3.84s-1.71-1.99-3.68-3.211c-1.971-1.219-4.771,0.891-5.33,1.681c-0.561,0.79-1.91,5.489-1.51,8.01
		c0.399,2.521,0.279,9.13,0.149,10.87c-0.13,1.74-0.67,4.66-0.41,5.519c0.261,0.861,14.05,9.67,14.05,9.67L173,64.545z"/>
	<path fill="#C1DC83" d="M136.061,60.355c1.789-0.631,3.799-1.07,4.969-2.561c1.49-1.91,0.801-4.969-1.159-6.4
		c-1.96-1.43-4.75-1.34-6.88-0.189c-2.131,1.15-3.65,3.211-4.641,5.41c-0.789,1.74-1.279,3.77-0.59,5.561
		C130.01,68.045,133.359,61.305,136.061,60.355z"/>
	<path fill="#E8F9BB" d="M132.359,63.316c0,0,0.181-4.061,1.371-6.451c1.189-2.389,6.1-3.709,5.64-4.311
		c-0.46-0.6-4.97-2.539-5.64-2.229c-0.67,0.309-5.631,4.619-5.7,5.939c-0.07,1.32-0.46,2.98-0.07,4.641s4.399,2.398,4.399,2.398
		V63.316z"/>
	<path fill="#F1626E" d="M204.71,43.145c0,0-10.61-11.26-13.01-13.069c-2.4-1.81-6.841-6.16-7.63-8.35
		c-0.791-2.19-0.4-12.62,1.99-12.53c2.39,0.09,8.199,4.84,8.199,4.84s8.9-7.6,11.44-9.01c2.54-1.41,14.569-1.96,18.409,0.85
		c3.841,2.81,12.391,9.36,15.08,12.46c2.69,3.1,6.541,14.34,6.451,20.11c-0.091,5.77-3.271,13.66-4.16,14.99
		c-0.891,1.33-5.771,4.75-5.771,4.75s4.08,5.131,4.28,7.52c0.199,2.391-7.59,6.541-9.68,6.031c-2.09-0.512-11.931-7.432-13.73-9.012
		c-1.801-1.58-3.33-1.83-4.49-4.939s-7.38-14.62-7.38-14.62V43.145z"/>
	<path fill="#FFA1AC" d="M195.721,31.266c0,0-3.301-7.661-3.091-7.96c0.21-0.3,3.091,0.5,4.88,0c1.79-0.5,4.15,1.97,4.15,1.97
		s4.311-10.66,12.47-10.66c8.16,0,14.33,0.17,20.7,6.23c6.37,6.07,7.3,8.89,7.3,8.89s-6.659-13.75-7.54-15.71
		c-0.88-1.96-7.22-5.55-9.699-6.74c-2.48-1.19-7.391-3.35-10.75-3.43c-3.361-0.08-7.121,0.37-9.531,1.62
		c-2.409,1.25-6.289,4.05-7.409,5.52c-1.12,1.47-2.36,3.04-2.36,3.04s-4.189-4.06-4.73-4.26c-0.539-0.2-4.689-0.51-5,0.09
		c-0.31,0.6-2.549,2.91-2.469,4.98s-0.73,4.49,0.659,7.07s12.44,9.351,12.44,9.351H195.721z"/>
	<path fill="#F1626E" d="M246,86.145c0.29,1.641-0.67,3.311-2.02,4.291c-1.351,0.98-3.041,1.359-4.681,1.609
		c-4.72,0.701-7.909-2.939-3.909-6.6C237.939,83.115,245.061,80.895,246,86.145z"/>
	<path fill="#F1626E" d="M164.779,18.496c-2.949,0.32-10.909,1.48-11.67-2.96c-0.459-2.71,2.891-4.5,4.951-5.3
		c2.949-1.15,6.959-1.61,9.819,0.02c5.511,3.14,1.591,7.73-3.11,8.24H164.779z"/>
	<path fill="#FFA1AC" d="M157.279,17.556c0,0,0.271-2.25,5.311-3.53c5.04-1.28,6.77-1.34,6.77-1.34s-1.389-2.59-2.489-2.92
		s-6.71,0.73-7.979,1.19c-1.271,0.46-4.551,0.98-5.131,2.13c-0.58,1.15,0.82,4.68,1.141,4.84s2.39-0.38,2.39-0.38L157.279,17.556z"
		/>
	<path fill="#FFA1AC" d="M237.85,90.615c0,0,0.58-2,1.961-3.09c1.379-1.09,4.06-1.34,4.06-1.34s-1.29-2.041-1.49-2.189
		c-0.2-0.15-4.83,0.898-5.67,1.389s-1.739,1.691-1.94,2.74C234.57,89.176,237.85,90.615,237.85,90.615z"/>
	<path d="M203.26,97.795c-0.24,0-0.48,0-0.73-0.02c-4.219-0.189-8.389-2.039-11.449-5.09c-1.6-1.59-2.57-3.439-3.43-5.08
		c-0.57-1.08-1.101-2.09-1.74-2.91c-4.6-5.85-9.93-11.109-15.86-15.641c-2.11-1.609-4.31-3.139-6.54-4.539
		c-0.32-0.199-0.689-0.41-1.08-0.631c-1.709-0.959-3.84-2.16-5.109-4.479c-2.24-4.092-1.74-8.441-1.291-12.281
		c0.111-0.949,0.221-1.85,0.271-2.689c0.08-1.17-0.149-2.6-0.399-4.11c-0.371-2.319-0.801-4.94-0.2-7.521
		c1.01-4.34,4.989-8.589,9.649-7.919c1.311,0.19,3.23,1.01,4.871,2.259c4.129-3.719,9.76-5.85,14.93-5.359
		c1.959,0.19,3.39,1.93,3.199,3.88c-0.189,1.96-1.93,3.39-3.879,3.2c-4.32-0.41-9.391,2.32-11.83,6.37
		c-1.011,1.68-3.201,2.229-4.891,1.21c-1.26-0.76-1.88-2.17-1.689-3.54c-0.48-0.39-1.25-0.83-1.711-0.97
		c-0.449,0.16-1.439,1.27-1.72,2.47c-0.28,1.21,0,2.94,0.29,4.76c0.301,1.84,0.609,3.74,0.471,5.72
		c-0.07,1.021-0.19,2.051-0.301,3.041c-0.35,3.048-0.689,5.929,0.46,8.029c0.29,0.531,1.39,1.15,2.36,1.701
		c0.449,0.25,0.92,0.52,1.38,0.809c2.41,1.521,4.79,3.17,7.08,4.91c6.399,4.891,12.17,10.58,17.13,16.9
		c1.04,1.32,1.79,2.74,2.439,3.99c0.711,1.359,1.33,2.529,2.15,3.35c1.82,1.811,4.28,2.91,6.75,3.02
		c1.18,0.051,2.15-0.129,2.801-0.529c0.379-0.24,0.629-0.59,0.689-0.82c-1.471-0.16-2.71-1.221-3.07-2.689
		c-0.39-1.609,0.381-3.279,1.86-4.029c5.899-2.961,10.64-8.48,12.69-14.75c0.609-1.871,2.619-2.891,4.489-2.281
		s2.89,2.621,2.28,4.49c-2.12,6.49-6.301,12.18-11.78,16.17c0.38,0.801,0.62,1.689,0.66,2.609c0.14,2.852-1.45,5.73-4.069,7.361
		c-1.721,1.07-3.781,1.6-6.141,1.6L203.26,97.795z"/>
	<path d="M231.76,75.395c-2.49,0-5.08-0.689-7.439-2.08c-1.381-0.818-2.48-1.818-3.45-2.699c-0.66-0.6-1.29-1.17-1.92-1.609
		c-2.3-1.59-4.511-3.361-6.57-5.25c-2.67-2.451-4.13-5.41-5.54-8.27l-0.24-0.48c-0.64-1.291-1.119-2.57-1.58-3.82
		c-0.649-1.74-1.26-3.38-2.17-4.61c-2.109-2.84-4.529-5.601-7.199-8.21c-2.11-2.061-4.34-3.971-6.24-5.57
		c-0.46-0.39-1.061-0.83-1.7-1.29c-1.8-1.31-3.83-2.79-5.101-4.83c-1.869-3.02-4.639-9.41-3.159-14.23
		c0.95-3.09,3.47-5.47,6.42-6.06c2.39-0.48,5.03,0.2,7.239,1.85c0.361,0.27,0.701,0.55,1.021,0.84c1.41-1.74,3.05-3.28,4.92-4.58
		c4.56-3.17,10.261-4.76,16.05-4.46c4.61,0.24,9.28,1.67,13.871,4.26c9.639,5.44,16.649,14.75,19.229,25.54
		c1.92,8.021,1.05,15.94-2.431,22.29c-1.64,2.99-3.64,5.189-5.74,7.061c0.811,0.721,1.541,1.59,2.08,2.68
		c1.65,3.359,0.761,7.631-2.159,10.4c-2.181,2.051-5.11,3.1-8.19,3.1V75.395z M187.43,13.366c-0.06,0-0.109,0-0.15,0.01
		c-0.329,0.07-0.809,0.53-1.01,1.17c-0.49,1.61,0.631,5.53,2.41,8.39c0.53,0.86,1.971,1.9,3.24,2.83c0.71,0.51,1.439,1.05,2.09,1.6
		c2,1.68,4.35,3.699,6.631,5.92c2.939,2.87,5.609,5.92,7.949,9.061c1.51,2.039,2.37,4.34,3.131,6.359
		c0.42,1.13,0.819,2.189,1.289,3.15l0.24,0.49c1.23,2.49,2.29,4.629,3.971,6.18c1.819,1.67,3.77,3.23,5.799,4.641
		c1.021,0.699,1.881,1.49,2.65,2.189c0.79,0.721,1.54,1.4,2.29,1.84c2.149,1.27,5.28,1.66,7.11-0.07
		c0.66-0.619,0.89-1.609,0.66-2.08c-0.42-0.84-2.25-1.57-3.34-2.01c-1.19-0.471-2.041-1.549-2.211-2.83
		c-0.17-1.27,0.35-2.539,1.381-3.32c3.729-2.83,6.129-4.789,7.979-8.169c2.64-4.8,3.26-10.91,1.75-17.21
		c-2.12-8.87-7.89-16.53-15.81-21c-3.621-2.04-7.23-3.17-10.74-3.35c-4.221-0.22-8.35,0.91-11.62,3.19
		c-1.63,1.14-3.03,2.53-4.149,4.14l-0.101,0.14c-0.62,0.9-1.271,1.83-2.61,2.81c-1.56,1.14-3.75,0.82-4.92-0.72
		c-0.83-1.09-1.609-2.12-2.48-2.76c-0.56-0.42-1.1-0.59-1.439-0.59H187.43z"/>
	<path d="M141.93,98.635c-1.09,0-2.13-0.5-2.81-1.369c-0.74-0.949-0.95-2.199-0.56-3.34l17.319-50.791
		c0.63-1.859,2.66-2.85,4.521-2.22c1.859,0.63,2.85,2.66,2.22,4.521l-15.57,45.669c3.22-0.24,6.41-0.461,9.521-0.67
		c12.039-0.82,23.41-1.6,35.529-3.41c1.95-0.289,3.76,1.051,4.051,2.99c0.289,1.939-1.051,3.76-2.99,4.051
		c-12.4,1.859-23.91,2.639-36.1,3.469c-4.82,0.33-9.801,0.67-14.83,1.08c-0.101,0-0.19,0.01-0.291,0.01L141.93,98.635z"/>
	<path d="M238.15,94.666c-2.99,0-5.541-1.352-6.621-3.602c-1.149-2.42-0.35-5.219,2.131-7.5c2.07-1.889,6.92-4.09,10.75-2.799
		c2.189,0.74,3.64,2.49,4.08,4.93c0.439,2.49-0.75,5.15-3.04,6.801c-1.86,1.34-4.07,1.799-5.79,2.059
		c-0.51,0.08-1.02,0.111-1.52,0.111H238.15z M241.91,85.455c-1.561,0-3.74,0.891-4.811,1.859c-0.899,0.83-1.05,1.41-0.97,1.561
		c0.16,0.35,1.149,0.891,2.79,0.65c1.221-0.18,2.609-0.461,3.58-1.16c0.67-0.48,1.1-1.24,1-1.77c-0.15-0.82-0.471-0.93-0.71-1.01
		C242.529,85.496,242.23,85.455,241.91,85.455z"/>
	<path d="M130.03,67.096c-0.3,0-0.61-0.029-0.921-0.109c-2.439-0.561-3.409-3.08-3.719-3.91c-0.83-2.182-0.611-4.701,0.649-7.51
		c1.36-3.021,3.351-5.311,5.75-6.611c3.12-1.689,6.979-1.54,9.59,0.37c1.591,1.161,2.649,2.979,2.931,5
		c0.26,1.859-0.2,3.639-1.28,5.02c-1.46,1.859-3.591,2.561-5.3,3.109c-0.28,0.09-0.561,0.18-0.83,0.281
		c-0.35,0.139-1.221,0.959-1.74,1.449c-1.391,1.311-3.07,2.891-5.141,2.891L130.03,67.096z M136.42,52.865
		c-0.73,0-1.51,0.189-2.22,0.57c-1.79,0.971-2.91,2.83-3.54,4.221c-0.471,1.049-0.95,2.529-0.54,3.609
		c0.069,0.18,0.13,0.32,0.19,0.439c0.43-0.34,0.979-0.85,1.359-1.209c1.08-1.021,2.2-2.08,3.551-2.551
		c0.309-0.109,0.619-0.209,0.93-0.311c1.22-0.398,2.38-0.779,2.88-1.42c0.3-0.379,0.28-0.91,0.239-1.189
		c-0.09-0.641-0.43-1.25-0.899-1.59C137.85,53.055,137.15,52.865,136.42,52.865z"/>
	<path d="M159.83,21.406c-3.971,0-8.46-0.93-9.23-5.45c-0.57-3.31,1.82-6.26,6.541-8.1c1.629-0.63,7.31-2.49,12,0.18
		c4.27,2.44,4.119,5.63,3.859,6.89c-0.65,3.1-3.99,5.66-7.95,6.09l-0.521,0.06C163.33,21.216,161.63,21.406,159.83,21.406z
		 M163.43,11.736c-1.57,0-3.199,0.39-4.449,0.87c-2.431,0.94-3.44,2.05-3.371,2.5c0.091,0.55,1.091,1.74,8.351,0.92l0.54-0.06
		c1.93-0.21,3.37-1.36,3.52-2.07c0.07-0.34-0.51-0.93-1.399-1.44c-0.92-0.52-2.04-0.729-3.19-0.729V11.736z"/>
	<path fill="#E8F9BB" d="M172.439,58.045c3.711,3.17,14.811,13.961,14.811,13.961s-5.32-9.66-9.5-13.281
		c-4.18-3.619-5.35-2.279-6.1-3.939s-2.92,0.09,0.789,3.25V58.045z"/>
	<path fill="#E8F9BB" d="M179.95,48.426c0,0-2.39-3.711-2.19-5.121c0.2-1.41,1.29-3.6,2.19-3.3c0.899,0.3,1.409,1.87,0.899,2.38
		S179.95,48.426,179.95,48.426z"/>
	<path fill="#FFA1AC" d="M201.29,30.375c0,0,2.489,0.9,3.681,2.98c1.189,2.08,2.689,4.35,2.689,4.35s0.9-2.561,0-4.85
		c-0.9-2.29-6.37-2.49-6.37-2.49V30.375z"/>
</g>
</svg>
