<?xml version="1.0" encoding="utf-8"?>
<!-- Generator: Adobe Illustrator 16.0.0, SVG Export Plug-In . SVG Version: 6.00 Build 0)  -->
<!DOCTYPE svg PUBLIC "-//W3C//DTD SVG 1.1//EN" "http://www.w3.org/Graphics/SVG/1.1/DTD/svg11.dtd">
<svg version="1.1" id="Layer_1" xmlns="http://www.w3.org/2000/svg" xmlns:xlink="http://www.w3.org/1999/xlink" x="0px" y="0px"
	 width="145px" height="199.5px" viewBox="110 0 145 199.5" enable-background="new 110 0 145 199.5" xml:space="preserve">
<path fill="#F5846F" d="M231.581,67.221c5.989-4.171,9.26-8.99,9.08-14.631c0,0-0.57-7.54-3.29-10.811
	c-2.721-3.27-4.859-4.329-4.859-4.329c3-10.12-0.391-15.74-10.49-16.66c0,0-2.141-5.74-4.271-7.36c-2.13-1.63-9.07-3.43-12.78-2.61
	c-3.71,0.82-9.561,4.43-9.561,4.43l-14.529,6.37c0,0-9.99-5.39-16.19-4.42s-14.56,3.489-18.819,7.01
	c-4.261,3.521-10.761,9.66-11.86,13.851c-1.101,4.189,0.61,11.18,0.61,11.18s-8.75,2.85-14,9.16c-5.261,6.31-5.82,18.92,0.59,26.17
	c6.399,7.25,18.97,3.72,18.97,3.72s1.729,13.41,10.39,15.94c8.66,2.529,12.471,1.379,18.98-1.061s9.5-7.22,9.5-7.22
	s11.84,4.84,21.09-0.16c9.24-5,15.66-14.67,15.66-14.67l2.66-6.19c3.58-0.939,8.051-3.699,13.141-7.709H231.581z"/>
<path fill="#FFACA1" d="M174.521,95.88c0,0-27.37,4.171-28.43-13.55c0,0-12.5,3.71-17.351-9.79
	c-4.84-13.51,17.69-19.271,17.69-19.271s-4.36-11.68,2.88-20.08c7.24-8.399,31.78-8.079,31.78-8.079s-8.23-7.71-13.33-8.61
	c-5.11-0.9-18.78,4.51-24.101,8.641c-5.319,4.129-11.51,15.91-10.979,19.31s2.14,5.33,2.14,5.33s-12.58,4.58-16.09,11.72
	c-3.51,7.141-2.17,15.78,1.391,21.82c3.56,6.04,20.18,5.81,20.18,5.81s2.99,14.37,12.82,15.88c9.83,1.521,21.39-9.119,21.39-9.119
	L174.521,95.88z"/>
<path fill="#FFACA1" d="M200.48,16.641c0,0,13.541,4.539,16.66,8.72c3.121,4.18,1.461,4.09,1.461,4.09s0.68-2.63,4.83-0.11
	c4.149,2.521,5.56,10.26,5.56,10.26s7.36,16.44,5.78,21.371c-1.57,4.93,5.549,0.25,5.549,0.25s1.971-8.41-0.639-15.16
	c-2.611-6.75-5.48-8.57-5.48-8.57s3.58-5.27,1.58-10.36c-2-5.09-11.561-7.05-11.561-7.05s-3.97-4.63-5.91-7.52
	c-1.939-2.89-9.71-1.9-10.29-1.92s-7.55,6.01-7.55,6.01L200.48,16.641z"/>
<path fill="#FFACA1" d="M192,56.08c1.561,0.8,2.99,1.83,4.42,2.85c1.771,1.271,3.65,2.69,4.32,4.771c0.78,2.44-0.34,5.03-1.42,7.34
	c-0.75,1.59-1.51,3.21-2.68,4.53s-2.8,2.34-4.561,2.35c1.721-2.619,2.261-5.98,1.431-9c-0.61-2.22-2.29-5.8-4.63-6.63
	c-3.131-1.101-6.45,0.66-8.91-2.59c-1.46-1.931-1.37-4.57-1.86-6.94c-0.79-3.77-3.28-7.14-6.649-9
	c-3.37-1.859-7.551-2.17-11.16-0.83c3.79-2.18,7.81-4.279,12.17-4.569c4.359-0.29,9.17,1.67,10.91,5.68c1,2.29,0.89,4.92,1.75,7.261
	c0.96,2.609,2.9,3.17,5.24,4.049c0.56,0.211,1.1,0.451,1.629,0.721V56.08z"/>
<path fill="#FFACA1" d="M176.051,84.051c1.359-1.16,2.21-2.9,2.27-4.69c0.061-1.79-0.65-3.591-1.93-4.841
	c-1.85-1.819-4.68-2.369-7.25-2.029c-2.93,0.38-9.141,2.09-10.6,5c-1.271,2.54,0.709,2.59,2.649,2.17
	c2.761-0.59,5.55-2.141,8.44-1.88c1.689,0.149,3.229,0.93,4.4,2.14c0.379,0.391,2.709,3.54,2.01,4.131H176.051z"/>
<path fill="#FFACA1" d="M222.741,52.2c-1.091-2.86-2.81-5.51-5.181-6.63c-3.52-1.67-8.2-0.98-10.189-5.21
	c-1.49-3.181,0.289-6.87,0.34-10.38c0.039-3.16-1.461-6.311-3.94-8.271s-5.89-2.69-8.96-1.92c5.04-0.63,10.32,0.96,14.18,4.28
	c3.86,3.32,6.221,8.3,6.341,13.38c6.88,0.79,13.16,5.56,15.78,11.97c1.979,4.84,1.939,10.301-0.33,15.03
	c-1.09,2.271-2.66,4.3-4.54,5.979c-0.9,0.801-2.021,1.84-3.13,2.33c-0.9,0.4-3.73,0.051-4.291,0.65
	c3.701-3.87,5.701-9.311,5.381-14.65c-0.11-1.89-0.59-4.289-1.45-6.55L222.741,52.2z"/>
<path fill="#FFACA1" d="M198.051,38.07c-0.49-1.439-0.32-3.32-1.85-3.98c-0.74-0.32-1.69-0.459-2.49-0.43
	c-0.211,0-2.461,0.54-2.37,0.66c1.079,1.39,2.67,2.88,3.44,4.46c0.699,1.43,0.799,3.489,0.799,5.05c0,2.27-0.39,4.84,1.09,6.551
	c1.531,1.77,4.031,1.67,6.131,1.659c3.06-0.021,6.22,0.511,9.26,0.761c0.7,0.06,1.451,0.1,2.051-0.25
	c1.18-0.701,0.459-2.291-0.48-2.841c-1.551-0.909-3.32-1.45-5.12-1.569c-1.8-0.121-3.261-0.041-4.96-0.99
	C200.16,45.25,199.211,41.49,198.051,38.07z"/>
<path fill="#FFACA1" d="M148,58.65c1.631,0.67,2.86,2.3,2.971,4.06c0.04,0.681-0.07,1.36,0.01,2.04c0.33,2.78,2.85,1.59,3.92,0.12
	c1.221-1.68,1.891-3.67,1.58-5.76c-0.35-2.431-1.99-4.63-4.22-5.67c-2.42-1.13-5.99-0.91-7.82,1.25
	c-0.729,0.86-0.89,2.329-0.021,3.05c0.69,0.58,1.69,0.49,2.58,0.62c0.341,0.05,0.681,0.149,1,0.28V58.65z"/>
<path d="M199.9,100.55c-3.24,1.16-6.66,1.841-10.109,1.99c-4.141,0.17-7.721-0.569-10.541-2.16c-3.729,3.011-8.43,5.521-13.52,7.2
	c-6.49,2.141-13.279,1.73-18.62-1.13c-4.76-2.55-8.649-8.07-9.97-13.5C130,94.34,122,91.48,117.36,85.41
	c-3.579-4.689-5.06-11.221-4.05-17.92c0.971-6.45,4.15-12.03,8.74-15.311c2.73-1.949,5.689-3.189,8.56-4.39
	c-1.569-7.729,2.04-15.78,6.851-20.83c7.82-8.21,18.07-13.05,28.14-13.27c5.33-0.12,10.71,1.39,14.78,4.1
	c1.17-0.61,2.83-1.569,3.77-2.12c2-1.16,2.67-1.54,3.27-1.74c7.5-2.53,16.131-1.33,22.521,3.13
	c5.751,4.01,9.021,10.029,9.221,16.969c0,0.15,0,0.311,0,0.451c5.53,1.399,10.5,4.89,13.601,9.72
	c3.939,6.14,4.639,14.14,1.829,20.87c-2.521,6.06-7.78,10.83-14,12.83c-1.55,5.34-4.579,12.01-10.48,16.85
	c-3.04,2.5-6.51,4.46-10.21,5.779V100.55z M177.871,92.689c1.199-0.43,2.58-0.18,3.56,0.75c2.09,1.99,5.54,2.281,8.069,2.17
	c5.9-0.25,11.65-2.449,16.211-6.199c4.05-3.33,7.13-8.7,8.68-15.141c0.311-1.289,1.34-2.299,2.641-2.569
	c4.869-1.04,9.25-4.69,11.17-9.29s1.42-10.28-1.27-14.471c-2.69-4.189-7.641-7.02-12.621-7.199c-1.16-0.04-2.22-0.66-2.82-1.641
	c-0.609-0.99-0.68-2.209-0.199-3.26c0.189-0.41,0.399-0.779,0.58-1.109c0.119-0.211,0.289-0.521,0.369-0.69
	c-0.189-4.601-2.399-8.61-6.25-11.29c-4.59-3.2-10.8-4.08-16.22-2.29c-0.36,0.181-1.351,0.75-2.149,1.21
	c-5.721,3.301-7.66,4.43-9.86,2.79c0,0-0.091-0.08-0.14-0.11c-2.92-2.399-7.461-3.83-11.86-3.729
	c-8.24,0.18-16.72,4.239-23.271,11.12c-3.949,4.15-6.859,10.93-4.459,16.699c0.719,1.74-0.07,3.74-1.791,4.5
	c-0.93,0.41-1.859,0.801-2.77,1.17c-2.689,1.121-5.23,2.17-7.38,3.701c-3.07,2.199-5.23,6.1-5.921,10.699
	c-0.719,4.79,0.291,9.53,2.711,12.69c3.64,4.771,10.689,6.56,15.729,4c1.13-0.57,2.47-0.49,3.511,0.22
	c1.039,0.71,1.619,1.93,1.51,3.18c-0.36,3.9,3,9.721,6.77,11.74c3.68,1.971,8.48,2.21,13.18,0.66c5.17-1.71,9.82-4.38,13.07-7.54
	c0.37-0.351,0.79-0.61,1.24-0.771H177.871z"/>
<path d="M232.531,69.939c-0.1,0.041-0.211,0.07-0.311,0.111c-1.81,0.619-3.779-0.351-4.39-2.16c-0.62-1.811,0.34-3.761,2.16-4.391
	c3.88-1.311,6.659-4.311,7.68-8.23c1.101-4.219-0.021-8.699-2.989-11.989c-0.49-0.54-1.83-1.8-2.611-2.39
	c-0.709-0.09-1.389-0.4-1.949-0.92c-1.38-1.32-1.439-3.5-0.13-4.891c2.319-2.46,2.45-5.8,0.319-8.32
	c-1.58-1.88-4.68-4.029-6.59-2.939c-1.06,0.6-2.35,0.6-3.41,0c-1.06-0.6-1.72-1.71-1.76-2.92c-0.1-3.73-6.311-5.6-8.971-6.23
	c-3.14-0.74-7.989,0.561-13.66,3.66c-1.68,0.91-3.779,0.3-4.699-1.38c-0.92-1.681-0.301-3.78,1.38-4.7
	c7.38-4.03,13.63-5.49,18.569-4.32c8.281,1.95,11.871,5.5,13.342,8.69c4.18-0.13,8.389,2.479,11.09,5.681
	c3.43,4.06,4.02,9.469,1.85,14.02c0.93,0.8,1.76,1.66,2.369,2.34c4.531,5.029,6.23,11.891,4.541,18.37
	c-1.59,6.11-5.9,10.81-11.84,12.94L232.531,69.939z"/>
<path d="M196.551,81.18c-0.08,0.03-0.15,0.051-0.23,0.08c-1.81,0.601-3.77-0.379-4.38-2.189c-0.6-1.79,0.351-3.721,2.12-4.35
	c0.03,0,0.05-0.021,0.08-0.03c1.22-0.421,2.27-1.45,2.939-2.931c0.961-2.09,1-4.619,0.11-6.77c-0.899-2.18-2.78-4.03-5.03-4.95
	c-1.609-0.649-3.149-0.72-4.359-0.2c-1.33,0.58-2.881,0.26-3.881-0.789c-1-1.051-1.239-2.61-0.6-3.91
	c1.311-2.66,0.25-7.121-2.359-9.931c-2.5-2.7-6.25-4.149-10.041-3.89c-3.25,0.22-6.619,1.609-10.279,4.24
	c-0.971,0.699-2.23,0.84-3.34,0.39c-1.1-0.46-1.9-1.45-2.09-2.63c-0.311-1.83-1.83-3.68-3.4-4.12c-1.84-0.521-2.91-2.431-2.4-4.271
	s2.431-2.91,4.271-2.399c2.66,0.75,5.021,2.63,6.569,5.069c3.44-1.909,6.801-2.959,10.19-3.189c5.86-0.4,11.69,1.87,15.591,6.09
	c3.139,3.391,4.819,7.92,4.76,12.131c1.31,0.129,2.64,0.459,3.959,0.989c3.931,1.59,7.23,4.851,8.83,8.72
	c1.61,3.891,1.53,8.49-0.209,12.291c-1.451,3.17-3.871,5.479-6.82,6.539V81.18z"/>
<path d="M215.081,53.45c-1.069,0.38-2.3,0.229-3.271-0.51c-2.939-2.25-6.3-3.04-9.71-2.3c-1.319,0.289-2.681-0.221-3.5-1.291
	c-0.81-1.08-0.931-2.529-0.3-3.719c0.54-1.021-0.35-4.871-1.971-7.261c-0.949-1.399-2.279-2.42-3.56-2.72
	c-1.86-0.44-3.01-2.311-2.569-4.17c0.439-1.86,2.31-3.01,4.17-2.57c2.959,0.7,5.76,2.73,7.689,5.57
	c1.391,2.05,2.939,5.56,3.25,8.979c3.79,0.16,7.471,1.511,10.69,3.97c1.521,1.16,1.81,3.33,0.649,4.851
	c-0.42,0.55-0.969,0.94-1.58,1.16L215.081,53.45z"/>
<path d="M155.601,67.971c-1.22,0.439-2.63,0.17-3.61-0.801c-1.359-1.35-1.359-3.54-0.01-4.9c1.15-1.159,1.35-3.17,0.43-4.31
	c-0.99-1.22-3.319-1.58-4.89-0.739c-1.69,0.899-3.78,0.26-4.68-1.431c-0.9-1.69-0.261-3.78,1.43-4.68
	c4.511-2.4,10.45-1.31,13.53,2.489c3.17,3.91,2.77,9.86-0.9,13.551c-0.369,0.38-0.82,0.65-1.279,0.82H155.601z"/>
<path d="M178.541,88.29c-1.371,0.489-2.971,0.069-3.91-1.14c-1.17-1.51-0.891-3.69,0.619-4.86c0.761-0.58,1.24-1.47,1.371-2.49
	c0.129-0.979-0.11-1.94-0.631-2.62c-1.289-1.66-4.25-2.38-6.88-1.68c-2.729,0.73-5.26,2.8-6.76,5.54c-0.61,1.11-1.771,1.8-3.03,1.8
	s-2.43-0.68-3.039-1.779c-0.511-0.92-1.69-1.58-2.921-1.631c-1.37-0.06-2.85,0.59-3.7,1.631c-1.22,1.469-3.399,1.68-4.869,0.469
	c-1.48-1.219-1.681-3.399-0.471-4.869c2.23-2.71,5.811-4.29,9.35-4.141c1.881,0.08,3.671,0.65,5.201,1.59
	c2.319-2.549,5.299-4.439,8.47-5.279c5.42-1.45,11.1,0.22,14.14,4.13c1.65,2.12,2.38,4.94,2.03,7.74
	c-0.36,2.86-1.79,5.37-4.011,7.09c-0.299,0.229-0.619,0.399-0.949,0.521L178.541,88.29z"/>
<path fill="#E6E6E6" d="M173.063,113.24l6.109-11.36c13.18,21.409,32.66,36.05,57.84,44.7l-9.6,8.66
	C203.721,148.52,185.832,134.229,173.063,113.24z"/>
<path fill="#E6E6E6" d="M157.292,139.33l-9.22,14.17c5.18,21.709,26.369,37.26,47.08,36.38l10.439-12.32
	C182.611,173.27,167.402,159.439,157.292,139.33z"/>
<path fill="#333333" d="M236.191,145.949l8.76,1.86l4.08-11.67c-24.09-4.34-52.819-24.351-64.959-50.2l-9.291,8.471l5.07,7.109
	c11.721,20.939,30.811,35.471,56.35,44.43H236.191z"/>
<path fill="#333333" d="M246.871,134.47l2.791-9.44c-22.281-5.619-42.211-21.029-56.301-41.52l-6.14,4.869
	c13.229,22.541,30.95,40.24,59.64,46.091H246.871z"/>
<path fill="#333333" d="M248.262,124.66c1-12.211-39.73-44.371-54.4-40.78C209.451,102.4,227.063,117.02,248.262,124.66z"/>
<path fill="#E3AB4A" d="M211.982,178.959c-27.41-3.739-46.391-18.409-56.931-43.989l15.22-25.5c11.74,21.59,35.9,42.22,61.689,47.67
	l-19.99,21.819H211.982z"/>
<path fill="#FFD597" d="M161.701,145.359l15.44-23.619l-6.729-10.541l-14.4,23.09L161.701,145.359z"/>
<path fill="#FFFFFF" d="M153.332,166.31l9.5-16.63l-5.54-8.74l-7.9,13.27L153.332,166.31z"/>
<path fill="#FFFFFF" d="M180.132,123.939l6.62-10.59l-7.85-9.59l-5.16,10.01L180.132,123.939z"/>
<path fill="#808080" d="M182.912,105.199l8.58-6.77l2.3,3.029l6.929-6.6c0,0-0.789-3.25,3-2.39c6.852,1.55,20.461,7.81,22.57,9.101
	c8.32,5.129,9.881,6.459,9.881,6.459s-12.891-12.189-17.59-15.24c-4.701-3.049-19.02-9.14-19.02-9.14l-8.041,2.24l-6.979,1.86
	l-8.979,6.92l7.359,10.52L182.912,105.199z"/>
<path d="M228.201,159.01c-0.83,0-1.66-0.311-2.311-0.93c-1.318-1.28-1.359-3.381-0.078-4.701l5.25-5.43
	c-22.07-8.52-39.451-21.88-51.781-39.81l-3.869,6.42c-0.95,1.569-2.99,2.08-4.561,1.13c-1.57-0.949-2.08-2.99-1.13-4.561
	l6.61-10.969c0.6-0.99,1.67-1.601,2.83-1.61h0.02c1.15,0,2.23,0.6,2.83,1.579c12.45,20.221,31.32,34.791,56.09,43.291
	c1.08,0.369,1.891,1.26,2.15,2.369c0.27,1.11-0.051,2.271-0.84,3.09l-8.811,9.111c-0.65,0.67-1.52,1.01-2.391,1.01L228.201,159.01z"
	/>
<path d="M193.432,193.24c-22.189,0-43.311-16.791-48.6-38.971c-0.2-0.85-0.061-1.74,0.39-2.49l8.75-14.52
	c0.95-1.57,2.99-2.08,4.56-1.13c1.57,0.95,2.08,2.989,1.131,4.56l-8.03,13.33c5.12,18.73,23.181,32.71,42.069,32.57l10.48-10.84
	c1.279-1.32,3.381-1.36,4.699-0.08c1.32,1.279,1.361,3.38,0.08,4.699l-11.419,11.82c-0.591,0.61-1.4,0.971-2.25,1.01
	C194.672,193.229,194.052,193.24,193.432,193.24z"/>
<path d="M244.951,151.129c-0.17,0-0.34-0.01-0.51-0.039l-7.939-1.23c-1.811-0.279-3.061-1.98-2.781-3.79
	c0.281-1.819,1.98-3.06,3.791-2.78l5.209,0.811l1.92-5.49c-11.488-2.75-23.619-8.65-34.568-16.85
	c-11.61-8.7-20.871-19.15-26.99-30.42l-4.07,3.709l3.02,5.15c0.931,1.58,0.4,3.62-1.189,4.551c-1.58,0.93-3.62,0.399-4.55-1.19
	l-4.38-7.47c-0.791-1.351-0.53-3.08,0.63-4.141l9.29-8.47c0.779-0.71,1.85-1.01,2.89-0.8s1.91,0.89,2.36,1.85
	c10.84,23.08,37.73,43.86,62.539,48.34c0.961,0.17,1.791,0.76,2.281,1.601c0.49,0.84,0.59,1.85,0.27,2.77l-4.08,11.671
	c-0.471,1.35-1.74,2.229-3.141,2.229V151.129z"/>
<path d="M247.592,138.35c-0.221,0-0.449-0.02-0.68-0.07c-1.801-0.369-2.951-2.13-2.58-3.93l1.439-6.93
	c-20.32-5.961-39.02-19.76-53.209-39.28l-3.83,2.67c-1.511,1.05-3.58,0.681-4.631-0.83c-1.05-1.51-0.68-3.58,0.83-4.63l6.54-4.55
	c0.729-0.511,1.62-0.7,2.5-0.54c0.87,0.16,1.64,0.66,2.14,1.39c14.189,20.64,33.5,34.91,54.371,40.181
	c1.73,0.439,2.799,2.149,2.439,3.899l-2.07,9.99c-0.33,1.569-1.709,2.649-3.25,2.649L247.592,138.35z"/>
<path d="M249.662,128.35c-0.09,0-0.18,0-0.279-0.01c-1.83-0.15-3.191-1.76-3.041-3.59c0.23-2.78-4.381-9.92-15.041-19.01
	c-14.109-12.041-30.77-20.561-37.148-19c-1.781,0.439-3.58-0.66-4.021-2.44s0.66-3.58,2.44-4.021
	c10.219-2.5,29.479,8.82,43.049,20.4c6.76,5.77,18,16.64,17.352,24.62C252.832,127.039,251.371,128.35,249.662,128.35z"/>
<path d="M211.982,182.289c-0.15,0-0.301,0-0.451-0.029c-28.539-3.9-48.58-19.38-59.549-46.02c-0.4-0.971-0.32-2.07,0.219-2.971
	l15.221-25.5c0.609-1.029,1.74-1.64,2.92-1.619c1.189,0.02,2.279,0.689,2.85,1.739c12.291,22.601,36.18,41.09,59.461,46.011
	c1.17,0.25,2.109,1.1,2.479,2.239c0.361,1.14,0.09,2.38-0.709,3.261l-19.99,21.819c-0.631,0.69-1.529,1.08-2.449,1.08V182.289z
	 M158.771,135.229c10.021,23.149,27.041,36.31,51.949,40.19l15.041-16.41c-21.52-6.33-42.79-22.79-55.51-43l-11.48,19.23V135.229z"
	/>
<path fill="#99671F" d="M176.441,145.25c0.93-1.061,2.08-1.961,2.771-2.301c2.76-1.369,6.14-1.319,9.04-0.449
	c2.52,0.76,9.57,4.119,8.939,7.52c-0.629,3.4-5.99,0.51-7.74,0.1c-3.699-0.869-7.58-0.76-11.34-0.289
	c-0.859,0.109-1.84,0.18-2.49-0.381c-1.239-1.069-0.42-2.779,0.82-4.189V145.25z"/>
<path fill="#99671F" d="M182.441,151.76c2.75,0.9,5.5,2.21,8.351,1.97c2.09-0.18,8.659-1.83,6.399,2.78
	c-1.16,2.359-4.649,3.529-7.05,3.85c-5.04,0.68-10.88-1.33-14.021-5.34c-3.43-4.391,4.091-3.98,6.32-3.25V151.76z"/>
<path d="M235.221,114.949c-1.318,0-2.568-0.789-3.09-2.09l-2.84-7.119c-0.68-1.711,0.15-3.641,1.861-4.32
	c1.699-0.68,3.639,0.149,4.318,1.859l2.842,7.12c0.68,1.71-0.15,3.64-1.861,4.32c-0.4,0.159-0.82,0.239-1.23,0.239V114.949z"/>
</svg>
