<?xml version="1.0" encoding="utf-8"?>
<!-- Generator: Adobe Illustrator 16.0.0, SVG Export Plug-In . SVG Version: 6.00 Build 0)  -->
<!DOCTYPE svg PUBLIC "-//W3C//DTD SVG 1.1//EN" "http://www.w3.org/Graphics/SVG/1.1/DTD/svg11.dtd">
<svg version="1.1" id="Layer_1" xmlns="http://www.w3.org/2000/svg" xmlns:xlink="http://www.w3.org/1999/xlink" x="0px" y="0px"
	 width="278px" height="130.5px" viewBox="0 0 278 130.5" enable-background="new 0 0 278 130.5" xml:space="preserve">
<path fill="#8C6239" d="M27.669,41.01l26.52-25.99c2.01-1.97,5.23-1.93,7.199,0.07l40.84,41.68c1.971,2.01,1.931,5.23-0.069,7.201
	l-13.87,13.59"/>
<path fill="#ED1C24" d="M78.6,89.38l-21.82,20.979c-2.78,2.67-7.18,2.601-9.88-0.149L6.349,68.83c-2.71-2.77-2.67-7.21,0.1-9.93
	l1.42-1.391"/>
<path fill="#CCCCCC" d="M25.079,40.279c-2.19-0.5-4.43-0.399-6.6-0.819c-1.63-0.31-2.88-0.65-4.58-0.2
	c-3.22,0.85-5.63,3.55-5.96,6.88c-0.33,3.28,0.85,7.06,1.39,10.28c0.33,1.99,0.67,4.029,1.63,5.811
	c0.96,1.779,2.66,3.289,4.68,3.459c2.84,0.25,5.3-2.1,8.13-2.33c3.31-0.27,6.13,2.391,7.97,5.16c1.84,2.771,3.27,5.971,5.96,7.91
	c4.3,3.09,10.17,1.99,15.44,2.5c8.83,0.86,16.36,6.46,24.49,10.03c3.07,1.34,6.75,2.37,9.641,0.68c1.699-1,2.699-2.72,3.24-4.569
	c0.439-1.511,1.14-4.201,0.569-5.73c-0.569-1.53-3.19-1.811-4.58-2.26c-2.069-0.67-4.12-1.391-6.149-2.16
	c-8.041-3.04-15.801-6.86-22.971-11.61c-3.979-2.64-7.78-5.56-11.31-8.78c-4.39-4-8.44-8.489-13.61-11.41
	c-2.3-1.299-4.79-2.26-7.36-2.84H25.079z"/>
<path fill="#F2515D" d="M56.029,108.67c0,0-7.95-4.58-11.52-8.09s-29.63-32.84-29.63-32.84l-1.56-2.65l-5.49-6.6l-2.14,3.17
	l-1.46,3.59l37.03,39.71c0,0,10.12,7.17,11.27,7.11c1.15-0.061,3.48-3.41,3.48-3.41L56.029,108.67z"/>
<path fill="#B58D6D" d="M47.149,30.6l8.76-8.59c0.851-0.83,2.22-0.82,3.05,0.03l8.92,9.1c1.82,1.86-0.58,4.75-2.74,3.31l-6.31-4.229
	c-0.68-0.45-1.56-0.49-2.271-0.08l-6.839,3.88c-2.2,1.25-4.38-1.649-2.58-3.419H47.149z"/>
<path fill="#B58D6D" d="M71.309,55.24l8.761-8.59c0.851-0.83,2.22-0.82,3.05,0.029l8.92,9.1c1.82,1.861-0.58,4.75-2.74,3.311
	l-6.31-4.23c-0.681-0.449-1.56-0.489-2.271-0.08l-6.84,3.881c-2.199,1.25-4.379-1.65-2.58-3.42H71.309z"/>
<path fill="#FFFFFF" d="M27.759,57.51c-0.48-0.68-1.02-1.41-1.83-1.6c-0.87-0.2-1.74,0.289-2.63,0.369
	c-1.99,0.181-3.52-1.649-4.67-3.279c-0.68-0.96-1.3-2.41-0.4-3.16c0.4-0.34,0.97-0.37,1.5-0.38l6.15-0.181
	c1.81-0.049,3.67-0.1,5.4,0.431c3.21,0.979,5.48,3.729,7.82,6.13c6.17,6.32,14.07,10.93,22.61,13.21l-29.41-22.931
	c-2.14-1.67-4.3-3.35-6.72-4.569s-5.16-1.97-7.85-1.649c-2.69,0.319-5.32,1.83-6.57,4.239c-1.69,3.28-0.56,7.24,0.6,10.74l1.88,5.68
	c0.57,1.72,1.33,3.64,3.02,4.28c2.13,0.8,4.32-0.891,6.56-1.32c2.86-0.55,5.74,1.051,7.76,3.15c1.59,1.67,2.8,3.64,4.15,5.5
	c0.42,0.58,3.12,4.42,3.83,2.87c0.67-1.46-1.68-3.89-2.38-4.89l-4.14-5.92l-4.69-6.711L27.759,57.51z"/>
<path fill="#FFFFFF" d="M36.709,60.33c3.57,3.47,7.55,6.529,11.82,9.1c0.11,0.98-0.62,1.92-1.54,2.26s-1.97,0.17-2.86-0.25
	s-1.65-1.06-2.4-1.699c-0.76-0.641-1.66-1.25-2.32-1.99c-0.43-0.49-0.53-1.07-0.73-1.68c-0.32-0.971-0.67-1.94-1-2.91
	C37.439,62.47,37.219,60.83,36.709,60.33z"/>
<path fill="#FFFFFF" d="M80.219,82.26c0.211-0.04,0.431-0.1,0.61-0.23c0.181-0.129,0.3-0.35,0.261-0.569
	c-0.061-0.32-0.431-0.47-0.74-0.56l-5-1.511c-0.561-0.17-1.25-0.319-1.68,0.091c-0.131,0.119,2.85,2.14,3.129,2.289
	c1.101,0.59,2.18,0.75,3.42,0.5V82.26z"/>
<path d="M88.279,80.92c-0.87,0-1.74-0.34-2.4-1.01c-1.3-1.32-1.279-3.45,0.051-4.75l13.869-13.59c0.33-0.32,0.51-0.76,0.521-1.221
	c0-0.46-0.17-0.9-0.49-1.229l-40.84-41.68c-0.67-0.68-1.771-0.69-2.45-0.02L30.02,43.41c-1.32,1.3-3.45,1.279-4.75-0.051
	c-1.3-1.319-1.28-3.449,0.05-4.75l26.52-25.989c3.331-3.26,8.69-3.21,11.95,0.12l40.84,41.68c1.58,1.609,2.439,3.74,2.41,6
	c-0.02,2.26-0.92,4.37-2.53,5.95l-13.87,13.59c-0.649,0.64-1.5,0.96-2.35,0.96H88.279z"/>
<path d="M51.919,115.66c-2.7,0-5.39-1.04-7.41-3.1L3.959,71.18c-4-4.09-3.94-10.67,0.15-14.67l1.42-1.39
	c1.32-1.3,3.45-1.28,4.75,0.05c1.3,1.32,1.28,3.45-0.05,4.75l-1.42,1.391c-1.44,1.409-1.47,3.729-0.05,5.18l40.55,41.38
	c1.4,1.43,3.71,1.46,5.15,0.079l21.82-20.979c1.34-1.29,3.46-1.239,4.75,0.091c1.29,1.34,1.24,3.459-0.09,4.75l-21.82,20.979
	c-2,1.92-4.6,2.88-7.19,2.88L51.919,115.66z"/>
<path d="M83.749,93.891c-3.28,0-6.22-1.291-7.479-1.851c-2.57-1.13-5.061-2.44-7.48-3.71c-5.39-2.84-10.48-5.52-15.99-6.051
	c-1.32-0.129-2.72-0.149-4.21-0.159c-4.17-0.05-8.9-0.101-12.87-2.95c-2.6-1.87-4.19-4.5-5.58-6.82c-0.42-0.689-0.81-1.35-1.22-1.97
	c-1.59-2.409-3.41-3.78-4.9-3.67c-0.71,0.06-1.63,0.47-2.6,0.899c-1.64,0.73-3.67,1.641-6.1,1.431c-2.98-0.261-5.72-2.21-7.34-5.22
	c-1.23-2.291-1.63-4.721-1.99-6.86c-0.13-0.8-0.32-1.66-0.51-2.58c-0.56-2.659-1.2-5.68-0.91-8.59c0.46-4.649,3.86-8.59,8.45-9.8
	c2.27-0.6,4.04-0.25,5.6,0.06l0.47,0.091c0.83,0.159,1.74,0.229,2.7,0.31c1.28,0.1,2.61,0.21,4.02,0.53
	c2.9,0.66,5.68,1.729,8.27,3.189c4.32,2.43,7.82,5.78,11.21,9.02c0.99,0.94,2.01,1.92,3.01,2.83c3.31,3.021,6.98,5.871,10.9,8.461
	c6.6,4.369,14.109,8.16,22.3,11.26c1.95,0.74,3.97,1.449,6,2.109c0.19,0.061,0.49,0.141,0.81,0.211
	c1.801,0.439,4.801,1.18,5.881,4.069c0.699,1.88,0.54,4.3-0.5,7.851c-0.86,2.939-2.51,5.199-4.76,6.52
	c-1.69,0.99-3.49,1.35-5.201,1.35L83.749,93.891z M24.229,60c3.8,0,7.43,2.35,10.3,6.689c0.49,0.73,0.93,1.48,1.37,2.201
	c1.17,1.939,2.27,3.77,3.75,4.83c2.24,1.609,5.54,1.649,9.02,1.689c1.56,0.02,3.17,0.04,4.78,0.189
	c6.82,0.66,12.74,3.78,18.46,6.791c2.42,1.27,4.7,2.469,7.05,3.5c3.061,1.34,5.271,1.629,6.59,0.859
	c0.951-0.55,1.461-1.73,1.721-2.62c0.5-1.7,0.63-2.67,0.65-3.18c-0.371-0.12-0.871-0.24-1.181-0.32
	c-0.431-0.101-0.87-0.21-1.3-0.351c-2.131-0.689-4.25-1.439-6.301-2.209c-8.66-3.28-16.609-7.301-23.64-11.95
	c-4.21-2.79-8.15-5.851-11.72-9.101c-1.06-0.97-2.11-1.97-3.13-2.939c-3.23-3.09-6.29-6.01-9.88-8.03
	c-2.02-1.14-4.19-1.979-6.46-2.489c-0.94-0.211-1.97-0.301-3.07-0.391s-2.23-0.18-3.42-0.41l-0.51-0.1
	c-1.28-0.25-1.84-0.35-2.58-0.15c-1.89,0.5-3.29,2.09-3.48,3.971c-0.19,1.869,0.31,4.24,0.8,6.529c0.2,0.94,0.41,1.92,0.56,2.86
	c0.28,1.71,0.57,3.47,1.28,4.78c0.51,0.949,1.34,1.649,2.01,1.709c0.69,0.061,1.7-0.389,2.78-0.869c1.38-0.61,2.94-1.311,4.8-1.461
	c0.25-0.02,0.49-0.029,0.74-0.029H24.229z"/>
<path d="M55.129,65.15c-0.869,0-1.74-0.34-2.4-1.011c-1.3-1.319-1.28-3.45,0.05-4.75l26.54-26c1.319-1.3,3.45-1.28,4.75,0.05
	c1.3,1.32,1.28,3.45-0.05,4.75l-26.541,26C56.829,64.83,55.979,65.15,55.129,65.15z"/>
<path d="M76.959,76.949c-0.859,0-1.72-0.329-2.369-0.979l-40.92-40.79c-1.31-1.31-1.32-3.44,0-4.75c1.31-1.31,3.44-1.32,4.75,0
	l40.92,40.79c1.31,1.31,1.319,3.44,0,4.75c-0.66,0.66-1.521,0.99-2.381,0.99V76.949z"/>
<path fill="#FFDA3A" d="M166.52,97.15c19.77-12.601,39.939-40.19,27.56-64C188.18,21.8,176.93,19.11,168.489,10
	c-2.12-2.29-7.14-6.86-10.649-5.69c-3.511,1.17-6.541,9.66-3.431,12.38c1.399,1.22,3.341,1.53,5.12,2.08
	c4.32,1.33,9.96,10.46,10.54,14.85c0.67,5.16-0.62,10.39-2.511,15.23c-4.949,12.64-14.319,23.41-25.899,30.419
	c-5.569,3.371-12.069,6.371-18.54,7.461c-4.66,0.789-11.29-0.78-12.32,5.549c-0.529,3.25,1.19,6.561,3.711,8.681
	c2.52,2.12,5.74,3.21,8.939,3.979c14.801,3.541,30.52,0.23,43.09-7.77L166.52,97.15z"/>
<path fill="#C2D952" d="M168.139,28.29c0,0,2.65-2.16,4.781-2.18c2.129-0.02,3.77-7.97,3.77-7.97l-16.08-13.79l-4.95,2.25
	l-1.229,8.85l13.699,12.83L168.139,28.29z"/>
<path fill="#FFED9F" d="M129.809,104.311c0,0-6.969-4.101-7.789-5.9c-0.82-1.801,0.84-4.59,7.18-6.08s29.54-12.74,37.54-22.891
	c8.01-10.149,11.93-28.01,10.04-33.85c-1.891-5.84-4.301-9.45-4.301-9.45s-2.029,0.64-2.559,0.95
	c-0.531,0.31,0.379,10.94,0.379,10.94s-3.289,14.35-8.5,21.41c-5.209,7.061-15.649,16.69-21.17,19.49
	c-5.52,2.801-22.38,7.561-24.859,8.44c-2.48,0.88-3.84,1.659-4.291,2.76c-0.449,1.101,0.921,6.47,1.841,8.53
	c0.92,2.06,16.47,5.64,16.47,5.64L129.809,104.311z"/>
<path fill="#E9F784" d="M172.489,26.15c0,0-1.97,0.59-2.29,0.82s-4.189-6.93-8.63-8.29c-4.44-1.36-7.33-2.57-7.851-3.51
	c-0.52-0.94,0.75-8.01,3.03-9.05s3.25,0,3.25,0s-1.04,3.47-0.67,4.96c0.37,1.49,5.94,6.61,7.729,8.02
	c1.791,1.41,5.44,7.04,5.44,7.04L172.489,26.15z"/>
<path d="M160.479,103.971c-12.029,5.479-25.399,6.939-37.76,3.979c-3.069-0.729-7-1.921-10.209-4.62
	c-3.621-3.04-5.451-7.471-4.781-11.57c1.201-7.359,7.83-7.67,11.801-7.859c1.13-0.051,2.189-0.101,3.08-0.26
	c5.26-0.891,11.29-3.33,17.439-7.051c11.25-6.811,19.99-17.07,24.621-28.89c2.069-5.3,2.829-9.78,2.319-13.69
	c-0.49-3.78-5.729-11.47-8.37-12.28c-0.34-0.11-0.689-0.2-1.04-0.3c-1.59-0.44-3.569-0.98-5.21-2.41
	c-2.061-1.79-2.82-4.89-2.09-8.49c0.75-3.73,3.08-8.02,6.59-9.19c5.43-1.8,11.54,3.97,13.91,6.53c3.17,3.42,6.91,5.97,10.529,8.43
	c5.73,3.9,11.66,7.94,15.541,15.4c6.09,11.72,5.5,25.229-1.721,39.079c-5.779,11.091-15.84,21.921-26.93,28.98l-1.67-2.63l1.67,2.63
	c-2.49,1.59-5.08,2.99-7.721,4.19V103.971z M115.18,90.779c-0.84,0.381-1.141,0.98-1.301,1.98c-0.31,1.91,0.721,4.18,2.641,5.79
	c2.22,1.86,5.26,2.761,7.66,3.341c13.449,3.219,28.279,0.529,40.689-7.371C182.85,83.07,202.939,56.9,191.34,34.58
	c-3.16-6.07-8.19-9.5-13.521-13.13c-3.91-2.66-7.95-5.41-11.591-9.35c-3.329-3.6-6.479-5.15-7.379-4.85
	c-0.53,0.2-1.881,1.94-2.41,4.35c-0.36,1.66-0.09,2.58,0.05,2.73c0.569,0.49,1.63,0.79,2.76,1.1c0.41,0.11,0.83,0.23,1.229,0.35
	c5.791,1.79,12.021,12.12,12.711,17.43c0.65,4.98-0.23,10.46-2.7,16.77c-5.12,13.09-14.78,24.43-27.19,31.95
	c-6.91,4.19-13.52,6.83-19.629,7.87c-1.261,0.21-2.561,0.28-3.82,0.341c-2.381,0.109-3.791,0.27-4.641,0.659L115.18,90.779z"/>
<path fill="#FBB672" d="M241.559,110c-9.569,8.32-21.789,14.561-34.92,14.92c-13.129,0.36-27.01-6.14-32.56-17.449
	c-5.8-11.811-1.479-26.15,7.22-36c10.021-11.341,25.98-23.171,40.561-28.781c19.47-7.49,47.379-1.65,48.449,22.1
	c0.811,17.96-15.92,34.05-28.76,45.21H241.559z"/>
<path fill="#F1626E" d="M184.43,116.109c-5.17-2-9.061-6.649-10.84-11.899c-1.781-5.25-1.58-11.03-0.181-16.39
	c1.19-4.57,3.25-8.92,6.021-12.75c2.449-3.381,5.43-6.34,8.47-9.2c9-8.49,18.771-16.45,30.149-21.33
	c11.381-4.88,24.601-6.4,36.15-1.95c4.311,1.66,8.41,4.22,11.04,8.01c2.63,3.791,3.569,8.95,1.59,13.121
	c-3.83,8.06-15.85,8.93-20.51,16.539c-1.66,2.711-2.21,6.04-4.149,8.561c-2.311,2.99-6.181,4.279-9.9,4.96
	c-3.721,0.68-7.58,0.92-11.02,2.47c-5.181,2.32-8.631,7.09-12.49,11.04c-3.601,3.681-8.67,6.99-13.49,8.851
	c-3.44,1.33-7.41,1.31-10.85-0.031H184.43z"/>
<path fill="#FF94A1" d="M182.889,116.43c0,0-6.51-13-4.459-24.51c2.84-15.98,34.709-37.79,49.18-43.69
	c14.47-5.91,26.31-2.99,31.97,0.82l5.66,3.81c0,0-5.78-8.12-13.729-11.21c-7.951-3.09-24.58-0.51-29.021,1.19
	c-4.44,1.7-23.239,12.91-27.21,16.4c-3.971,3.479-18.91,19.47-21.32,26.689C171.549,93.15,173.279,108.689,182.889,116.43z"/>
<path fill="#FF94A1" d="M199.879,76.79c0,0-5.58,7.63-1.119,9.87c4.459,2.23,19.729-4.46,26.939-9.689
	c3.939-2.861,10.04-11.41,9.1-15.44c-0.939-4.03-7.479-1.97-8.629-1.54c-1.15,0.43,0.819,6.09,0.819,6.09s-1.13,5.72-3.569,7.41
	c-2.44,1.689-15.561,7.029-17.19,7.23c-1.63,0.199-6.351-3.921-6.351-3.921V76.79z"/>
<path d="M205.629,128c-6.72,0-13.609-1.66-19.52-4.71c-6.73-3.47-11.84-8.479-14.79-14.479c-3.04-6.201-3.761-13.391-2.069-20.781
	c1.51-6.609,4.969-13.219,9.739-18.609c11.021-12.471,27.41-24.1,41.761-29.62c13.559-5.22,29.719-4.1,40.229,2.77
	c7.68,5.02,11.97,12.65,12.39,22.06c0.83,18.431-14.6,34.44-29.811,47.67c-11.229,9.771-24.309,15.33-36.85,15.67
	c-0.359,0-0.729,0.011-1.09,0.011L205.629,128z M238.68,42.66c-5.26,0-10.68,0.95-15.721,2.89C209.67,50.66,193.85,61.9,183.59,73.5
	c-7.291,8.24-12.201,21.529-6.761,32.609c4.601,9.371,16.33,15.75,28.75,15.75c0.32,0,0.65,0,0.97-0.01
	c11.121-0.3,22.83-5.33,32.99-14.16c14.1-12.27,28.42-26.939,27.7-42.76c-0.34-7.46-3.569-13.25-9.62-17.2
	c-5.119-3.35-11.89-5.07-18.949-5.07H238.68z"/>
<path d="M188.289,121.29c-4.5,0-9.1-1.51-12.229-5.351c-1.07-1.31-0.88-3.25,0.44-4.319c1.309-1.07,3.25-0.88,4.319,0.44
	c2.94,3.6,8.739,3.75,12.95,2.029c4.67-1.9,8.64-5.76,12.49-9.5l0.76-0.74c4.59-4.449,9.619-8.939,16.1-10.699
	c1.99-0.541,3.98-0.78,5.9-1.01c2.63-0.32,5.12-0.621,7.17-1.66c3.07-1.561,5.189-4.74,7.43-8.121
	c1.689-2.539,3.439-5.159,5.75-7.369c2.28-2.18,4.881-3.73,7.391-5.23c0.5-0.3,1-0.6,1.5-0.9c2.529-1.549,5.09-3.31,6.64-5.699
	c1.18-1.82,1.87-4.561,0.75-6.561c-0.83-1.479-0.31-3.35,1.17-4.18s3.35-0.31,4.18,1.17c2.101,3.73,1.729,8.801-0.95,12.92
	c-2.22,3.41-5.439,5.66-8.59,7.59c-0.52,0.311-1.029,0.631-1.55,0.94c-2.319,1.39-4.521,2.7-6.3,4.399
	c-1.82,1.74-3.301,3.971-4.88,6.33c-2.591,3.891-5.261,7.91-9.771,10.19c-3.02,1.53-6.16,1.91-9.209,2.28
	c-1.781,0.22-3.471,0.42-5.031,0.84c-5.069,1.38-9.42,5.3-13.439,9.189l-0.75,0.73c-4.27,4.141-8.68,8.43-14.45,10.78
	C193.76,120.721,191.039,121.29,188.289,121.29z"/>
<path d="M206.229,83.78c-0.68,0-1.389-0.07-2.109-0.261c-2.67-0.699-4.57-2.85-4.74-5.35c-0.109-1.689,1.17-3.15,2.86-3.27
	c1.61-0.11,3,1.029,3.239,2.59c0.051,0.029,0.121,0.07,0.201,0.09c0.6,0.16,1.539-0.03,2.299-0.21
	c6.181-1.479,11.881-5.22,15.631-10.28c0.22-0.3,0.77-1.04,0.9-1.56c-1.301-0.591-2.051-2.04-1.721-3.49
	c0.381-1.649,2.03-2.681,3.68-2.29c2.61,0.609,4.41,3.23,4.181,6.109c-0.16,2.011-1.16,3.611-2.12,4.9
	c-4.6,6.19-11.57,10.78-19.13,12.59c-0.96,0.23-2.04,0.44-3.181,0.44L206.229,83.78z"/>
<path d="M208.789,82.15c-0.71,0-1.42-0.25-2.01-0.75c-1.28-1.11-1.42-3.051-0.32-4.33c4.49-5.2,10.29-9.221,16.78-11.62
	c1.59-0.591,3.36,0.22,3.95,1.81s-0.221,3.36-1.811,3.94c-5.51,2.05-10.449,5.46-14.27,9.88c-0.61,0.7-1.46,1.061-2.32,1.061V82.15z
	"/>
<path fill="#F7941D" d="M181.069,99.939c-0.79,0-1.46-0.609-1.53-1.41l-0.26-3.209c-0.07-0.84,0.561-1.58,1.41-1.65
	c0.84-0.07,1.58,0.561,1.65,1.41l0.26,3.21c0.069,0.84-0.561,1.579-1.41,1.649C181.149,99.939,181.109,99.939,181.069,99.939z"/>
<path fill="#FFFFFF" d="M183.959,84.1c-0.74,0-1.39-0.539-1.51-1.289c-0.14-0.84,0.43-1.621,1.27-1.761l4.341-0.7
	c0.84-0.14,1.62,0.431,1.76,1.271s-0.431,1.62-1.271,1.76l-4.34,0.7C184.129,84.09,184.039,84.1,183.959,84.1z"/>
<path fill="#00A651" d="M194.02,73.58c-0.061,0-0.131,0-0.19-0.01c-0.84-0.11-1.44-0.87-1.33-1.711l0.55-4.34
	c0.11-0.84,0.871-1.439,1.711-1.33c0.84,0.11,1.439,0.871,1.33,1.711l-0.551,4.34C195.439,73.02,194.779,73.58,194.02,73.58z"/>
<path fill="#FFDA3A" d="M199.879,93.859h-6.18c-0.85,0-1.529-0.689-1.529-1.529s0.689-1.53,1.529-1.53h6.18
	c0.851,0,1.53,0.69,1.53,1.53S200.719,93.859,199.879,93.859z"/>
<path fill="#FFFFFF" d="M228.909,82.01h-5.489c-0.851,0-1.531-0.689-1.531-1.529s0.69-1.531,1.531-1.531h5.489
	c0.851,0,1.53,0.691,1.53,1.531S229.75,82.01,228.909,82.01z"/>
<path fill="#FFDA3A" d="M240.799,68.811c-0.41,0-0.81-0.16-1.109-0.48c-0.58-0.609-0.561-1.59,0.061-2.17l3.989-3.78
	c0.62-0.58,1.59-0.56,2.17,0.06c0.58,0.61,0.56,1.591-0.06,2.17l-3.99,3.781C241.559,68.67,241.18,68.811,240.799,68.811z"/>
<path fill="#00A651" d="M246.659,50.87c-0.76,0-1.43-0.57-1.521-1.35c-0.1-0.84,0.49-1.61,1.341-1.71l4.59-0.56
	c0.84-0.1,1.61,0.5,1.71,1.34s-0.49,1.61-1.34,1.71l-4.59,0.56C246.789,50.86,246.719,50.87,246.659,50.87z"/>
<path fill="#FFFFFF" d="M237.219,61.891c-0.369,0-0.739-0.131-1.029-0.4c-0.631-0.57-0.68-1.541-0.11-2.17
	c0.521-0.58,0.729-1.471,0.511-2.221c-0.24-0.81,0.229-1.66,1.049-1.9c0.811-0.239,1.66,0.23,1.9,1.051
	c0.51,1.76,0.04,3.779-1.189,5.141c-0.301,0.329-0.721,0.51-1.141,0.51L237.219,61.891z"/>
<path fill="#FFDA3A" d="M233.109,48.39h-4.801c-0.85,0-1.529-0.69-1.529-1.53c0-0.84,0.689-1.53,1.529-1.53h4.801
	c0.85,0,1.529,0.69,1.529,1.53C234.639,47.7,233.949,48.39,233.109,48.39z"/>
<path fill="#F7941D" d="M211.779,60.07c-0.15,0-0.311-0.021-0.46-0.07c-0.81-0.25-1.261-1.12-1-1.92l1.17-3.721
	c0.25-0.81,1.11-1.26,1.92-1c0.81,0.25,1.261,1.121,1,1.919L213.239,59C213.029,59.66,212.43,60.07,211.779,60.07z"/>
</svg>
