<svg width="722" height="783" viewBox="0 0 722 783" fill="none" xmlns="http://www.w3.org/2000/svg">
<g clip-path="url(#clip0_13_536)">
<path d="M250.12 170.716C246.694 170.716 244.169 167.47 245.071 164.163C245.545 162.427 245.792 160.603 245.792 158.72C245.792 147.278 236.515 138 225.073 138H187.287C175.846 138 166.568 147.278 166.568 158.72C166.568 158.766 166.568 158.806 166.568 158.853C166.608 165.366 161.458 170.709 154.946 170.709H144.72C133.278 170.709 124 179.987 124 191.429C124 202.87 133.278 212.148 144.72 212.148H250.12C261.562 212.148 270.84 202.87 270.84 191.429C270.84 179.987 261.562 170.709 250.12 170.709V170.716Z" fill="white"/>
<path d="M250.12 170.716C246.694 170.716 244.169 167.47 245.071 164.163C245.545 162.427 245.792 160.603 245.792 158.72C245.792 147.278 236.515 138 225.073 138H187.287C175.846 138 166.568 147.278 166.568 158.72C166.568 158.766 166.568 158.806 166.568 158.853C166.608 165.366 161.458 170.709 154.946 170.709H144.72C133.278 170.709 124 179.987 124 191.429C124 202.87 133.278 212.148 144.72 212.148H250.12C261.562 212.148 270.84 202.87 270.84 191.429C270.84 179.987 261.562 170.709 250.12 170.709V170.716Z" stroke="black" stroke-width="6" stroke-miterlimit="10"/>
<path d="M759.274 241.127C756.227 241.127 753.976 238.24 754.78 235.293C755.201 233.746 755.423 232.123 755.423 230.446C755.423 220.262 747.169 212 736.977 212H703.34C693.156 212 684.894 220.254 684.894 230.446C684.894 230.484 684.894 230.522 684.894 230.568C684.933 236.365 680.346 241.127 674.55 241.127H665.446C655.262 241.127 647 249.381 647 259.573C647 269.757 655.254 278.019 665.446 278.019H759.274C769.458 278.019 777.72 269.764 777.72 259.573C777.72 249.389 769.466 241.127 759.274 241.127Z" fill="white"/>
<path d="M759.274 241.127C756.227 241.127 753.976 238.24 754.78 235.293C755.201 233.746 755.423 232.123 755.423 230.446C755.423 220.262 747.169 212 736.977 212H703.34C693.156 212 684.894 220.254 684.894 230.446C684.894 230.484 684.894 230.522 684.894 230.568C684.933 236.365 680.346 241.127 674.55 241.127H665.446C655.262 241.127 647 249.381 647 259.573C647 269.757 655.254 278.018 665.446 278.018H759.274C769.458 278.018 777.72 269.764 777.72 259.573C777.72 249.389 769.466 241.127 759.274 241.127V241.127Z" stroke="black" stroke-width="6" stroke-miterlimit="10"/>
<path d="M60.6036 334.316H39.7489C34.7112 334.316 30.7214 330.177 30.7514 325.139C30.7514 325.101 30.7514 325.071 30.7514 325.034C30.7514 316.179 23.5727 309 14.7174 309H-14.521C-23.3764 309 -30.555 316.179 -30.555 325.034C-30.555 325.071 -30.555 325.116 -30.555 325.154C-30.5101 331.239 -31.9847 337.22 -34.964 342.528C-36.259 344.841 -37 347.505 -37 350.342C-37 359.198 -29.8214 366.376 -20.966 366.376H60.5961C69.4515 366.376 76.6301 359.198 76.6301 350.342C76.6301 341.487 69.4515 334.309 60.5961 334.309L60.6036 334.316Z" fill="white"/>
<path d="M60.6036 334.316H39.7489C34.7112 334.316 30.7214 330.177 30.7514 325.139C30.7514 325.101 30.7514 325.071 30.7514 325.034C30.7514 316.179 23.5727 309 14.7174 309H-14.521C-23.3764 309 -30.555 316.179 -30.555 325.034C-30.555 325.071 -30.555 325.116 -30.555 325.154C-30.5101 331.239 -31.9847 337.22 -34.964 342.528C-36.259 344.841 -37 347.505 -37 350.342C-37 359.198 -29.8214 366.376 -20.966 366.376H60.5961C69.4515 366.376 76.6301 359.198 76.6301 350.342C76.6301 341.487 69.4515 334.309 60.5961 334.309L60.6036 334.316Z" stroke="black" stroke-width="6" stroke-miterlimit="10"/>
<path d="M645.16 482.126H626.109C621.508 482.126 617.863 478.345 617.89 473.743C617.89 473.708 617.89 473.681 617.89 473.647C617.89 465.558 611.333 459 603.243 459H576.534C568.445 459 561.887 465.558 561.887 473.647C561.887 473.681 561.887 473.722 561.887 473.756C561.928 479.316 560.581 484.779 557.86 489.627C556.677 491.74 556 494.174 556 496.766C556 504.855 562.558 511.413 570.647 511.413H645.153C653.242 511.413 659.8 504.855 659.8 496.766C659.8 488.677 653.242 482.119 645.153 482.119L645.16 482.126Z" fill="white"/>
<path d="M645.16 482.126H626.109C621.508 482.126 617.863 478.345 617.89 473.743C617.89 473.708 617.89 473.681 617.89 473.647C617.89 465.558 611.333 459 603.243 459H576.534C568.445 459 561.887 465.558 561.887 473.647C561.887 473.681 561.887 473.722 561.887 473.756C561.928 479.316 560.581 484.779 557.86 489.627C556.677 491.74 556 494.174 556 496.766C556 504.855 562.558 511.413 570.647 511.413H645.153C653.242 511.413 659.8 504.855 659.8 496.766C659.8 488.677 653.242 482.119 645.153 482.119L645.16 482.126Z" stroke="black" stroke-width="6" stroke-miterlimit="10"/>
<path d="M123.67 563.527H123.66C119.663 563.527 116.614 560.084 116.93 556.096C116.959 555.702 116.979 555.304 116.979 554.9C116.979 546.672 110.307 540 102.079 540H74.8999C66.6719 540 60 546.672 60 554.9C60 563.128 66.6719 569.8 74.8999 569.8C77.0834 569.8 78.659 571.91 78.0073 573.997C77.5697 575.397 77.3363 576.885 77.3363 578.427C77.3363 586.655 84.0082 593.327 92.2362 593.327H123.67C131.898 593.327 138.57 586.655 138.57 578.427C138.57 570.199 131.898 563.527 123.67 563.527Z" fill="white"/>
<path d="M123.67 563.527H123.66C119.663 563.527 116.614 560.084 116.93 556.096C116.959 555.702 116.979 555.304 116.979 554.9C116.979 546.672 110.307 540 102.079 540H74.8999C66.6719 540 60 546.672 60 554.9C60 563.128 66.6719 569.8 74.8999 569.8C77.0834 569.8 78.659 571.91 78.0073 573.997C77.5697 575.397 77.3363 576.885 77.3363 578.427C77.3363 586.655 84.0082 593.327 92.2362 593.327H123.67C131.898 593.327 138.57 586.655 138.57 578.427C138.57 570.199 131.898 563.527 123.67 563.527V563.527Z" stroke="black" stroke-width="6" stroke-miterlimit="10"/>
<path d="M599.146 735.33C569.288 631.761 473.798 556.006 360.615 556.006C296.819 556.006 238.643 580.077 194.676 619.622H194.67C148.278 661.364 117.696 720.337 113.02 786.458H608.21C606.964 768.846 603.882 751.743 599.146 735.33Z" fill="#429EBA"/>
<path d="M601.873 786.459H150.931C162.976 672.579 259.324 583.855 376.405 583.855C493.487 583.855 589.828 672.579 601.879 786.459H601.873Z" fill="#277DA0"/>
<path d="M599.146 735.323C599.146 735.323 592.427 734.218 585.955 730.694C582.981 729.073 580.067 726.943 577.876 724.176C570.916 715.38 569.087 698.525 564.022 696.823C558.964 695.122 545.271 698.525 537.942 702.846C530.613 707.16 565.784 753.485 563.955 757.879C562.12 762.274 563.955 757.879 551.146 747.991C538.344 738.097 507.166 739.926 507.166 739.926C507.166 739.926 471.259 745.057 465.397 754.456C460.151 762.87 468.117 770.708 471.681 786.458H314.404C315.925 772.604 318.337 756.942 311.155 746.886C296.497 726.373 337.898 734.064 338.682 730.218C339.459 726.373 358.049 717.577 385.992 718.676C413.927 719.774 415.937 726.742 420.332 726.065C424.733 725.402 435.72 706.222 420.332 686.439C404.944 666.65 403.115 694.13 377.47 688.998C351.819 683.874 313.352 693.386 313.352 693.386L277.646 682.199L311.155 678.012C311.155 678.012 327.273 661.525 329.216 660.44C331.159 659.355 360.615 652.093 360.615 652.093C360.615 652.093 345.596 628.183 313.352 637.341C281.109 646.499 312.984 647.966 299.793 658.229C286.609 668.486 263.892 639.907 244.92 637.341C225.948 634.775 230.182 645.038 224.273 646.559C223.161 646.847 221.413 646.07 219.316 644.616C210.272 638.366 194.67 619.628 194.67 619.628H194.676C238.643 580.076 296.819 556.006 360.615 556.006C473.798 556.006 569.288 631.761 599.146 735.323Z" fill="#60C6A4"/>
<path d="M608.21 786.458C608.176 786.016 608.15 785.574 608.109 785.125C608.076 784.65 608.036 784.174 607.996 783.698C607.982 783.491 607.962 783.283 607.942 783.082C607.902 782.56 607.855 782.037 607.808 781.514C607.634 779.578 607.433 777.642 607.212 775.726C607.152 775.204 607.091 774.688 607.031 774.172C606.984 773.797 606.937 773.415 606.89 773.04C606.843 772.658 606.796 772.276 606.743 771.894C606.622 770.977 606.502 770.052 606.368 769.134C606.314 768.746 606.261 768.357 606.2 767.969C606.127 767.453 606.053 766.944 605.972 766.428C605.832 765.503 605.684 764.572 605.53 763.648C605.443 763.112 605.349 762.576 605.262 762.04C605.175 761.504 605.081 760.975 604.981 760.439C604.881 759.903 604.793 759.374 604.693 758.844C604.592 758.309 604.492 757.773 604.391 757.237C604.09 755.649 603.762 754.061 603.433 752.487C603.212 751.428 602.978 750.383 602.743 749.332C602.623 748.809 602.509 748.287 602.382 747.757C602.261 747.235 602.141 746.712 602.013 746.19C601.886 745.667 601.765 745.145 601.631 744.622C601.377 743.584 601.116 742.539 600.841 741.507C600.707 740.984 600.573 740.469 600.432 739.953C600.298 739.437 600.158 738.921 600.017 738.405C599.876 737.889 599.736 737.374 599.588 736.858C599.447 736.342 599.3 735.833 599.146 735.317C598.918 734.506 598.677 733.696 598.436 732.892C597.954 731.277 597.458 729.676 596.942 728.082C596.687 727.278 596.426 726.481 596.158 725.69C595.897 724.893 595.629 724.102 595.354 723.312C595.086 722.521 594.805 721.731 594.524 720.94C593.968 719.366 593.385 717.799 592.795 716.238C592.775 716.171 592.748 716.097 592.721 716.03C592.454 715.313 592.179 714.603 591.897 713.9C590.986 711.568 590.042 709.257 589.064 706.966C588.414 705.432 587.751 703.911 587.061 702.397C587.014 702.29 586.967 702.176 586.913 702.069C586.625 701.426 586.33 700.783 586.029 700.14C586.029 700.133 586.029 700.126 586.022 700.119C585.721 699.463 585.413 698.8 585.098 698.143C584.696 697.279 584.281 696.421 583.865 695.564C583.51 694.84 583.155 694.124 582.793 693.4C582.07 691.953 581.333 690.513 580.583 689.086C580.556 689.026 580.522 688.965 580.489 688.905C580.194 688.342 579.893 687.78 579.591 687.217C579.517 687.076 579.444 686.935 579.363 686.795C578.975 686.071 578.58 685.341 578.178 684.618C577.756 683.854 577.333 683.083 576.898 682.326C576.583 681.77 576.268 681.214 575.947 680.658C575.853 680.504 575.766 680.35 575.679 680.196C574.875 678.803 574.058 677.423 573.227 676.049C572.858 675.44 572.49 674.83 572.115 674.227C572.054 674.127 571.994 674.033 571.934 673.939C571.498 673.236 571.063 672.539 570.628 671.842C570.333 671.367 570.031 670.898 569.723 670.429C569.556 670.167 569.388 669.906 569.221 669.645C568.805 668.995 568.377 668.345 567.948 667.695C567.499 667.012 567.037 666.322 566.575 665.639C566.119 664.955 565.657 664.279 565.188 663.602C564.726 662.926 564.257 662.249 563.781 661.579C563.252 660.822 562.709 660.065 562.167 659.308C561.758 658.739 561.343 658.169 560.927 657.606C560.907 657.58 560.894 657.56 560.874 657.533C560.425 656.923 559.976 656.307 559.52 655.704C559.494 655.67 559.467 655.63 559.433 655.59C558.944 654.94 558.448 654.284 557.953 653.641C557.578 653.145 557.189 652.642 556.807 652.147C556.653 651.946 556.499 651.745 556.338 651.544C555.93 651.014 555.514 650.492 555.099 649.969C554.71 649.48 554.322 648.991 553.92 648.502C553.645 648.161 553.37 647.819 553.089 647.477C551.609 645.662 550.108 643.866 548.581 642.098C548.165 641.616 547.743 641.133 547.321 640.651C547.18 640.49 547.04 640.329 546.899 640.168C546.403 639.599 545.901 639.043 545.398 638.474C545.385 638.453 545.365 638.44 545.345 638.413C544.816 637.824 544.28 637.234 543.744 636.651C543.275 636.136 542.806 635.626 542.33 635.117C542.089 634.856 541.841 634.595 541.6 634.334C540.776 633.456 539.945 632.585 539.108 631.721C538.867 631.473 538.626 631.225 538.384 630.977C538.331 630.924 538.277 630.863 538.217 630.81C537.802 630.381 537.38 629.959 536.958 629.53C536.381 628.947 535.805 628.371 535.222 627.795C534.794 627.373 534.365 626.951 533.929 626.529C533.601 626.201 533.266 625.879 532.931 625.564C531.283 623.977 529.622 622.409 527.927 620.868C527.418 620.399 526.909 619.937 526.393 619.475C526.346 619.441 526.306 619.401 526.266 619.368C525.73 618.885 525.187 618.403 524.644 617.927C523.284 616.721 521.904 615.536 520.518 614.363C519.955 613.888 519.386 613.412 518.816 612.943C518.327 612.534 517.831 612.132 517.336 611.724C516.505 611.047 515.668 610.371 514.823 609.707C514.308 609.299 513.798 608.897 513.283 608.488C513.082 608.327 512.874 608.167 512.673 608.012C512.15 607.61 511.635 607.209 511.112 606.813C510.462 606.318 509.806 605.822 509.149 605.333C509.136 605.319 509.129 605.313 509.116 605.306C508.54 604.871 507.957 604.442 507.381 604.02C507.267 603.933 507.153 603.846 507.039 603.765C506.423 603.316 505.813 602.867 505.19 602.425C504.895 602.211 504.594 601.997 504.292 601.782C503.247 601.039 502.202 600.302 501.144 599.578C500.467 599.109 499.784 598.647 499.1 598.191C498.444 597.749 497.787 597.307 497.131 596.878C496.22 596.275 495.309 595.686 494.391 595.096C493.895 594.775 493.399 594.46 492.897 594.145C492.2 593.703 491.504 593.268 490.8 592.839C490.733 592.792 490.66 592.752 490.586 592.705C489.963 592.323 489.34 591.934 488.703 591.559C488.69 591.553 488.683 591.546 488.67 591.539C488.027 591.151 487.384 590.762 486.74 590.38C486.68 590.347 486.62 590.313 486.566 590.28C485.856 589.864 485.139 589.442 484.429 589.034C483.719 588.625 483.009 588.216 482.292 587.814C481.482 587.359 480.664 586.903 479.84 586.454C479.204 586.106 478.574 585.764 477.938 585.423C477.094 584.967 476.243 584.512 475.385 584.07C474.789 583.761 474.2 583.453 473.603 583.145C472.712 582.69 471.815 582.234 470.917 581.792C470.321 581.497 469.731 581.202 469.135 580.914C468.666 580.686 468.19 580.459 467.715 580.231C467.192 579.976 466.67 579.728 466.141 579.481C465.779 579.306 465.417 579.139 465.049 578.971C464.74 578.824 464.432 578.683 464.124 578.543C463.441 578.228 462.751 577.913 462.061 577.605C461.391 577.31 460.728 577.009 460.058 576.721C459.22 576.352 458.383 575.99 457.539 575.635C456.855 575.341 456.159 575.052 455.469 574.764C454.698 574.443 453.928 574.128 453.158 573.82C453.111 573.8 453.064 573.786 453.024 573.766C452.293 573.471 451.563 573.183 450.833 572.902C450.31 572.694 449.795 572.493 449.265 572.299C449.105 572.239 448.944 572.172 448.783 572.118C448.361 571.951 447.925 571.79 447.497 571.636C446.981 571.435 446.458 571.247 445.942 571.06C445.293 570.819 444.636 570.584 443.98 570.35C442.62 569.861 441.246 569.392 439.873 568.929C439.505 568.802 439.136 568.675 438.761 568.554L438.5 568.467C437.944 568.286 437.394 568.105 436.838 567.925C436.704 567.878 436.564 567.837 436.43 567.791C435.76 567.576 435.083 567.362 434.413 567.154C434.353 567.134 434.299 567.121 434.246 567.101C433.515 566.873 432.779 566.652 432.042 566.431C431.365 566.223 430.688 566.022 430.012 565.828C429.67 565.727 429.329 565.627 428.98 565.533C428.344 565.352 427.714 565.171 427.078 564.997C427.044 564.99 427.011 564.977 426.977 564.97C426.307 564.783 425.637 564.602 424.967 564.428C424.123 564.2 423.279 563.979 422.435 563.758C422.107 563.671 421.779 563.59 421.45 563.51C420.841 563.356 420.231 563.208 419.621 563.054C418.905 562.88 418.188 562.706 417.464 562.538C415.676 562.123 413.88 561.714 412.078 561.339C411.301 561.178 410.524 561.018 409.74 560.857C409.707 560.85 409.666 560.844 409.626 560.837C408.95 560.703 408.273 560.569 407.59 560.435C406.571 560.241 405.546 560.053 404.521 559.865C403.724 559.725 402.927 559.584 402.123 559.45C401.279 559.309 400.428 559.169 399.584 559.035C398.867 558.921 398.151 558.814 397.434 558.706C397.246 558.68 397.052 558.646 396.864 558.619C396.168 558.519 395.464 558.418 394.767 558.325C392.356 557.99 389.931 557.695 387.499 557.434C387.05 557.38 386.601 557.333 386.152 557.293C385.369 557.213 384.585 557.132 383.801 557.065C383.205 557.012 382.608 556.958 382.006 556.904C381.764 556.884 381.523 556.857 381.275 556.844C380.753 556.797 380.224 556.757 379.701 556.717C379.306 556.683 378.924 556.657 378.529 556.63C377.819 556.576 377.108 556.529 376.398 556.489C375.527 556.435 374.657 556.382 373.786 556.342C373.122 556.308 372.459 556.275 371.789 556.248C371.762 556.248 371.736 556.248 371.709 556.248C371.314 556.228 370.925 556.214 370.53 556.201C369.726 556.167 368.915 556.141 368.105 556.114C367.375 556.087 366.644 556.067 365.907 556.054H365.874C365.184 556.04 364.494 556.027 363.804 556.02C363.563 556.02 363.322 556.013 363.087 556.013C362.256 556 361.426 556 360.595 556C359.101 556 357.607 556.013 356.12 556.04C355.711 556.047 355.309 556.054 354.901 556.067C354.13 556.08 353.36 556.1 352.596 556.127C352.1 556.141 351.605 556.154 351.116 556.181C350.546 556.201 349.983 556.228 349.414 556.248C348.992 556.268 348.563 556.281 348.141 556.308C347.84 556.322 347.532 556.335 347.23 556.355C346.741 556.382 346.245 556.409 345.756 556.435H345.743C345.254 556.462 344.765 556.496 344.276 556.529C342.112 556.67 339.955 556.837 337.804 557.032C337.463 557.058 337.121 557.092 336.779 557.125C336.257 557.172 335.734 557.226 335.212 557.28C334.689 557.333 334.173 557.387 333.644 557.447C333.055 557.507 332.465 557.574 331.876 557.648C331.427 557.702 330.971 557.748 330.529 557.809C329.899 557.882 329.27 557.963 328.64 558.043C328.231 558.097 327.829 558.15 327.421 558.204C326.389 558.338 325.357 558.485 324.326 558.639C323.81 558.713 323.301 558.787 322.785 558.867C322.416 558.921 322.041 558.981 321.666 559.041C316.889 559.792 312.153 560.683 307.47 561.708C306.988 561.808 306.512 561.915 306.03 562.029C305.528 562.136 305.025 562.25 304.529 562.371C302.52 562.833 300.517 563.322 298.52 563.838C297.596 564.079 296.678 564.32 295.76 564.568C294.219 564.984 292.692 565.412 291.165 565.861C290.709 565.995 290.247 566.129 289.791 566.263C288.78 566.565 287.768 566.873 286.757 567.188C286.274 567.335 285.799 567.482 285.323 567.636C284.847 567.784 284.372 567.938 283.896 568.092C280.506 569.191 277.15 570.363 273.827 571.602C273.352 571.777 272.876 571.957 272.407 572.138C271.663 572.42 270.926 572.701 270.19 572.989C269.372 573.311 268.562 573.632 267.751 573.954C267.63 574.007 267.51 574.054 267.389 574.101C266.579 574.429 265.768 574.758 264.964 575.099C264.167 575.428 263.376 575.769 262.586 576.104C262.492 576.144 262.405 576.178 262.318 576.225C260.744 576.901 259.183 577.598 257.635 578.308C257.414 578.409 257.186 578.509 256.965 578.61C256.309 578.911 255.652 579.219 255.002 579.528C254.781 579.628 254.56 579.735 254.346 579.836C253.622 580.177 252.899 580.526 252.175 580.874C251.539 581.182 250.909 581.49 250.28 581.805C249.188 582.348 248.102 582.904 247.017 583.46C246.32 583.815 245.624 584.177 244.927 584.545C244.793 584.619 244.652 584.693 244.518 584.766C243.755 585.168 242.984 585.577 242.227 585.999C241.618 586.327 241.008 586.662 240.405 586.997L239.655 587.412C239.48 587.506 239.306 587.607 239.132 587.707C238.643 587.982 238.154 588.257 237.665 588.538C237.457 588.658 237.25 588.779 237.049 588.893C236.345 589.302 235.642 589.704 234.945 590.119C234.208 590.554 233.478 590.99 232.741 591.432C230.316 592.886 227.924 594.386 225.56 595.92C225.318 596.074 225.084 596.229 224.849 596.383C224.414 596.671 223.979 596.959 223.543 597.247C223.329 597.388 223.121 597.528 222.907 597.669C222.25 598.111 221.6 598.546 220.944 598.989C219.591 599.913 218.244 600.851 216.911 601.796C216.529 602.064 216.154 602.332 215.772 602.606C214.533 603.49 213.3 604.395 212.081 605.313C211.799 605.52 211.518 605.728 211.243 605.942C209.515 607.242 207.813 608.568 206.125 609.908C205.455 610.444 204.785 610.98 204.116 611.523C202.468 612.856 200.846 614.216 199.239 615.596C198.944 615.85 198.649 616.098 198.354 616.353C197.912 616.735 197.47 617.117 197.035 617.505C196.773 617.733 196.505 617.967 196.244 618.195C195.708 618.671 195.179 619.14 194.65 619.622C193.966 620.238 193.276 620.861 192.6 621.484C192.198 621.846 191.809 622.215 191.414 622.583C190.717 623.226 190.027 623.883 189.337 624.533C187.897 625.906 186.477 627.286 185.076 628.693C184.393 629.376 183.717 630.059 183.047 630.749C182.022 631.795 181.01 632.846 180.012 633.918C179.677 634.273 179.342 634.628 179.014 634.983C178.618 635.399 178.23 635.821 177.848 636.243C176.917 637.254 175.992 638.279 175.081 639.304C174.753 639.666 174.431 640.035 174.11 640.403C173.145 641.502 172.187 642.607 171.243 643.726C170.921 644.094 170.613 644.469 170.298 644.844C169.983 645.22 169.668 645.595 169.36 645.97C169.079 646.305 168.804 646.64 168.529 646.982C167.565 648.147 166.62 649.333 165.682 650.519C165.434 650.827 165.193 651.135 164.952 651.45C164.296 652.294 163.639 653.138 162.989 653.996C162.708 654.364 162.427 654.733 162.152 655.101C161.067 656.548 159.988 658.008 158.93 659.482C158.675 659.831 158.427 660.179 158.179 660.527C157.985 660.795 157.797 661.063 157.61 661.331C157.389 661.646 157.161 661.961 156.94 662.282C156.659 662.684 156.377 663.086 156.103 663.488C155.821 663.89 155.546 664.292 155.272 664.694C154.937 665.183 154.602 665.679 154.274 666.168C154.059 666.49 153.845 666.811 153.637 667.126C152.083 669.464 150.569 671.829 149.095 674.22C148.847 674.616 148.606 675.018 148.365 675.413C148.264 675.58 148.157 675.748 148.063 675.915C147.829 676.297 147.601 676.679 147.373 677.068C146.918 677.831 146.462 678.595 146.02 679.359C145.725 679.861 145.431 680.37 145.143 680.873C144.895 681.295 144.654 681.723 144.412 682.152C142.235 686.004 140.158 689.917 138.182 693.889C137.78 694.693 137.385 695.504 136.996 696.314C135.677 699.048 134.397 701.808 133.178 704.601C133.004 705.003 132.83 705.398 132.655 705.794C132.24 706.752 131.825 707.723 131.423 708.694C131.235 709.15 131.041 709.612 130.853 710.068C130.666 710.523 130.478 710.985 130.291 711.448C130.103 711.903 129.922 712.366 129.735 712.828C129.547 713.29 129.373 713.752 129.192 714.215C129.011 714.677 128.83 715.139 128.656 715.601C128.301 716.526 127.946 717.457 127.611 718.388C127.484 718.723 127.363 719.058 127.242 719.393C126.613 721.128 126.003 722.877 125.407 724.632C125.246 725.101 125.085 725.57 124.931 726.045C124.369 727.733 123.826 729.428 123.303 731.137C123.156 731.612 123.009 732.088 122.868 732.57C122.72 733.046 122.58 733.522 122.446 734.004C122.151 735.002 121.863 736 121.582 736.998C121.468 737.394 121.361 737.782 121.253 738.177C121.012 739.042 120.778 739.906 120.557 740.777C120.476 741.078 120.396 741.38 120.322 741.681C120.228 742.03 120.141 742.378 120.054 742.726C119.284 745.754 118.56 748.802 117.91 751.877C117.823 752.266 117.743 752.654 117.663 753.043C117.555 753.539 117.455 754.034 117.354 754.53C117.254 755.026 117.153 755.522 117.06 756.017C116.959 756.513 116.865 757.016 116.772 757.511C116.678 758.007 116.584 758.509 116.49 759.005C116.316 759.936 116.149 760.874 115.988 761.812L115.954 762.013C115.787 762.964 115.633 763.922 115.479 764.88C114.735 769.556 114.119 774.279 113.643 779.042C113.596 779.498 113.549 779.954 113.509 780.416C113.409 781.461 113.315 782.506 113.228 783.558C113.181 784.08 113.141 784.603 113.1 785.132C113.067 785.574 113.033 786.016 113 786.465" stroke="black" stroke-width="6" stroke-miterlimit="10"/>
<path d="M240.445 786.459H130.076C137.485 768.116 146.02 749.291 151.045 745.975C152.954 744.709 155.908 743.443 159.593 742.318C175.684 737.394 205.683 735.17 223.416 747.992C245.208 763.742 243.011 775.465 240.445 786.459Z" fill="#60C6A4"/>
<path d="M240.445 786.459H151.152C152.498 771.258 155.359 756.493 159.593 742.318C175.684 737.394 205.683 735.17 223.416 747.992C245.208 763.742 243.011 775.465 240.445 786.459Z" fill="#43A98A"/>
<path d="M585.955 730.694C582.981 729.073 580.067 726.943 577.876 724.176C570.916 715.38 569.087 698.525 564.022 696.823C558.964 695.122 545.271 698.525 537.942 702.846C530.613 707.16 565.784 753.485 563.955 757.88C562.12 762.274 563.955 757.88 551.146 747.992C538.344 738.097 507.166 739.926 507.166 739.926C507.166 739.926 471.259 745.057 465.397 754.456C460.151 762.87 468.117 770.708 471.681 786.458H314.404C315.925 772.604 318.336 756.942 311.155 746.886C296.497 726.373 337.898 734.064 338.682 730.219C339.459 726.373 358.049 717.577 385.991 718.676C413.927 719.775 415.937 726.742 420.331 726.065C424.733 725.402 435.719 706.222 420.331 686.44C404.943 666.65 403.115 694.13 377.47 688.999C351.819 683.874 313.352 693.387 313.352 693.387L277.646 682.199L311.155 678.012C311.155 678.012 327.273 661.525 329.216 660.44C331.159 659.355 360.615 652.093 360.615 652.093C360.615 652.093 345.595 628.183 313.352 637.341C281.109 646.499 312.984 647.966 299.793 658.229C286.609 668.486 263.892 639.907 244.92 637.341C225.948 634.775 230.182 645.039 224.273 646.559C223.161 646.847 221.413 646.07 219.316 644.617C259.638 605.915 314.384 582.133 374.683 582.133C472.009 582.133 554.858 644.081 585.955 730.694Z" fill="#43A98A"/>
</g>
<defs>
<clipPath id="clip0_13_536">
<rect width="722" height="783" fill="white"/>
</clipPath>
</defs>
</svg>
