<svg width="1918" height="780" viewBox="0 0 1918 780" fill="none" xmlns="http://www.w3.org/2000/svg">
<g clip-path="url(#clip0_4_158)">
<path d="M437.12 396.97C431.99 396.97 428.21 392.11 429.56 387.16C430.27 384.56 430.64 381.83 430.64 379.01C430.64 361.88 416.75 347.99 399.62 347.99H343.05C325.92 347.99 312.03 361.88 312.03 379.01C312.03 379.08 312.03 379.14 312.03 379.21C312.09 388.96 304.38 396.96 294.63 396.96H279.32C262.19 396.96 248.3 410.85 248.3 427.98C248.3 445.11 262.19 459 279.32 459H437.12C454.25 459 468.14 445.11 468.14 427.98C468.14 410.85 454.25 396.96 437.12 396.96V396.97Z" fill="white"/>
<path d="M437.12 396.97C431.99 396.97 428.21 392.11 429.56 387.16C430.27 384.56 430.64 381.83 430.64 379.01C430.64 361.88 416.75 347.99 399.62 347.99H343.05C325.92 347.99 312.03 361.88 312.03 379.01C312.03 379.08 312.03 379.14 312.03 379.21C312.09 388.96 304.38 396.96 294.63 396.96H279.32C262.19 396.96 248.3 410.85 248.3 427.98C248.3 445.11 262.19 459 279.32 459H437.12C454.25 459 468.14 445.11 468.14 427.98C468.14 410.85 454.25 396.96 437.12 396.96V396.97Z" stroke="black" stroke-width="8" stroke-miterlimit="10"/>
<path d="M1748.81 604.03C1744.83 604.03 1741.89 600.26 1742.94 596.41C1743.49 594.39 1743.78 592.27 1743.78 590.08C1743.78 576.78 1733 565.99 1719.69 565.99H1675.76C1662.46 565.99 1651.67 576.77 1651.67 590.08C1651.67 590.13 1651.67 590.18 1651.67 590.24C1651.72 597.81 1645.73 604.03 1638.16 604.03H1626.27C1612.97 604.03 1602.18 614.81 1602.18 628.12C1602.18 641.42 1612.96 652.21 1626.27 652.21H1748.81C1762.11 652.21 1772.9 641.43 1772.9 628.12C1772.9 614.82 1762.12 604.03 1748.81 604.03Z" fill="white"/>
<path d="M1748.81 604.03C1744.83 604.03 1741.89 600.26 1742.94 596.41C1743.49 594.39 1743.78 592.27 1743.78 590.08C1743.78 576.78 1733 565.99 1719.69 565.99H1675.76C1662.46 565.99 1651.67 576.77 1651.67 590.08C1651.67 590.13 1651.67 590.18 1651.67 590.24C1651.72 597.81 1645.73 604.03 1638.16 604.03H1626.27C1612.97 604.03 1602.18 614.81 1602.18 628.12C1602.18 641.42 1612.96 652.21 1626.27 652.21H1748.81C1762.11 652.21 1772.9 641.43 1772.9 628.12C1772.9 614.82 1762.12 604.03 1748.81 604.03V604.03Z" stroke="black" stroke-width="8" stroke-miterlimit="10"/>
<path d="M880.22 320.81H852.36C845.63 320.81 840.3 315.28 840.34 308.55C840.34 308.5 840.34 308.46 840.34 308.41C840.34 296.58 830.75 286.99 818.92 286.99H779.86C768.03 286.99 758.44 296.58 758.44 308.41C758.44 308.46 758.44 308.52 758.44 308.57C758.5 316.7 756.53 324.69 752.55 331.78C750.82 334.87 749.83 338.43 749.83 342.22C749.83 354.05 759.42 363.64 771.25 363.64H880.21C892.04 363.64 901.63 354.05 901.63 342.22C901.63 330.39 892.04 320.8 880.21 320.8L880.22 320.81Z" fill="white"/>
<path d="M880.22 320.81H852.36C845.63 320.81 840.3 315.28 840.34 308.55C840.34 308.5 840.34 308.46 840.34 308.41C840.34 296.58 830.75 286.99 818.92 286.99H779.86C768.03 286.99 758.44 296.58 758.44 308.41C758.44 308.46 758.44 308.52 758.44 308.57C758.5 316.7 756.53 324.69 752.55 331.78C750.82 334.87 749.83 338.43 749.83 342.22C749.83 354.05 759.42 363.64 771.25 363.64H880.21C892.04 363.64 901.63 354.05 901.63 342.22C901.63 330.39 892.04 320.8 880.21 320.8L880.22 320.81Z" stroke="black" stroke-width="8" stroke-miterlimit="10"/>
<path d="M1655.22 377.81H1627.36C1620.63 377.81 1615.3 372.28 1615.34 365.55C1615.34 365.5 1615.34 365.46 1615.34 365.41C1615.34 353.58 1605.75 343.99 1593.92 343.99H1554.86C1543.03 343.99 1533.44 353.58 1533.44 365.41C1533.44 365.46 1533.44 365.52 1533.44 365.57C1533.5 373.7 1531.53 381.69 1527.55 388.78C1525.82 391.87 1524.83 395.43 1524.83 399.22C1524.83 411.05 1534.42 420.64 1546.25 420.64H1655.21C1667.04 420.64 1676.63 411.05 1676.63 399.22C1676.63 387.39 1667.04 377.8 1655.21 377.8L1655.22 377.81Z" fill="white"/>
<path d="M1655.22 377.81H1627.36C1620.63 377.81 1615.3 372.28 1615.34 365.55C1615.34 365.5 1615.34 365.46 1615.34 365.41C1615.34 353.58 1605.75 343.99 1593.92 343.99H1554.86C1543.03 343.99 1533.44 353.58 1533.44 365.41C1533.44 365.46 1533.44 365.52 1533.44 365.57C1533.5 373.7 1531.53 381.69 1527.55 388.78C1525.82 391.87 1524.83 395.43 1524.83 399.22C1524.83 411.05 1534.42 420.64 1546.25 420.64H1655.21C1667.04 420.64 1676.63 411.05 1676.63 399.22C1676.63 387.39 1667.04 377.8 1655.21 377.8L1655.22 377.81Z" stroke="black" stroke-width="8" stroke-miterlimit="10"/>
<path d="M300.93 604.38H300.91C292.69 604.38 286.42 597.3 287.07 589.1C287.13 588.29 287.17 587.47 287.17 586.64C287.17 569.72 273.45 556 256.53 556H200.64C183.72 556 170 569.72 170 586.64C170 603.56 183.72 617.28 200.64 617.28C205.13 617.28 208.37 621.62 207.03 625.91C206.13 628.79 205.65 631.85 205.65 635.02C205.65 651.94 219.37 665.66 236.29 665.66H300.93C317.85 665.66 331.57 651.94 331.57 635.02C331.57 618.1 317.85 604.38 300.93 604.38Z" fill="white"/>
<path d="M300.93 604.38H300.91C292.69 604.38 286.42 597.3 287.07 589.1C287.13 588.29 287.17 587.47 287.17 586.64C287.17 569.72 273.45 556 256.53 556H200.64C183.72 556 170 569.72 170 586.64C170 603.56 183.72 617.28 200.64 617.28C205.13 617.28 208.37 621.62 207.03 625.91C206.13 628.79 205.65 631.85 205.65 635.02C205.65 651.94 219.37 665.66 236.29 665.66H300.93C317.85 665.66 331.57 651.94 331.57 635.02C331.57 618.1 317.85 604.38 300.93 604.38V604.38Z" stroke="black" stroke-width="8" stroke-miterlimit="10"/>
<path d="M1329.69 706.68C1285.12 552.08 1142.58 439 973.63 439C878.4 439 791.56 474.93 725.93 533.96H725.92C656.67 596.27 611.02 684.3 604.04 783H1343.22C1341.36 756.71 1336.76 731.18 1329.69 706.68Z" fill="#429EBA"/>
<path d="M1333.76 783H660.63C678.61 613.01 822.43 480.57 997.2 480.57C1171.97 480.57 1315.78 613.01 1333.77 783H1333.76Z" fill="#277DA0"/>
<path d="M1329.69 706.67C1329.69 706.67 1319.66 705.02 1310 699.76C1305.56 697.34 1301.21 694.16 1297.94 690.03C1287.55 676.9 1284.82 651.74 1277.26 649.2C1269.71 646.66 1249.27 651.74 1238.33 658.19C1227.39 664.63 1279.89 733.78 1277.16 740.34C1274.42 746.9 1277.16 740.34 1258.04 725.58C1238.93 710.81 1192.39 713.54 1192.39 713.54C1192.39 713.54 1138.79 721.2 1130.04 735.23C1122.21 747.79 1134.1 759.49 1139.42 783H904.65C906.92 762.32 910.52 738.94 899.8 723.93C877.92 693.31 939.72 704.79 940.89 699.05C942.05 693.31 969.8 680.18 1011.51 681.82C1053.21 683.46 1056.21 693.86 1062.77 692.85C1069.34 691.86 1085.74 663.23 1062.77 633.7C1039.8 604.16 1037.07 645.18 998.79 637.52C960.5 629.87 903.08 644.07 903.08 644.07L849.78 627.37L899.8 621.12C899.8 621.12 923.86 596.51 926.76 594.89C929.66 593.27 973.63 582.43 973.63 582.43C973.63 582.43 951.21 546.74 903.08 560.41C854.95 574.08 902.53 576.27 882.84 591.59C863.16 606.9 829.25 564.24 800.93 560.41C772.61 556.58 778.93 571.9 770.11 574.17C768.45 574.6 765.84 573.44 762.71 571.27C749.21 561.94 725.92 533.97 725.92 533.97H725.93C791.56 474.93 878.4 439 973.63 439C1142.58 439 1285.12 552.08 1329.69 706.67Z" fill="#60C6A4"/>
<path d="M1343.22 783C1343.17 782.34 1343.13 781.68 1343.07 781.01C1343.02 780.3 1342.96 779.59 1342.9 778.88C1342.88 778.57 1342.85 778.26 1342.82 777.96C1342.76 777.18 1342.69 776.4 1342.62 775.62C1342.36 772.73 1342.06 769.84 1341.73 766.98C1341.64 766.2 1341.55 765.43 1341.46 764.66C1341.39 764.1 1341.32 763.53 1341.25 762.97C1341.18 762.4 1341.11 761.83 1341.03 761.26C1340.85 759.89 1340.67 758.51 1340.47 757.14C1340.39 756.56 1340.31 755.98 1340.22 755.4C1340.11 754.63 1340 753.87 1339.88 753.1C1339.67 751.72 1339.45 750.33 1339.22 748.95C1339.09 748.15 1338.95 747.35 1338.82 746.55C1338.69 745.75 1338.55 744.96 1338.4 744.16C1338.25 743.36 1338.12 742.57 1337.97 741.78C1337.82 740.98 1337.67 740.18 1337.52 739.38C1337.07 737.01 1336.58 734.64 1336.09 732.29C1335.76 730.71 1335.41 729.15 1335.06 727.58C1334.88 726.8 1334.71 726.02 1334.52 725.23C1334.34 724.45 1334.16 723.67 1333.97 722.89C1333.78 722.11 1333.6 721.33 1333.4 720.55C1333.02 719 1332.63 717.44 1332.22 715.9C1332.02 715.12 1331.82 714.35 1331.61 713.58C1331.41 712.81 1331.2 712.04 1330.99 711.27C1330.78 710.5 1330.57 709.73 1330.35 708.96C1330.14 708.19 1329.92 707.43 1329.69 706.66C1329.35 705.45 1328.99 704.24 1328.63 703.04C1327.91 700.63 1327.17 698.24 1326.4 695.86C1326.02 694.66 1325.63 693.47 1325.23 692.29C1324.84 691.1 1324.44 689.92 1324.03 688.74C1323.63 687.56 1323.21 686.38 1322.79 685.2C1321.96 682.85 1321.09 680.51 1320.21 678.18C1320.18 678.08 1320.14 677.97 1320.1 677.87C1319.7 676.8 1319.29 675.74 1318.87 674.69C1317.51 671.21 1316.1 667.76 1314.64 664.34C1313.67 662.05 1312.68 659.78 1311.65 657.52C1311.58 657.36 1311.51 657.19 1311.43 657.03C1311 656.07 1310.56 655.11 1310.11 654.15C1310.11 654.14 1310.11 654.13 1310.1 654.12C1309.65 653.14 1309.19 652.15 1308.72 651.17C1308.12 649.88 1307.5 648.6 1306.88 647.32C1306.35 646.24 1305.82 645.17 1305.28 644.09C1304.2 641.93 1303.1 639.78 1301.98 637.65C1301.94 637.56 1301.89 637.47 1301.84 637.38C1301.4 636.54 1300.95 635.7 1300.5 634.86C1300.39 634.65 1300.28 634.44 1300.16 634.23C1299.58 633.15 1298.99 632.06 1298.39 630.98C1297.76 629.84 1297.13 628.69 1296.48 627.56C1296.01 626.73 1295.54 625.9 1295.06 625.07C1294.92 624.84 1294.79 624.61 1294.66 624.38C1293.46 622.3 1292.24 620.24 1291 618.19C1290.45 617.28 1289.9 616.37 1289.34 615.47C1289.25 615.32 1289.16 615.18 1289.07 615.04C1288.42 613.99 1287.77 612.95 1287.12 611.91C1286.68 611.2 1286.23 610.5 1285.77 609.8C1285.52 609.41 1285.27 609.02 1285.02 608.63C1284.4 607.66 1283.76 606.69 1283.12 605.72C1282.45 604.7 1281.76 603.67 1281.07 602.65C1280.39 601.63 1279.7 600.62 1279 599.61C1278.31 598.6 1277.61 597.59 1276.9 596.59C1276.11 595.46 1275.3 594.33 1274.49 593.2C1273.88 592.35 1273.26 591.5 1272.64 590.66C1272.61 590.62 1272.59 590.59 1272.56 590.55C1271.89 589.64 1271.22 588.72 1270.54 587.82C1270.5 587.77 1270.46 587.71 1270.41 587.65C1269.68 586.68 1268.94 585.7 1268.2 584.74C1267.64 584 1267.06 583.25 1266.49 582.51C1266.26 582.21 1266.03 581.91 1265.79 581.61C1265.18 580.82 1264.56 580.04 1263.94 579.26C1263.36 578.53 1262.78 577.8 1262.18 577.07C1261.77 576.56 1261.36 576.05 1260.94 575.54C1258.73 572.83 1256.49 570.15 1254.21 567.51C1253.59 566.79 1252.96 566.07 1252.33 565.35C1252.12 565.11 1251.91 564.87 1251.7 564.63C1250.96 563.78 1250.21 562.95 1249.46 562.1C1249.44 562.07 1249.41 562.05 1249.38 562.01C1248.59 561.13 1247.79 560.25 1246.99 559.38C1246.29 558.61 1245.59 557.85 1244.88 557.09C1244.52 556.7 1244.15 556.31 1243.79 555.92C1242.56 554.61 1241.32 553.31 1240.07 552.02C1239.71 551.65 1239.35 551.28 1238.99 550.91C1238.91 550.83 1238.83 550.74 1238.74 550.66C1238.12 550.02 1237.49 549.39 1236.86 548.75C1236 547.88 1235.14 547.02 1234.27 546.16C1233.63 545.53 1232.99 544.9 1232.34 544.27C1231.85 543.78 1231.35 543.3 1230.85 542.83C1228.39 540.46 1225.91 538.12 1223.38 535.82C1222.62 535.12 1221.86 534.43 1221.09 533.74C1221.02 533.69 1220.96 533.63 1220.9 533.58C1220.1 532.86 1219.29 532.14 1218.48 531.43C1216.45 529.63 1214.39 527.86 1212.32 526.11C1211.48 525.4 1210.63 524.69 1209.78 523.99C1209.05 523.38 1208.31 522.78 1207.57 522.17C1206.33 521.16 1205.08 520.15 1203.82 519.16C1203.05 518.55 1202.29 517.95 1201.52 517.34C1201.22 517.1 1200.91 516.86 1200.61 516.63C1199.83 516.03 1199.06 515.43 1198.28 514.84C1197.31 514.1 1196.33 513.36 1195.35 512.63C1195.33 512.61 1195.32 512.6 1195.3 512.59C1194.44 511.94 1193.57 511.3 1192.71 510.67C1192.54 510.54 1192.37 510.41 1192.2 510.29C1191.28 509.62 1190.37 508.95 1189.44 508.29C1189 507.97 1188.55 507.65 1188.1 507.33C1186.54 506.22 1184.98 505.12 1183.4 504.04C1182.39 503.34 1181.37 502.65 1180.35 501.97C1179.37 501.31 1178.39 500.65 1177.41 500.01C1176.05 499.11 1174.69 498.23 1173.32 497.35C1172.58 496.87 1171.84 496.4 1171.09 495.93C1170.05 495.27 1169.01 494.62 1167.96 493.98C1167.86 493.91 1167.75 493.85 1167.64 493.78C1166.71 493.21 1165.78 492.63 1164.83 492.07C1164.81 492.06 1164.8 492.05 1164.78 492.04C1163.82 491.46 1162.86 490.88 1161.9 490.31C1161.81 490.26 1161.72 490.21 1161.64 490.16C1160.58 489.54 1159.51 488.91 1158.45 488.3C1157.39 487.69 1156.33 487.08 1155.26 486.48C1154.05 485.8 1152.83 485.12 1151.6 484.45C1150.65 483.93 1149.71 483.42 1148.76 482.91C1147.5 482.23 1146.23 481.55 1144.95 480.89C1144.06 480.43 1143.18 479.97 1142.29 479.51C1140.96 478.83 1139.62 478.15 1138.28 477.49C1137.39 477.05 1136.51 476.61 1135.62 476.18C1134.92 475.84 1134.21 475.5 1133.5 475.16C1132.72 474.78 1131.94 474.41 1131.15 474.04C1130.61 473.78 1130.07 473.53 1129.52 473.28C1129.06 473.06 1128.6 472.85 1128.14 472.64C1127.12 472.17 1126.09 471.7 1125.06 471.24C1124.06 470.8 1123.07 470.35 1122.07 469.92C1120.82 469.37 1119.57 468.83 1118.31 468.3C1117.29 467.86 1116.25 467.43 1115.22 467C1114.07 466.52 1112.92 466.05 1111.77 465.59C1111.7 465.56 1111.63 465.54 1111.57 465.51C1110.48 465.07 1109.39 464.64 1108.3 464.22C1107.52 463.91 1106.75 463.61 1105.96 463.32C1105.72 463.23 1105.48 463.13 1105.24 463.05C1104.61 462.8 1103.96 462.56 1103.32 462.33C1102.55 462.03 1101.77 461.75 1101 461.47C1100.03 461.11 1099.05 460.76 1098.07 460.41C1096.04 459.68 1093.99 458.98 1091.94 458.29C1091.39 458.1 1090.84 457.91 1090.28 457.73L1089.89 457.6C1089.06 457.33 1088.24 457.06 1087.41 456.79C1087.21 456.72 1087 456.66 1086.8 456.59C1085.8 456.27 1084.79 455.95 1083.79 455.64C1083.7 455.61 1083.62 455.59 1083.54 455.56C1082.45 455.22 1081.35 454.89 1080.25 454.56C1079.24 454.25 1078.23 453.95 1077.22 453.66C1076.71 453.51 1076.2 453.36 1075.68 453.22C1074.73 452.95 1073.79 452.68 1072.84 452.42C1072.79 452.41 1072.74 452.39 1072.69 452.38C1071.69 452.1 1070.69 451.83 1069.69 451.57C1068.43 451.23 1067.17 450.9 1065.91 450.57C1065.42 450.44 1064.93 450.32 1064.44 450.2C1063.53 449.97 1062.62 449.75 1061.71 449.52C1060.64 449.26 1059.57 449 1058.49 448.75C1055.82 448.13 1053.14 447.52 1050.45 446.96C1049.29 446.72 1048.13 446.48 1046.96 446.24C1046.91 446.23 1046.85 446.22 1046.79 446.21C1045.78 446.01 1044.77 445.81 1043.75 445.61C1042.23 445.32 1040.7 445.04 1039.17 444.76C1037.98 444.55 1036.79 444.34 1035.59 444.14C1034.33 443.93 1033.06 443.72 1031.8 443.52C1030.73 443.35 1029.66 443.19 1028.59 443.03C1028.31 442.99 1028.02 442.94 1027.74 442.9C1026.7 442.75 1025.65 442.6 1024.61 442.46C1021.01 441.96 1017.39 441.52 1013.76 441.13C1013.09 441.05 1012.42 440.98 1011.75 440.92C1010.58 440.8 1009.41 440.68 1008.24 440.58C1007.35 440.5 1006.46 440.42 1005.56 440.34C1005.2 440.31 1004.84 440.27 1004.47 440.25C1003.69 440.18 1002.9 440.12 1002.12 440.06C1001.53 440.01 1000.96 439.97 1000.37 439.93C999.31 439.85 998.25 439.78 997.19 439.72C995.89 439.64 994.59 439.56 993.29 439.5C992.3 439.45 991.31 439.4 990.31 439.36C990.27 439.36 990.23 439.36 990.19 439.36C989.6 439.33 989.02 439.31 988.43 439.29C987.23 439.24 986.02 439.2 984.81 439.16C983.72 439.12 982.63 439.09 981.53 439.07H981.48C980.45 439.05 979.42 439.03 978.39 439.02C978.03 439.02 977.67 439.01 977.32 439.01C976.08 438.99 974.84 438.99 973.6 438.99C971.37 438.99 969.14 439.01 966.92 439.05C966.31 439.06 965.71 439.07 965.1 439.09C963.95 439.11 962.8 439.14 961.66 439.18C960.92 439.2 960.18 439.22 959.45 439.26C958.6 439.29 957.76 439.33 956.91 439.36C956.28 439.39 955.64 439.41 955.01 439.45C954.56 439.47 954.1 439.49 953.65 439.52C952.92 439.56 952.18 439.6 951.45 439.64H951.43C950.7 439.68 949.97 439.73 949.24 439.78C946.01 439.99 942.79 440.24 939.58 440.53C939.07 440.57 938.56 440.62 938.05 440.67C937.27 440.74 936.49 440.82 935.71 440.9C934.93 440.98 934.16 441.06 933.37 441.15C932.49 441.24 931.61 441.34 930.73 441.45C930.06 441.53 929.38 441.6 928.72 441.69C927.78 441.8 926.84 441.92 925.9 442.04C925.29 442.12 924.69 442.2 924.08 442.28C922.54 442.48 921 442.7 919.46 442.93C918.69 443.04 917.93 443.15 917.16 443.27C916.61 443.35 916.05 443.44 915.49 443.53C908.36 444.65 901.29 445.98 894.3 447.51C893.58 447.66 892.87 447.82 892.15 447.99C891.4 448.15 890.65 448.32 889.91 448.5C886.91 449.19 883.92 449.92 880.94 450.69C879.56 451.05 878.19 451.41 876.82 451.78C874.52 452.4 872.24 453.04 869.96 453.71C869.28 453.91 868.59 454.11 867.91 454.31C866.4 454.76 864.89 455.22 863.38 455.69C862.66 455.91 861.95 456.13 861.24 456.36C860.53 456.58 859.82 456.81 859.11 457.04C854.05 458.68 849.04 460.43 844.08 462.28C843.37 462.54 842.66 462.81 841.96 463.08C840.85 463.5 839.75 463.92 838.65 464.35C837.43 464.83 836.22 465.31 835.01 465.79C834.83 465.87 834.65 465.94 834.47 466.01C833.26 466.5 832.05 466.99 830.85 467.5C829.66 467.99 828.48 468.5 827.3 469C827.16 469.06 827.03 469.11 826.9 469.18C824.55 470.19 822.22 471.23 819.91 472.29C819.58 472.44 819.24 472.59 818.91 472.74C817.93 473.19 816.95 473.65 815.98 474.11C815.65 474.26 815.32 474.42 815 474.57C813.92 475.08 812.84 475.6 811.76 476.12C810.81 476.58 809.87 477.04 808.93 477.51C807.3 478.32 805.68 479.15 804.06 479.98C803.02 480.51 801.98 481.05 800.94 481.6C800.74 481.71 800.53 481.82 800.33 481.93C799.19 482.53 798.04 483.14 796.91 483.77C796 484.26 795.09 484.76 794.19 485.26L793.07 485.88C792.81 486.02 792.55 486.17 792.29 486.32C791.56 486.73 790.83 487.14 790.1 487.56C789.79 487.74 789.48 487.92 789.18 488.09C788.13 488.7 787.08 489.3 786.04 489.92C784.94 490.57 783.85 491.22 782.75 491.88C779.13 494.05 775.56 496.29 772.03 498.58C771.67 498.81 771.32 499.04 770.97 499.27C770.32 499.7 769.67 500.13 769.02 500.56C768.7 500.77 768.39 500.98 768.07 501.19C767.09 501.85 766.12 502.5 765.14 503.16C763.12 504.54 761.11 505.94 759.12 507.35C758.55 507.75 757.99 508.15 757.42 508.56C755.57 509.88 753.73 511.23 751.91 512.6C751.49 512.91 751.07 513.22 750.66 513.54C748.08 515.48 745.54 517.46 743.02 519.46C742.02 520.26 741.02 521.06 740.02 521.87C737.56 523.86 735.14 525.89 732.74 527.95C732.3 528.33 731.86 528.7 731.42 529.08C730.76 529.65 730.1 530.22 729.45 530.8C729.06 531.14 728.66 531.49 728.27 531.83C727.47 532.54 726.68 533.24 725.89 533.96C724.87 534.88 723.84 535.81 722.83 536.74C722.23 537.28 721.65 537.83 721.06 538.38C720.02 539.34 718.99 540.32 717.96 541.29C715.81 543.34 713.69 545.4 711.6 547.5C710.58 548.52 709.57 549.54 708.57 550.57C707.04 552.13 705.53 553.7 704.04 555.3C703.54 555.83 703.04 556.36 702.55 556.89C701.96 557.51 701.38 558.14 700.81 558.77C699.42 560.28 698.04 561.81 696.68 563.34C696.19 563.88 695.71 564.43 695.23 564.98C693.79 566.62 692.36 568.27 690.95 569.94C690.47 570.49 690.01 571.05 689.54 571.61C689.07 572.17 688.6 572.73 688.14 573.29C687.72 573.79 687.31 574.29 686.9 574.8C685.46 576.54 684.05 578.31 682.65 580.08C682.28 580.54 681.92 581 681.56 581.47C680.58 582.73 679.6 583.99 678.63 585.27C678.21 585.82 677.79 586.37 677.38 586.92C675.76 589.08 674.15 591.26 672.57 593.46C672.19 593.98 671.82 594.5 671.45 595.02C671.16 595.42 670.88 595.82 670.6 596.22C670.27 596.69 669.93 597.16 669.6 597.64C669.18 598.24 668.76 598.84 668.35 599.44C667.93 600.04 667.52 600.64 667.11 601.24C666.61 601.97 666.11 602.71 665.62 603.44C665.3 603.92 664.98 604.4 664.67 604.87C662.35 608.36 660.09 611.89 657.89 615.46C657.52 616.05 657.16 616.65 656.8 617.24C656.65 617.49 656.49 617.74 656.35 617.99C656 618.56 655.66 619.13 655.32 619.71C654.64 620.85 653.96 621.99 653.3 623.13C652.86 623.88 652.42 624.64 651.99 625.39C651.62 626.02 651.26 626.66 650.9 627.3C647.65 633.05 644.55 638.89 641.6 644.82C641 646.02 640.41 647.23 639.83 648.44C637.86 652.52 635.95 656.64 634.13 660.81C633.87 661.41 633.61 662 633.35 662.59C632.73 664.02 632.11 665.47 631.51 666.92C631.23 667.6 630.94 668.29 630.66 668.97C630.38 669.65 630.1 670.34 629.82 671.03C629.54 671.71 629.27 672.4 628.99 673.09C628.71 673.78 628.45 674.47 628.18 675.16C627.91 675.85 627.64 676.54 627.38 677.23C626.85 678.61 626.32 680 625.82 681.39C625.63 681.89 625.45 682.39 625.27 682.89C624.33 685.48 623.42 688.09 622.53 690.71C622.29 691.41 622.05 692.11 621.82 692.82C620.98 695.34 620.17 697.87 619.39 700.42C619.17 701.13 618.95 701.84 618.74 702.56C618.52 703.27 618.31 703.98 618.11 704.7C617.67 706.19 617.24 707.68 616.82 709.17C616.65 709.76 616.49 710.34 616.33 710.93C615.97 712.22 615.62 713.51 615.29 714.81C615.17 715.26 615.05 715.71 614.94 716.16C614.8 716.68 614.67 717.2 614.54 717.72C613.39 722.24 612.31 726.79 611.34 731.38C611.21 731.96 611.09 732.54 610.97 733.12C610.81 733.86 610.66 734.6 610.51 735.34C610.36 736.08 610.21 736.82 610.07 737.56C609.92 738.3 609.78 739.05 609.64 739.79C609.5 740.53 609.36 741.28 609.22 742.02C608.96 743.41 608.71 744.81 608.47 746.21L608.42 746.51C608.17 747.93 607.94 749.36 607.71 750.79C606.6 757.77 605.68 764.82 604.97 771.93C604.9 772.61 604.83 773.29 604.77 773.98C604.62 775.54 604.48 777.1 604.35 778.67C604.28 779.45 604.22 780.23 604.16 781.02C604.11 781.68 604.06 782.34 604.01 783.01" stroke="black" stroke-width="8" stroke-miterlimit="10"/>
<path d="M794.25 783H629.5C640.56 755.62 653.3 727.52 660.8 722.57C663.65 720.68 668.06 718.79 673.56 717.11C697.58 709.76 742.36 706.44 768.83 725.58C801.36 749.09 798.08 766.59 794.25 783Z" fill="#60C6A4"/>
<path d="M794.25 783H660.96C662.97 760.31 667.24 738.27 673.56 717.11C697.58 709.76 742.36 706.44 768.83 725.58C801.36 749.09 798.08 766.59 794.25 783Z" fill="#43A98A"/>
<path d="M1310 699.76C1305.56 697.34 1301.21 694.16 1297.94 690.03C1287.55 676.9 1284.82 651.74 1277.26 649.2C1269.71 646.66 1249.27 651.74 1238.33 658.19C1227.39 664.63 1279.89 733.78 1277.16 740.34C1274.42 746.9 1277.16 740.34 1258.04 725.58C1238.93 710.81 1192.39 713.54 1192.39 713.54C1192.39 713.54 1138.79 721.2 1130.04 735.23C1122.21 747.79 1134.1 759.49 1139.42 783H904.65C906.92 762.32 910.52 738.94 899.8 723.93C877.92 693.31 939.72 704.79 940.89 699.05C942.05 693.31 969.8 680.18 1011.51 681.82C1053.21 683.46 1056.21 693.86 1062.77 692.85C1069.34 691.86 1085.74 663.23 1062.77 633.7C1039.8 604.16 1037.07 645.18 998.79 637.52C960.5 629.87 903.08 644.07 903.08 644.07L849.78 627.37L899.8 621.12C899.8 621.12 923.86 596.51 926.76 594.89C929.66 593.27 973.63 582.43 973.63 582.43C973.63 582.43 951.21 546.74 903.08 560.41C854.95 574.08 902.53 576.27 882.84 591.59C863.16 606.9 829.25 564.24 800.93 560.41C772.61 556.58 778.93 571.9 770.11 574.17C768.45 574.6 765.84 573.44 762.71 571.27C822.9 513.5 904.62 478 994.63 478C1139.91 478 1263.58 570.47 1310 699.76Z" fill="#43A98A"/>
</g>
<defs>
<clipPath id="clip0_4_158">
<rect width="1918" height="783" fill="white"/>
</clipPath>
</defs>
</svg>
