<svg xmlns="http://www.w3.org/2000/svg" xmlns:xlink="http://www.w3.org/1999/xlink" width="630" zoomAndPan="magnify" viewBox="0 0 472.5 317.999988" height="424" preserveAspectRatio="xMidYMid meet" version="1.0"><defs><g/></defs><g fill="#fae601" fill-opacity="1"><g transform="translate(20.798954, 139.560526)"><g><path d="M 53.097656 -64.371094 C 48.25 -51.523438 42.914062 -39.035156 37.339844 -26.546875 C 31.761719 -40.367188 28.367188 -55.523438 24.003906 -69.34375 C 20.488281 -80.375 2.910156 -75.644531 6.425781 -64.492188 C 13.09375 -43.519531 17.820312 -20.003906 29.699219 -1.332031 C 33.09375 4.121094 42.1875 5.089844 45.339844 -1.332031 C 54.671875 -20.246094 63.160156 -39.640625 70.554688 -59.523438 C 74.675781 -70.433594 57.21875 -75.160156 53.097656 -64.371094 Z M 53.097656 -64.371094 "/></g></g></g><g fill="#fae601" fill-opacity="1"><g transform="translate(94.13739, 139.560526)"><g><path d="M 11.515625 -74.675781 C 9.09375 -52.855469 7.273438 -30.914062 6.0625 -8.972656 C 5.335938 2.789062 23.519531 2.667969 24.246094 -8.972656 C 25.457031 -30.914062 27.277344 -52.855469 29.699219 -74.675781 C 30.914062 -86.3125 12.730469 -86.3125 11.515625 -74.675781 Z M 11.515625 -74.675781 "/></g></g></g><g fill="#fae601" fill-opacity="1"><g transform="translate(126.018225, 139.560526)"><g><path d="M 45.097656 -52.492188 C 41.945312 -54.671875 34.671875 -56.613281 33.214844 -60.371094 C 31.035156 -66.3125 39.15625 -70.554688 43.277344 -72.492188 C 53.824219 -77.464844 44.613281 -93.101562 34.066406 -88.132812 C 17.820312 -80.496094 6.546875 -58.917969 22.789062 -44.855469 C 28.488281 -39.882812 39.761719 -37.945312 40.976562 -28.972656 C 41.460938 -25.214844 39.640625 -21.699219 36.246094 -20.246094 C 33.945312 -19.273438 25.457031 -17.941406 23.519531 -20.609375 C 16.488281 -29.820312 0.726562 -20.730469 7.757812 -11.394531 C 22.0625 7.515625 56.25 -0.484375 58.917969 -24.730469 C 60.128906 -35.882812 54.308594 -46.429688 45.097656 -52.492188 Z M 45.097656 -52.492188 "/></g></g></g><g fill="#fae601" fill-opacity="1"><g transform="translate(187.23456, 139.560526)"><g><path d="M 11.515625 -74.675781 C 9.09375 -52.855469 7.273438 -30.914062 6.0625 -8.972656 C 5.335938 2.789062 23.519531 2.667969 24.246094 -8.972656 C 25.457031 -30.914062 27.277344 -52.855469 29.699219 -74.675781 C 30.914062 -86.3125 12.730469 -86.3125 11.515625 -74.675781 Z M 11.515625 -74.675781 "/></g></g></g><g fill="#fae601" fill-opacity="1"><g transform="translate(219.115394, 139.560526)"><g><path d="M 74.433594 -66.3125 C 70.070312 -86.675781 40.488281 -94.195312 23.519531 -87.890625 C 23.15625 -87.769531 22.910156 -87.648438 22.667969 -87.527344 C 18.546875 -87.890625 13.335938 -85.34375 12.730469 -80.980469 C 10.425781 -63.402344 6.546875 -45.21875 6.0625 -27.519531 C 5.578125 -11.273438 19.152344 -3.152344 34.1875 -4.847656 C 48.371094 -6.546875 63.28125 -17.820312 63.039062 -33.214844 C 62.917969 -37.339844 61.824219 -40.855469 60.007812 -43.640625 C 69.585938 -48.25 76.738281 -55.523438 74.433594 -66.3125 Z M 43.519531 -71.160156 C 45.460938 -70.554688 56.734375 -66.675781 56.371094 -63.28125 C 56.25 -61.460938 48.371094 -58.675781 46.308594 -57.945312 C 41.339844 -56.128906 36.367188 -55.402344 31.15625 -55.28125 C 30.550781 -55.28125 29.820312 -55.28125 29.214844 -55.28125 C 28.609375 -55.28125 28.125 -55.28125 27.519531 -55.160156 C 28.246094 -60.371094 28.972656 -65.585938 29.578125 -70.796875 C 34.308594 -72.371094 38.671875 -72.492188 43.519531 -71.160156 Z M 42.308594 -27.882812 C 39.398438 -24.609375 28.851562 -19.640625 24.851562 -23.761719 C 23.277344 -25.335938 24.367188 -29.457031 24.609375 -31.640625 C 24.730469 -33.824219 25.09375 -35.882812 25.335938 -37.945312 C 26.425781 -37.460938 27.761719 -37.21875 29.214844 -37.09375 C 29.820312 -37.09375 30.429688 -37.09375 31.035156 -37.09375 C 37.582031 -37.09375 49.703125 -36.003906 42.308594 -27.882812 Z M 42.308594 -27.882812 "/></g></g></g><g fill="#fae601" fill-opacity="1"><g transform="translate(296.090476, 139.560526)"><g><path d="M 53.339844 -30.1875 C 43.882812 -29.457031 34.550781 -28.125 25.335938 -26.183594 C 26.914062 -41.097656 28.367188 -56.007812 29.820312 -70.917969 C 30.914062 -82.554688 12.730469 -82.554688 11.636719 -70.917969 C 9.820312 -52.007812 7.878906 -33.09375 6.0625 -14.183594 C 5.457031 -8.242188 12.363281 -4 17.578125 -5.457031 C 29.335938 -8.847656 41.21875 -11.03125 53.339844 -12 C 64.976562 -12.851562 65.097656 -31.035156 53.339844 -30.1875 Z M 53.339844 -30.1875 "/></g></g></g><g fill="#fae601" fill-opacity="1"><g transform="translate(360.337342, 139.560526)"><g><path d="M 50.550781 -25.699219 C 42.1875 -26.0625 33.824219 -25.699219 25.578125 -24.972656 C 26.183594 -29.578125 26.914062 -34.1875 27.519531 -38.792969 C 31.640625 -38.792969 35.761719 -38.671875 39.882812 -38.1875 C 44.855469 -37.703125 48.976562 -42.671875 48.976562 -47.277344 C 48.976562 -52.613281 44.855469 -55.886719 39.882812 -56.371094 C 36.730469 -56.734375 33.578125 -56.855469 30.308594 -56.976562 C 31.035156 -61.582031 31.882812 -66.3125 32.609375 -71.039062 C 38.792969 -71.039062 44.855469 -70.796875 51.035156 -70.433594 C 62.675781 -69.585938 62.675781 -87.769531 51.035156 -88.617188 C 42.308594 -89.222656 33.457031 -89.34375 24.730469 -88.980469 C 21.335938 -88.980469 18.910156 -87.285156 17.457031 -84.980469 C 16.851562 -84.011719 16.367188 -82.796875 16.125 -81.464844 C 12.121094 -59.160156 8.847656 -36.851562 6.0625 -14.546875 C 5.210938 -8 12.488281 -4.96875 17.578125 -5.699219 C 28.488281 -7.515625 39.519531 -8 50.550781 -7.515625 C 62.191406 -7.03125 62.191406 -25.214844 50.550781 -25.699219 Z M 50.550781 -25.699219 "/></g></g></g><g fill="#fae601" fill-opacity="1"><g transform="translate(422.148, 139.560526)"><g/></g></g><g fill="#fae601" fill-opacity="1"><g transform="translate(20.001785, 262.993197)"><g><path d="M 54.792969 -84.253906 C 45.582031 -82.796875 36.488281 -81.34375 27.277344 -79.890625 C 18.546875 -78.433594 15.03125 -74.191406 14.0625 -65.460938 C 11.757812 -45.21875 9.335938 -24.972656 6.183594 -4.847656 C 4.363281 6.546875 21.820312 11.515625 23.640625 0 C 25.09375 -9.578125 26.546875 -19.152344 27.761719 -28.730469 C 34.792969 -30.1875 41.703125 -30.914062 48.855469 -31.035156 C 60.492188 -31.15625 60.492188 -49.339844 48.855469 -49.21875 C 42.550781 -49.097656 36.367188 -48.613281 30.1875 -47.640625 C 30.308594 -48.128906 30.308594 -48.734375 30.429688 -49.339844 C 30.792969 -52.976562 32.003906 -57.339844 31.761719 -60.976562 C 31.761719 -61.460938 31.761719 -61.824219 31.882812 -62.3125 C 33.214844 -62.433594 34.671875 -62.675781 34.914062 -62.796875 C 43.15625 -64.007812 51.402344 -65.339844 59.644531 -66.675781 C 71.160156 -68.492188 66.191406 -85.949219 54.792969 -84.253906 Z M 54.792969 -84.253906 "/></g></g></g><g fill="#fae601" fill-opacity="1"><g transform="translate(88.248938, 262.993197)"><g><path d="M 68.855469 -11.515625 C 62.191406 -20.609375 54.550781 -28.730469 45.824219 -35.761719 C 52.371094 -40.367188 57.824219 -46.792969 60.128906 -53.703125 C 64.734375 -67.523438 52.371094 -81.101562 38.308594 -80.496094 C 23.398438 -79.769531 13.578125 -65.949219 10.910156 -52.492188 C 7.394531 -35.035156 7.394531 -16.488281 6.0625 1.210938 C 5.089844 12.851562 23.277344 12.851562 24.246094 1.210938 C 24.972656 -8.363281 25.699219 -17.941406 26.546875 -27.519531 C 36.851562 -20.730469 45.824219 -12.363281 53.21875 -2.304688 C 60.007812 7.03125 75.886719 -2.0625 68.855469 -11.515625 Z M 42.914062 -60.007812 C 43.398438 -58.066406 37.945312 -53.21875 36.488281 -51.886719 C 33.945312 -49.582031 31.519531 -47.886719 28.367188 -47.519531 C 28.730469 -49.582031 29.214844 -51.644531 30.0625 -53.582031 C 30.914062 -55.886719 41.21875 -68.25 42.914062 -60.007812 Z M 42.914062 -60.007812 "/></g></g></g><g fill="#fae601" fill-opacity="1"><g transform="translate(160.981272, 262.993197)"><g><path d="M 11.515625 -74.675781 C 9.09375 -52.855469 7.273438 -30.914062 6.0625 -8.972656 C 5.335938 2.789062 23.519531 2.667969 24.246094 -8.972656 C 25.457031 -30.914062 27.277344 -52.855469 29.699219 -74.675781 C 30.914062 -86.3125 12.730469 -86.3125 11.515625 -74.675781 Z M 11.515625 -74.675781 "/></g></g></g><g fill="#fae601" fill-opacity="1"><g transform="translate(192.862107, 262.993197)"><g><path d="M 50.550781 -25.699219 C 42.1875 -26.0625 33.824219 -25.699219 25.578125 -24.972656 C 26.183594 -29.578125 26.914062 -34.1875 27.519531 -38.792969 C 31.640625 -38.792969 35.761719 -38.671875 39.882812 -38.1875 C 44.855469 -37.703125 48.976562 -42.671875 48.976562 -47.277344 C 48.976562 -52.613281 44.855469 -55.886719 39.882812 -56.371094 C 36.730469 -56.734375 33.578125 -56.855469 30.308594 -56.976562 C 31.035156 -61.582031 31.882812 -66.3125 32.609375 -71.039062 C 38.792969 -71.039062 44.855469 -70.796875 51.035156 -70.433594 C 62.675781 -69.585938 62.675781 -87.769531 51.035156 -88.617188 C 42.308594 -89.222656 33.457031 -89.34375 24.730469 -88.980469 C 21.335938 -88.980469 18.910156 -87.285156 17.457031 -84.980469 C 16.851562 -84.011719 16.367188 -82.796875 16.125 -81.464844 C 12.121094 -59.160156 8.847656 -36.851562 6.0625 -14.546875 C 5.210938 -8 12.488281 -4.96875 17.578125 -5.699219 C 28.488281 -7.515625 39.519531 -8 50.550781 -7.515625 C 62.191406 -7.03125 62.191406 -25.214844 50.550781 -25.699219 Z M 50.550781 -25.699219 "/></g></g></g><g fill="#fae601" fill-opacity="1"><g transform="translate(254.684531, 262.993197)"><g><path d="M 53.339844 -73.585938 C 51.402344 -60.492188 49.097656 -47.398438 46.671875 -34.429688 L 35.882812 -59.160156 C 32.730469 -66.554688 21.214844 -63.886719 19.273438 -56.976562 C 14.183594 -38.066406 9.820312 -18.910156 6.183594 0.242188 C 4 11.757812 21.578125 16.609375 23.761719 5.089844 C 25.699219 -5.457031 28.003906 -16.003906 30.429688 -26.546875 C 34.308594 -17.699219 38.066406 -8.972656 41.945312 -0.121094 C 45.097656 7.152344 56.976562 4.96875 58.554688 -2.304688 C 63.402344 -24.246094 67.523438 -46.429688 70.796875 -68.734375 C 72.492188 -80.132812 54.914062 -85.101562 53.339844 -73.585938 Z M 53.339844 -73.585938 "/></g></g></g><g fill="#fae601" fill-opacity="1"><g transform="translate(327.780519, 262.993197)"><g><path d="M 26.183594 -86.921875 C 25.214844 -87.042969 24.125 -87.285156 23.15625 -87.40625 C 17.335938 -88.375 9.699219 -88.496094 9.214844 -80.980469 C 7.636719 -59.039062 6.667969 -36.972656 6.0625 -14.910156 C 5.941406 -11.03125 9.214844 -7.394531 12.972656 -6.910156 C 15.757812 -6.546875 18.667969 -7.273438 21.457031 -8.242188 C 31.15625 -11.394531 42.914062 -15.152344 50.792969 -21.941406 C 57.945312 -28.003906 63.28125 -36.367188 64.371094 -45.703125 C 65.707031 -56.976562 60.613281 -67.644531 52.371094 -75.160156 C 44.855469 -81.949219 35.882812 -84.980469 26.183594 -86.921875 Z M 45.582031 -44.613281 C 42.1875 -35.15625 33.457031 -31.640625 24.488281 -28.730469 C 24.972656 -41.824219 25.699219 -55.039062 26.425781 -68.25 C 37.703125 -65.828125 50.308594 -57.824219 45.582031 -44.613281 Z M 45.582031 -44.613281 "/></g></g></g><g fill="#fae601" fill-opacity="1"><g transform="translate(394.573033, 262.993197)"><g><path d="M 45.097656 -52.492188 C 41.945312 -54.671875 34.671875 -56.613281 33.214844 -60.371094 C 31.035156 -66.3125 39.15625 -70.554688 43.277344 -72.492188 C 53.824219 -77.464844 44.613281 -93.101562 34.066406 -88.132812 C 17.820312 -80.496094 6.546875 -58.917969 22.789062 -44.855469 C 28.488281 -39.882812 39.761719 -37.945312 40.976562 -28.972656 C 41.460938 -25.214844 39.640625 -21.699219 36.246094 -20.246094 C 33.945312 -19.273438 25.457031 -17.941406 23.519531 -20.609375 C 16.488281 -29.820312 0.726562 -20.730469 7.757812 -11.394531 C 22.0625 7.515625 56.25 -0.484375 58.917969 -24.730469 C 60.128906 -35.882812 54.308594 -46.429688 45.097656 -52.492188 Z M 45.097656 -52.492188 "/></g></g></g></svg>