<svg xmlns="http://www.w3.org/2000/svg" xmlns:xlink="http://www.w3.org/1999/xlink" width="43" zoomAndPan="magnify" viewBox="0 0 32.25 32.249998" height="43" preserveAspectRatio="xMidYMid meet" version="1.0"><defs><clipPath id="id1"><path d="M 0 0 L 31.515625 0 L 31.515625 31.515625 L 0 31.515625 Z M 0 0 " clip-rule="nonzero"/></clipPath><clipPath id="id2"><path d="M 6 10 L 27.117188 10 L 27.117188 22 L 6 22 Z M 6 10 " clip-rule="nonzero"/></clipPath></defs><g clip-path="url(#id1)"><path fill="#ffffff" d="M 15.757812 0 C 7.054688 0 0 7.054688 0 15.757812 C 0 24.460938 7.054688 31.515625 15.757812 31.515625 C 24.460938 31.515625 31.515625 24.460938 31.515625 15.757812 C 31.515625 7.054688 24.460938 0 15.757812 0 " fill-opacity="1" fill-rule="nonzero"/></g><g clip-path="url(#id2)"><path fill="#000000" d="M 60.359375 17.25 L 59.15625 17.25 C 59.066406 17.246094 58.976562 17.210938 58.910156 17.144531 C 58.84375 17.078125 58.808594 16.992188 58.804688 16.902344 L 58.804688 16.621094 C 58.808594 16.53125 58.84375 16.441406 58.910156 16.378906 C 58.976562 16.3125 59.066406 16.277344 59.15625 16.273438 L 60.1875 16.273438 C 60.28125 16.273438 60.371094 16.238281 60.4375 16.171875 C 60.503906 16.105469 60.539062 16.019531 60.539062 15.925781 C 60.539062 15.832031 60.503906 15.742188 60.4375 15.679688 C 60.371094 15.613281 60.28125 15.578125 60.1875 15.578125 L 59.148438 15.578125 C 59.054688 15.574219 58.96875 15.535156 58.902344 15.472656 C 58.835938 15.40625 58.796875 15.320312 58.796875 15.226562 L 58.796875 14.949219 C 58.796875 14.859375 58.835938 14.769531 58.902344 14.707031 C 58.96875 14.640625 59.054688 14.601562 59.148438 14.601562 L 60.328125 14.601562 C 60.421875 14.601562 60.511719 14.5625 60.578125 14.5 C 60.644531 14.433594 60.679688 14.34375 60.679688 14.253906 C 60.679688 14.160156 60.644531 14.070312 60.578125 14.007812 C 60.511719 13.941406 60.421875 13.902344 60.328125 13.902344 L 58.914062 13.902344 C 58.859375 13.902344 58.804688 13.921875 58.761719 13.953125 C 58.71875 13.988281 58.6875 14.035156 58.675781 14.089844 L 57.921875 17.597656 L 57.921875 17.667969 C 57.9375 17.75 57.980469 17.824219 58.046875 17.875 C 58.109375 17.925781 58.191406 17.953125 58.277344 17.945312 L 60.351562 17.945312 C 60.445312 17.945312 60.535156 17.910156 60.601562 17.84375 C 60.667969 17.777344 60.703125 17.691406 60.703125 17.597656 C 60.703125 17.503906 60.667969 17.417969 60.601562 17.351562 C 60.535156 17.285156 60.445312 17.25 60.351562 17.25 Z M 34.191406 13.925781 L 33.71875 13.925781 C 33.648438 13.929688 33.582031 13.949219 33.523438 13.984375 C 33.464844 14.023438 33.417969 14.074219 33.390625 14.136719 L 32.351562 16.597656 C 32.351562 16.605469 32.351562 16.609375 32.34375 16.617188 C 32.339844 16.621094 32.335938 16.621094 32.328125 16.621094 C 32.304688 16.621094 32.304688 16.621094 32.304688 16.597656 L 31.269531 14.136719 C 31.242188 14.074219 31.203125 14.015625 31.148438 13.972656 C 31.054688 13.902344 30.9375 13.996094 30.914062 14.113281 L 30.136719 17.667969 C 30.128906 17.707031 30.136719 17.75 30.160156 17.785156 C 30.1875 17.839844 30.230469 17.886719 30.285156 17.921875 C 30.339844 17.953125 30.402344 17.96875 30.464844 17.96875 L 30.609375 17.96875 C 30.699219 17.964844 30.785156 17.925781 30.847656 17.863281 C 30.914062 17.796875 30.949219 17.710938 30.953125 17.621094 L 30.953125 15.34375 C 30.953125 15.339844 30.953125 15.332031 30.957031 15.328125 C 30.964844 15.324219 30.96875 15.320312 30.976562 15.320312 C 30.980469 15.320312 30.988281 15.324219 30.992188 15.328125 C 30.996094 15.332031 31 15.339844 31 15.34375 L 31.964844 17.738281 C 31.992188 17.800781 32.035156 17.855469 32.097656 17.894531 C 32.15625 17.933594 32.226562 17.949219 32.296875 17.945312 L 32.390625 17.945312 C 32.460938 17.945312 32.527344 17.925781 32.585938 17.886719 C 32.644531 17.851562 32.691406 17.800781 32.71875 17.738281 L 33.6875 15.367188 C 33.6875 15.363281 33.6875 15.355469 33.695312 15.351562 C 33.699219 15.347656 33.703125 15.34375 33.710938 15.34375 C 33.714844 15.34375 33.722656 15.347656 33.726562 15.351562 C 33.730469 15.355469 33.734375 15.363281 33.734375 15.367188 L 33.734375 17.621094 C 33.734375 17.714844 33.773438 17.800781 33.839844 17.863281 C 33.90625 17.929688 33.996094 17.96875 34.085938 17.96875 L 34.230469 17.96875 C 34.320312 17.96875 34.410156 17.929688 34.476562 17.863281 C 34.542969 17.800781 34.582031 17.714844 34.582031 17.621094 L 34.582031 14.277344 C 34.566406 14.183594 34.519531 14.097656 34.449219 14.035156 C 34.375 13.972656 34.285156 13.933594 34.191406 13.925781 Z M 44.988281 15.808594 L 43.953125 15.808594 C 43.863281 15.808594 43.78125 15.84375 43.71875 15.90625 C 43.65625 15.964844 43.621094 16.046875 43.621094 16.132812 C 43.621094 16.21875 43.65625 16.304688 43.71875 16.363281 C 43.78125 16.425781 43.863281 16.460938 43.953125 16.460938 L 44.140625 16.460938 C 44.328125 16.460938 44.515625 16.621094 44.421875 16.808594 C 44.28125 17.109375 44 17.273438 43.550781 17.273438 C 42.890625 17.273438 42.488281 16.785156 42.488281 15.949219 C 42.488281 15.113281 42.914062 14.625 43.550781 14.625 C 43.699219 14.617188 43.84375 14.648438 43.976562 14.710938 C 44.109375 14.777344 44.222656 14.875 44.304688 14.996094 C 44.34375 15.0625 44.394531 15.121094 44.460938 15.160156 C 44.527344 15.203125 44.605469 15.226562 44.683594 15.226562 L 44.894531 15.226562 C 44.941406 15.230469 44.992188 15.222656 45.035156 15.207031 C 45.078125 15.1875 45.117188 15.160156 45.148438 15.121094 C 45.175781 15.085938 45.199219 15.042969 45.207031 14.996094 C 45.21875 14.949219 45.214844 14.902344 45.199219 14.855469 C 45.054688 14.550781 44.820312 14.296875 44.527344 14.125 C 44.230469 13.949219 43.894531 13.863281 43.550781 13.878906 C 42.464844 13.878906 41.640625 14.648438 41.640625 15.949219 C 41.640625 17.25 42.417969 18.015625 43.574219 18.015625 C 44.613281 18.015625 45.34375 17.367188 45.34375 16.320312 L 45.34375 16.15625 C 45.34375 16.113281 45.335938 16.066406 45.316406 16.023438 C 45.300781 15.980469 45.273438 15.941406 45.242188 15.910156 C 45.207031 15.875 45.167969 15.851562 45.125 15.832031 C 45.082031 15.816406 45.035156 15.808594 44.988281 15.808594 Z M 38.859375 14.160156 C 38.835938 14.09375 38.789062 14.035156 38.730469 13.992188 C 38.671875 13.949219 38.601562 13.925781 38.527344 13.925781 L 37.917969 13.925781 C 37.84375 13.925781 37.773438 13.949219 37.714844 13.992188 C 37.65625 14.035156 37.609375 14.09375 37.585938 14.160156 L 36.40625 17.503906 C 36.390625 17.558594 36.382812 17.613281 36.394531 17.667969 C 36.402344 17.722656 36.421875 17.773438 36.453125 17.820312 C 36.484375 17.863281 36.527344 17.902344 36.578125 17.929688 C 36.625 17.953125 36.679688 17.96875 36.738281 17.96875 L 36.925781 17.96875 C 37 17.96875 37.070312 17.945312 37.128906 17.90625 C 37.1875 17.863281 37.230469 17.804688 37.257812 17.738281 L 37.398438 17.296875 C 37.421875 17.230469 37.464844 17.171875 37.523438 17.128906 C 37.585938 17.085938 37.65625 17.0625 37.726562 17.0625 L 38.695312 17.0625 C 38.765625 17.0625 38.835938 17.085938 38.894531 17.128906 C 38.957031 17.171875 39 17.230469 39.023438 17.296875 L 39.164062 17.738281 C 39.191406 17.804688 39.234375 17.863281 39.292969 17.90625 C 39.351562 17.945312 39.421875 17.96875 39.496094 17.96875 L 39.683594 17.96875 C 39.738281 17.96875 39.796875 17.953125 39.84375 17.929688 C 39.894531 17.902344 39.9375 17.863281 39.96875 17.820312 C 40 17.773438 40.019531 17.722656 40.027344 17.667969 C 40.035156 17.613281 40.03125 17.558594 40.015625 17.503906 Z M 38.261719 16.367188 L 38.191406 16.367188 C 38.132812 16.363281 38.078125 16.351562 38.03125 16.324219 C 37.980469 16.296875 37.9375 16.261719 37.90625 16.214844 C 37.875 16.171875 37.851562 16.117188 37.84375 16.066406 C 37.835938 16.011719 37.84375 15.953125 37.859375 15.902344 L 38.214844 14.832031 C 38.214844 14.828125 38.214844 14.820312 38.21875 14.816406 C 38.222656 14.8125 38.230469 14.808594 38.238281 14.808594 C 38.242188 14.808594 38.25 14.8125 38.253906 14.816406 C 38.257812 14.820312 38.261719 14.828125 38.261719 14.832031 L 38.613281 15.902344 C 38.625 15.957031 38.628906 16.011719 38.617188 16.066406 C 38.605469 16.121094 38.582031 16.171875 38.546875 16.214844 C 38.511719 16.261719 38.46875 16.296875 38.421875 16.324219 C 38.371094 16.347656 38.316406 16.363281 38.261719 16.367188 Z M 47.722656 13.925781 L 47.558594 13.925781 C 47.464844 13.929688 47.378906 13.96875 47.3125 14.03125 C 47.246094 14.097656 47.207031 14.183594 47.203125 14.277344 L 47.203125 17.621094 C 47.207031 17.714844 47.246094 17.800781 47.3125 17.863281 C 47.378906 17.929688 47.464844 17.96875 47.558594 17.96875 L 47.722656 17.96875 C 47.816406 17.96875 47.90625 17.929688 47.972656 17.863281 C 48.035156 17.800781 48.074219 17.714844 48.078125 17.621094 L 48.078125 14.277344 C 48.070312 14.183594 48.03125 14.101562 47.96875 14.035156 C 47.902344 13.972656 47.816406 13.933594 47.722656 13.925781 Z M 51.847656 14.625 C 52.007812 14.621094 52.164062 14.65625 52.304688 14.730469 C 52.445312 14.800781 52.566406 14.910156 52.652344 15.042969 C 52.679688 15.125 52.734375 15.191406 52.808594 15.242188 C 52.878906 15.292969 52.964844 15.320312 53.050781 15.320312 L 53.21875 15.320312 C 53.265625 15.324219 53.3125 15.316406 53.355469 15.296875 C 53.402344 15.28125 53.4375 15.25 53.46875 15.214844 C 53.5 15.179688 53.519531 15.136719 53.53125 15.089844 C 53.539062 15.042969 53.535156 14.996094 53.523438 14.949219 C 53.289062 14.253906 52.652344 13.855469 51.824219 13.855469 C 50.742188 13.855469 49.917969 14.601562 49.917969 15.925781 C 49.917969 17.25 50.71875 17.992188 51.824219 17.992188 C 52.699219 17.992188 53.289062 17.527344 53.5 16.949219 C 53.511719 16.902344 53.515625 16.855469 53.507812 16.808594 C 53.496094 16.761719 53.476562 16.71875 53.445312 16.683594 C 53.414062 16.644531 53.378906 16.617188 53.332031 16.597656 C 53.289062 16.578125 53.242188 16.570312 53.191406 16.574219 L 53.003906 16.574219 C 52.917969 16.582031 52.835938 16.613281 52.765625 16.660156 C 52.695312 16.710938 52.640625 16.777344 52.605469 16.855469 C 52.527344 16.988281 52.410156 17.097656 52.273438 17.171875 C 52.136719 17.246094 51.980469 17.28125 51.824219 17.273438 C 51.214844 17.273438 50.789062 16.808594 50.789062 15.949219 C 50.789062 15.089844 51.214844 14.625 51.847656 14.625 Z M 64.0625 13.925781 L 62.953125 13.925781 C 62.859375 13.929688 62.773438 13.96875 62.707031 14.03125 C 62.640625 14.097656 62.601562 14.183594 62.601562 14.277344 L 62.601562 17.621094 C 62.601562 17.714844 62.640625 17.800781 62.707031 17.863281 C 62.773438 17.929688 62.859375 17.96875 62.953125 17.96875 L 64.0625 17.96875 C 65.3125 17.96875 66.066406 17.203125 66.066406 15.949219 C 66.066406 14.695312 65.289062 13.925781 64.0625 13.925781 Z M 64.015625 17.226562 L 63.824219 17.226562 C 63.734375 17.222656 63.644531 17.1875 63.578125 17.121094 C 63.511719 17.058594 63.476562 16.96875 63.472656 16.878906 L 63.472656 14.996094 C 63.476562 14.902344 63.511719 14.816406 63.578125 14.753906 C 63.644531 14.6875 63.734375 14.648438 63.824219 14.648438 L 64.015625 14.648438 C 64.792969 14.648438 65.195312 15.042969 65.195312 15.925781 C 65.195312 16.808594 64.792969 17.226562 64.015625 17.226562 Z M 70.308594 17.25 L 69.105469 17.25 C 69.015625 17.246094 68.925781 17.210938 68.859375 17.144531 C 68.792969 17.078125 68.753906 16.992188 68.753906 16.902344 L 68.753906 16.621094 C 68.753906 16.53125 68.792969 16.441406 68.859375 16.378906 C 68.925781 16.3125 69.015625 16.277344 69.105469 16.273438 L 70.144531 16.273438 C 70.238281 16.273438 70.328125 16.238281 70.394531 16.171875 C 70.460938 16.105469 70.5 16.019531 70.5 15.925781 C 70.5 15.832031 70.460938 15.742188 70.394531 15.679688 C 70.328125 15.613281 70.238281 15.578125 70.144531 15.578125 L 69.105469 15.578125 C 69.015625 15.574219 68.925781 15.535156 68.859375 15.472656 C 68.792969 15.40625 68.753906 15.320312 68.753906 15.226562 L 68.753906 14.949219 C 68.753906 14.859375 68.792969 14.769531 68.859375 14.707031 C 68.925781 14.640625 69.015625 14.601562 69.105469 14.601562 L 70.285156 14.601562 C 70.378906 14.601562 70.46875 14.5625 70.535156 14.5 C 70.601562 14.433594 70.640625 14.34375 70.640625 14.253906 C 70.640625 14.160156 70.601562 14.070312 70.535156 14.007812 C 70.46875 13.941406 70.378906 13.902344 70.285156 13.902344 L 68.234375 13.902344 C 68.140625 13.90625 68.054688 13.945312 67.988281 14.007812 C 67.921875 14.074219 67.882812 14.160156 67.882812 14.253906 L 67.882812 17.597656 C 67.882812 17.691406 67.921875 17.777344 67.988281 17.84375 C 68.054688 17.90625 68.140625 17.945312 68.234375 17.945312 L 70.308594 17.945312 C 70.402344 17.945312 70.492188 17.90625 70.558594 17.84375 C 70.621094 17.777344 70.660156 17.691406 70.664062 17.597656 C 70.664062 17.550781 70.65625 17.507812 70.636719 17.464844 C 70.621094 17.421875 70.59375 17.382812 70.5625 17.347656 C 70.527344 17.316406 70.488281 17.292969 70.445312 17.273438 C 70.402344 17.257812 70.355469 17.25 70.308594 17.25 Z M 75.636719 13.925781 L 75.472656 13.925781 C 75.378906 13.929688 75.292969 13.96875 75.226562 14.03125 C 75.160156 14.097656 75.121094 14.183594 75.117188 14.277344 L 75.117188 16.4375 C 75.117188 16.460938 75.117188 16.460938 75.09375 16.460938 L 75.070312 16.460938 L 73.421875 14.089844 C 73.390625 14.046875 73.347656 14.007812 73.296875 13.984375 C 73.25 13.960938 73.195312 13.949219 73.136719 13.949219 L 72.917969 13.949219 C 72.824219 13.953125 72.734375 13.988281 72.667969 14.054688 C 72.605469 14.121094 72.566406 14.207031 72.5625 14.296875 L 72.5625 17.644531 C 72.566406 17.734375 72.605469 17.824219 72.667969 17.886719 C 72.734375 17.953125 72.824219 17.992188 72.917969 17.992188 L 73.082031 17.992188 C 73.175781 17.992188 73.261719 17.953125 73.328125 17.886719 C 73.394531 17.824219 73.433594 17.734375 73.4375 17.644531 L 73.4375 15.460938 C 73.4375 15.453125 73.4375 15.449219 73.441406 15.445312 C 73.445312 15.441406 73.453125 15.4375 73.460938 15.4375 L 73.484375 15.4375 L 75.15625 17.808594 C 75.1875 17.851562 75.230469 17.886719 75.28125 17.910156 C 75.328125 17.9375 75.382812 17.949219 75.441406 17.945312 L 75.652344 17.945312 C 75.746094 17.945312 75.832031 17.90625 75.898438 17.84375 C 75.964844 17.777344 76.003906 17.691406 76.003906 17.597656 L 76.003906 14.253906 C 75.988281 14.164062 75.945312 14.085938 75.878906 14.027344 C 75.8125 13.96875 75.726562 13.933594 75.636719 13.925781 Z M 19.957031 13.191406 L 21.050781 14.472656 C 21.175781 14.617188 21.285156 14.734375 21.332031 14.804688 C 21.65625 15.128906 21.839844 15.566406 21.839844 16.023438 C 21.808594 16.5625 21.457031 16.929688 21.132812 17.320312 L 20.367188 18.21875 L 19.96875 18.683594 C 19.957031 18.699219 19.945312 18.71875 19.945312 18.738281 C 19.941406 18.761719 19.945312 18.78125 19.953125 18.800781 C 19.960938 18.820312 19.976562 18.835938 19.996094 18.847656 C 20.015625 18.859375 20.035156 18.863281 20.058594 18.863281 L 24.039062 18.863281 C 24.648438 18.863281 25.414062 19.375 25.367188 20.152344 C 25.367188 20.503906 25.226562 20.84375 24.972656 21.089844 C 24.71875 21.339844 24.375 21.480469 24.019531 21.484375 L 17.78125 21.484375 C 17.371094 21.484375 16.269531 21.527344 15.960938 20.585938 C 15.894531 20.390625 15.886719 20.179688 15.933594 19.976562 C 16.023438 19.679688 16.164062 19.398438 16.355469 19.148438 C 16.667969 18.683594 17.007812 18.222656 17.339844 17.769531 C 17.773438 17.179688 18.214844 16.609375 18.652344 16.007812 C 18.667969 15.988281 18.675781 15.960938 18.675781 15.9375 C 18.675781 15.914062 18.667969 15.890625 18.652344 15.871094 L 17.066406 14.011719 C 17.058594 13.996094 17.042969 13.984375 17.027344 13.980469 C 17.011719 13.972656 16.996094 13.96875 16.980469 13.96875 C 16.960938 13.96875 16.945312 13.972656 16.929688 13.980469 C 16.914062 13.984375 16.902344 13.996094 16.890625 14.011719 C 16.464844 14.574219 14.609375 17.074219 14.210938 17.582031 C 13.816406 18.089844 12.839844 18.117188 12.300781 17.582031 L 9.824219 15.128906 C 9.808594 15.113281 9.785156 15.105469 9.765625 15.101562 C 9.742188 15.09375 9.71875 15.097656 9.699219 15.105469 C 9.679688 15.113281 9.660156 15.128906 9.648438 15.148438 C 9.636719 15.164062 9.628906 15.1875 9.628906 15.210938 L 9.628906 19.921875 C 9.636719 20.257812 9.535156 20.585938 9.34375 20.863281 C 9.148438 21.136719 8.875 21.347656 8.554688 21.460938 C 8.351562 21.53125 8.132812 21.550781 7.917969 21.519531 C 7.703125 21.492188 7.5 21.410156 7.324219 21.289062 C 7.148438 21.164062 7.003906 21 6.90625 20.8125 C 6.804688 20.621094 6.753906 20.414062 6.753906 20.199219 L 6.753906 11.722656 C 6.769531 11.417969 6.878906 11.125 7.070312 10.886719 C 7.265625 10.648438 7.53125 10.472656 7.828125 10.390625 C 8.085938 10.324219 8.355469 10.324219 8.609375 10.394531 C 8.867188 10.460938 9.097656 10.59375 9.285156 10.78125 L 13.09375 14.539062 C 13.105469 14.550781 13.121094 14.5625 13.136719 14.566406 C 13.152344 14.570312 13.167969 14.574219 13.183594 14.574219 C 13.199219 14.570312 13.214844 14.566406 13.230469 14.558594 C 13.242188 14.550781 13.253906 14.539062 13.265625 14.527344 L 15.972656 10.835938 C 16.097656 10.683594 16.253906 10.5625 16.429688 10.480469 C 16.609375 10.394531 16.800781 10.351562 17 10.347656 L 24.039062 10.347656 C 24.230469 10.347656 24.421875 10.390625 24.597656 10.46875 C 24.773438 10.546875 24.929688 10.660156 25.054688 10.804688 C 25.183594 10.949219 25.277344 11.117188 25.332031 11.296875 C 25.386719 11.480469 25.402344 11.671875 25.378906 11.859375 C 25.328125 12.1875 25.160156 12.484375 24.90625 12.695312 C 24.648438 12.910156 24.324219 13.027344 23.988281 13.019531 L 20.046875 13.019531 C 20.027344 13.019531 20.007812 13.027344 19.992188 13.039062 C 19.976562 13.046875 19.960938 13.0625 19.953125 13.078125 C 19.941406 13.097656 19.9375 13.117188 19.941406 13.136719 C 19.941406 13.15625 19.949219 13.175781 19.957031 13.191406 Z M 19.957031 13.191406 " fill-opacity="1" fill-rule="nonzero"/></g></svg>