<svg width="50" height="50" viewBox="0 0 50 50" fill="none" xmlns="http://www.w3.org/2000/svg">
<path d="M22.7044 25.9699C22.7044 27.5468 21.4206 28.8166 19.8437 28.8166C18.2668 28.8166 16.983 27.5468 16.983 25.9699C16.983 24.393 18.2668 23.1091 19.8437 23.1091C21.4206 23.1091 22.7044 24.393 22.7044 25.9699Z" fill="white"/>
<path d="M33.017 25.9699C33.017 27.5468 31.7471 28.8166 30.1702 28.8166C28.5934 28.8166 27.3095 27.5468 27.3095 25.9699C27.3095 24.393 28.5794 23.1091 30.1702 23.1091C31.7611 23.1091 33.017 24.393 33.017 25.9699Z" fill="white"/>
<path d="M25.007 0C11.1917 0 0 11.1917 0 24.993C0 38.7943 11.1917 49.986 25.007 49.986C38.8222 49.986 50 38.7943 50 24.993C50 11.1917 38.8083 0 25.007 0ZM40.2735 32.8635C37.8454 34.6497 35.2637 36.0313 32.4728 36.8127L30.8261 33.9939C31.6774 33.6589 32.4867 33.1984 33.2682 32.6542L32.8775 32.1658C30.3656 33.4217 28.1747 34.0218 25.007 34.0218C21.8392 34.0218 19.6344 33.4217 17.1225 32.1658L16.7318 32.6542C17.5272 33.1984 18.3366 33.6589 19.1739 33.9939L17.5272 36.8127C14.7363 36.0313 12.1546 34.6497 9.74044 32.8635C9.05666 26.3885 10.508 20.4717 14.3455 15.1689C16.4248 14.2757 18.518 13.6059 20.6531 13.1733L21.4066 14.8339C22.83 14.6525 23.6673 14.5548 25.007 14.5548C26.3466 14.5548 27.1839 14.6525 28.5934 14.8339L29.3469 13.1733C31.482 13.6059 33.5892 14.2757 35.6545 15.1689C39.506 20.4717 40.9433 26.3885 40.2735 32.8635Z" fill="white"/>
</svg>
