<?xml version="1.0" encoding="utf-8"?>
<!-- Generator: Adobe Illustrator 16.0.0, SVG Export Plug-In . SVG Version: 6.00 Build 0)  -->
<!DOCTYPE svg PUBLIC "-//W3C//DTD SVG 1.1//EN" "http://www.w3.org/Graphics/SVG/1.1/DTD/svg11.dtd">
<svg version="1.1" id="Layer_1" xmlns="http://www.w3.org/2000/svg" xmlns:xlink="http://www.w3.org/1999/xlink" x="0px" y="0px"
	 width="576px" height="2277.467px" viewBox="73 0 576 2277.467" enable-background="new 73 0 576 2277.467" xml:space="preserve">
<rect x="72.007" y="10" display="none" fill="#7F0D0D" width="576.694" height="2611"/>
<path opacity="0.05" fill="#FFFFFF" enable-background="new    " d="M648.701-20v71.418c-44.383,15.68-99.897,26.923-155.805,26.398
	c-82.191-0.771-75.107-26.135-156.403-24.005c-96.149,2.521-139.725,38.877-240.596,24.005c-8.365-1.233-15.811-2.625-22.471-4.165
	V-20H648.701z"/>
<path opacity="0.05" fill="#FFFFFF" enable-background="new    " d="M648.701,271.634v258.274
	c-21.161-1.419-46.536-4.07-77.004-8.38c-142.278-20.127-137.507-39.921-215.428-43.785
	c-136.996-6.796-188.537,52.566-263.067,9.896c-7.247-4.147-13.818-8.751-19.775-13.616V220.171
	c14.774,9.668,34.421,23.839,63.52,40.537c55.91,32.086,142.982,82.059,231.907,73.175c64.332-6.426,59.281-36.631,140.821-54.88
	C536.831,272.926,594.007,260.129,648.701,271.634z"/>
<path opacity="0.05" fill="#FFFFFF" enable-background="new    " d="M648.399,856.595v294.818
	c-44.533-12.422-100.834-32.408-172.882-13.115c-58.621,15.697-47.044,55.813-116.552,76.426
	c-90.461,26.828-116.035,4.527-225.315,24.105c-24.293,4.354-44.083,9.719-60.524,14.906v-316.26
	c29.33-7.821,59.394-7.602,82.995-7.431c109.338,0.796,129.986,54.343,213.93,43.82c40.318-5.055,30.252-16.742,150.708-70.532
	C580.354,876.722,620.449,862.777,648.399,856.595L648.399,856.595z"/>
<path opacity="0.05" fill="#FFFFFF" enable-background="new    " d="M648.399,1639.204v261.119
	c-41.019,1.619-89.859-7.129-126.739-17.777c-124.75-36.016-121.755-96.377-221.42-107.053
	c-59.51-6.375-139.144,6.729-189.36,14.992c-15.767,2.598-27.908,4.938-37.753,6.816v-241.107
	c34.499,5.418,64.102,13.197,77.003,16.59c138.971,36.535,139.851,98.609,245.691,103.152
	c58.067,2.494,150.116-12.229,217.524-28.186C625.975,1644.761,637.675,1641.743,648.399,1639.204z"/>
<path opacity="0.05" fill="#FFFFFF" enable-background="new    " d="M649,2193.346v117.469
	c-27.912-6.02-63.231-14.686-109.962-15.652c-83.333-1.725-81.404,23.555-208.235,37.535c-62.711,6.91-107.423,5.209-196.851,1.799
	c-22.083-0.838-42.139-1.621-60.225-2.506v-148.096c16.401-2.746,35.505-4.066,58.126-3.439
	c109.818,3.055,118.561,46.895,210.336,56.152c72.003,7.266,75.272-18.848,264.266-39.336
	C622.324,2195.551,636.44,2194.203,649,2193.346z"/>
</svg>
