<svg width="722" height="1016" viewBox="0 0 722 1016" fill="none" xmlns="http://www.w3.org/2000/svg">
<path d="M361.967 922.962C335.122 922.962 309.469 917.869 285.914 908.599C208.677 878.206 154 802.871 154 714.761C154 686.384 159.673 659.324 169.946 634.676C201.286 559.441 275.457 506.56 361.967 506.56C398.269 506.56 432.406 515.877 462.107 532.25C481.667 543.022 499.304 556.858 514.375 573.106C548.854 610.266 569.934 660.049 569.934 714.761C569.934 730.462 568.197 745.761 564.906 760.467C561.109 777.446 555.238 793.64 547.571 808.775C513.263 876.525 443.035 922.962 361.967 922.962Z" fill="#3695B2"/>
<path d="M371.839 907.149C472.52 907.149 554.139 825.439 554.139 724.644C554.139 623.849 472.52 542.139 371.839 542.139C271.157 542.139 189.539 623.849 189.539 724.644C189.539 825.439 271.157 907.149 371.839 907.149Z" fill="#277DA0"/>
<path d="M462.107 532.25C456.585 531.999 451.261 531.591 446.865 530.938C433.156 528.903 410.043 539.425 400.197 544.34C397.282 545.789 395.531 546.751 395.531 546.751L388.404 542.884L379.736 538.186C379.736 538.186 402.771 537.527 396.275 526.326C389.779 515.126 340.907 524.35 333.01 526.326C325.112 528.303 290.232 552.681 308.001 546.092C317.623 542.528 327.238 543.397 336.116 545.651C343.632 547.548 350.621 550.441 356.616 552.45C369.693 556.832 374.471 584.965 383.027 582.33C391.583 579.694 397.506 600.778 397.506 600.778C397.506 600.778 383.685 610.661 385.001 624.497C386.318 638.333 417.249 667.323 413.301 664.688C409.352 662.052 350.779 682.477 334.109 695.022C317.432 707.573 297.471 726.621 297.899 705.939C298.326 685.257 319.847 676.547 329.719 655.839C339.591 635.124 329.719 617.908 329.719 617.908C329.719 617.908 309.317 650.193 309.317 656.781C309.317 663.37 300.762 698.949 284.96 696.57C269.158 694.192 256.667 757.587 256.667 760.223C256.667 762.858 227.71 796.46 227.71 793.825C227.71 791.189 238.898 743.751 238.24 739.798C237.582 735.845 222.445 732.551 228.368 710.808C234.291 689.066 227.052 676.547 224.419 675.229C221.787 673.912 213.231 710.808 206.65 710.808C202.484 710.808 195.685 706.321 191.592 697.189C189.21 691.892 187.742 685.02 188.222 676.547C189.539 653.487 205.992 656.781 198.423 641.397C193.428 631.237 179.101 632.588 169.946 634.676C201.286 559.441 275.457 506.56 361.967 506.56C398.269 506.56 432.406 515.877 462.107 532.25Z" fill="#957BAA"/>
<path d="M569.934 714.761C569.934 730.462 568.197 745.761 564.906 760.467C561.932 757.713 557.437 754.082 552.336 750.412C542.023 742.994 529.223 735.41 521.431 734.527C509.788 733.209 479.113 738.48 476.481 734.527C473.848 730.574 498.199 727.28 511.361 724.644C524.524 722.009 541.635 706.196 548.216 685.745C548.585 684.605 548.92 683.505 549.236 682.444C554.587 664.437 552.823 657.44 552.823 657.44C552.823 657.44 548.815 662.606 545.116 667.778C541.944 672.212 539.003 676.646 539.003 677.865C539.003 680.5 518.601 706.855 518.601 706.855C518.601 706.855 496.883 697.631 485.694 697.631C474.506 697.631 447.267 714.761 447.267 714.761C447.267 714.761 448.181 697.631 448.181 693.678C448.181 689.724 440.942 681.818 444.891 668.641C448.84 655.464 462.66 667.982 481.746 658.758C500.831 649.534 497.541 627.732 497.541 627.732C497.541 627.732 471.874 646.24 461.344 649.389C450.814 652.545 428.438 646.24 428.438 646.24C428.438 646.24 443.575 642.286 456.737 637.674C469.9 633.062 482.029 585.393 482.029 585.393C482.029 585.393 483.878 584.418 486.807 583.002C493.395 579.833 505.458 574.476 514.376 573.106C548.855 610.266 569.934 660.049 569.934 714.761Z" fill="#957BAA"/>
<path d="M547.571 808.775C513.263 876.525 443.035 922.962 361.967 922.962C335.122 922.962 309.468 917.869 285.914 908.599C292.982 904.31 300.709 898.894 303.973 894.084C303.999 894.045 304.026 894.012 304.052 893.972C310.633 884.089 321.163 899.243 336.3 903.196C351.437 907.149 377.762 887.383 380.822 883.43C383.882 879.477 363.283 883.43 330.377 883.43C313.365 883.43 291.423 882.02 273.476 878.331C259.833 869.561 247.434 859.019 236.601 847.028C233.62 835.689 232.889 826.472 240.872 825.734C252.06 824.706 258.642 807.661 268.026 793.97C277.411 780.285 300.426 793.97 300.426 793.97C300.426 793.97 288.257 825.45 298.781 828.323C309.304 831.196 321.163 831.38 332.351 837.31C343.54 843.24 386.318 820.179 383.027 818.862C379.736 817.544 328.403 810.296 328.403 810.296L338.933 762.199C338.933 762.199 351.437 764.176 361.967 764.637C372.497 765.092 354.069 781.306 361.967 784.93C369.864 788.554 391.582 790.531 401.685 776.246C411.787 761.962 421.198 776.036 428.437 776.246C435.677 776.457 459.369 775.377 455.763 776.246C452.156 777.116 428.437 811.041 428.437 811.041L394.873 828.086C394.873 828.086 400.138 830.062 421.001 822.644C441.857 815.225 444.891 798.437 456.539 783.283C468.182 768.129 492.934 781.965 501.344 783.283C505.385 783.916 521.351 793.014 536.863 802.298C540.509 804.485 544.136 806.679 547.571 808.775Z" fill="#957BAA"/>
<path d="M411.326 721.35C411.326 721.35 411.326 730.574 405.403 733.209C399.48 735.845 390.925 730.574 385.001 733.868C379.078 737.163 371.839 741.116 371.839 738.48C371.839 735.845 365.804 730.574 375.728 721.35C385.653 712.126 392.695 713.444 398.388 714.761C404.08 716.079 411.32 721.35 411.32 721.35H411.326Z" fill="#79598E"/>
<path d="M361.967 723.215V732.498C361.967 732.498 358.703 731.78 357.702 732.498C356.702 733.216 356.702 725.738 361.967 723.215Z" fill="#79598E"/>
<path d="M361.967 922.962C476.824 922.962 569.934 829.747 569.934 714.761C569.934 599.775 476.824 506.56 361.967 506.56C247.11 506.56 154 599.775 154 714.761C154 829.747 247.11 922.962 361.967 922.962Z" stroke="black" stroke-width="6" stroke-miterlimit="10"/>
<path d="M395.531 546.751L388.404 542.884C392.372 543.239 396.308 543.727 400.197 544.34C397.282 545.789 395.531 546.751 395.531 546.751Z" fill="#79598E"/>
<path d="M256.667 760.223C256.667 762.858 227.71 796.46 227.71 793.825C227.71 791.189 238.898 743.751 238.24 739.798C237.582 735.845 222.445 732.551 228.368 710.808C234.291 689.066 227.052 676.547 224.419 675.229C221.787 673.912 213.231 710.808 206.65 710.808C202.484 710.808 196.923 704.127 192.829 694.995C204.281 618.969 259.557 564.251 334.326 549.387C341.842 551.284 350.049 553.966 356.044 555.975C369.121 560.357 375.13 588.918 383.685 586.283C392.241 583.647 397.506 600.778 397.506 600.778C397.506 600.778 383.685 610.661 385.002 624.497C386.318 638.333 417.25 667.323 413.301 664.688C409.352 662.052 350.779 682.477 334.109 695.022C317.432 707.573 297.471 726.621 297.899 705.939C298.327 685.257 322.48 676.172 332.352 655.464C342.223 634.749 329.719 617.908 329.719 617.908C329.719 617.908 309.317 650.193 309.317 656.781C309.317 663.37 300.762 698.949 284.96 696.57C269.159 694.192 256.667 757.587 256.667 760.223Z" fill="#79598E"/>
<path d="M535.712 804.367C506.563 866.333 444.779 907.149 371.839 907.149C347.85 907.149 324.948 902.511 303.973 894.084C304 894.045 304.684 894.012 304.71 893.972C310.633 885.407 321.163 899.243 336.3 903.196C351.437 907.149 377.762 887.383 380.822 883.43C383.883 879.477 364.6 880.136 331.693 880.136C314.681 880.136 292.384 880.531 274.437 876.842C260.794 868.072 249.731 857.208 238.898 845.216C235.917 833.877 236.838 827.506 244.821 826.768C256.009 825.74 261.103 809.493 270.488 795.801C279.873 782.117 300.426 793.97 300.426 793.97C300.426 793.97 288.257 825.45 298.781 828.323C309.304 831.196 321.163 831.38 332.352 837.31C343.54 843.24 386.318 820.179 383.027 818.862C379.736 817.544 328.403 810.296 328.403 810.296L340.907 764.176C340.907 764.176 351.437 764.176 361.967 764.637C372.497 765.092 354.07 781.306 361.967 784.93C369.865 788.554 391.583 790.531 401.685 776.246C411.787 761.962 421.198 776.036 428.438 776.246C435.677 776.457 459.369 775.377 455.763 776.246C452.156 777.116 428.438 811.041 428.438 811.041L394.873 828.086C394.873 828.086 400.138 830.062 421.001 822.644C441.857 815.225 444.891 798.437 456.539 783.283C468.182 768.129 493.078 783.942 501.489 785.26C505.53 785.892 520.2 795.083 535.712 804.367Z" fill="#79598E"/>
<path d="M428.438 646.24C428.438 646.24 443.575 642.286 456.737 637.674C469.9 633.062 483.72 586.942 483.72 586.942C483.72 586.942 485.398 585.723 488.327 584.306C515.139 606.148 532.606 632.384 543.609 666.005C540.437 670.44 537.686 675.987 537.686 677.206C537.686 679.841 518.601 706.855 518.601 706.855C518.601 706.855 496.883 697.631 485.694 697.631C474.506 697.631 447.267 714.761 447.267 714.761C447.267 714.761 448.181 697.631 448.181 693.678C448.181 689.724 440.942 681.818 444.891 668.641C448.84 655.464 462.66 667.982 481.746 658.758C500.831 649.534 498.199 625.815 498.199 625.815C498.199 625.815 471.874 646.239 461.344 649.389C450.814 652.545 428.438 646.24 428.438 646.24Z" fill="#79598E"/>
<path d="M554.139 724.644C554.139 733.394 553.356 739.284 552.165 747.704C541.852 740.286 529.223 735.41 521.43 734.527C509.788 733.209 479.113 738.48 476.481 734.527C473.848 730.574 498.199 727.28 511.361 724.644C524.524 722.009 542.293 708.858 548.874 688.407C549.243 687.267 549.874 685.514 550.19 684.454C553.395 698 554.139 710.116 554.139 724.644Z" fill="#79598E"/>
<path d="M454.839 486.795C462.29 486.795 468.33 480.747 468.33 473.288C468.33 465.828 462.29 459.781 454.839 459.781C447.388 459.781 441.347 465.828 441.347 473.288C441.347 480.747 447.388 486.795 454.839 486.795Z" fill="#D8D8D8"/>
<path d="M455.168 484.159C460.983 484.159 465.698 479.439 465.698 473.617C465.698 467.795 460.983 463.076 455.168 463.076C449.352 463.076 444.638 467.795 444.638 473.617C444.638 479.439 449.352 484.159 455.168 484.159Z" fill="#ADA8B2"/>
<path d="M461.749 480.206C461.749 481.3 460.867 482.183 459.775 482.183C458.682 482.183 457.8 481.3 457.8 480.206C457.8 480.16 457.8 480.107 457.807 480.061C457.899 480.885 458.597 481.524 459.446 481.524C460.354 481.524 461.091 480.786 461.091 479.877C461.091 479.027 460.453 478.328 459.63 478.236C459.676 478.229 459.729 478.229 459.775 478.229C460.867 478.229 461.749 479.112 461.749 480.206Z" fill="#67626D"/>
<path d="M463.723 472.958C463.723 474.777 462.249 476.253 460.433 476.253C458.616 476.253 457.142 474.777 457.142 472.958C457.142 472.846 457.149 472.734 457.162 472.622C457.32 473.927 458.432 474.935 459.775 474.935C461.229 474.935 462.407 473.756 462.407 472.3C462.407 470.956 461.4 469.842 460.097 469.684C460.209 469.671 460.321 469.664 460.433 469.664C462.249 469.664 463.723 471.14 463.723 472.958Z" fill="#67626D"/>
<path d="M452.535 476.582C452.535 477.854 451.502 478.888 450.232 478.888C448.962 478.888 447.928 477.854 447.928 476.582C447.928 476.523 447.928 476.464 447.935 476.404C448.007 477.426 448.863 478.229 449.903 478.229C450.995 478.229 451.877 477.347 451.877 476.253C451.877 475.159 451.074 474.355 450.054 474.283C450.113 474.276 450.173 474.276 450.232 474.276C451.502 474.276 452.535 475.311 452.535 476.582Z" fill="#67626D"/>
<path d="M455.168 471.97C455.168 472.517 454.727 472.958 454.181 472.958C453.634 472.958 453.193 472.517 453.193 471.97C453.193 471.904 453.2 471.845 453.213 471.786C453.279 472.082 453.542 472.3 453.851 472.3C454.213 472.3 454.51 472.003 454.51 471.641C454.51 471.331 454.292 471.068 453.996 471.002C454.055 470.988 454.115 470.982 454.181 470.982C454.727 470.982 455.168 471.423 455.168 471.97Z" fill="#67626D"/>
<path d="M457.142 462.087C457.142 463.359 456.109 464.393 454.839 464.393C453.568 464.393 452.535 463.359 452.535 462.087C452.535 461.969 452.542 461.85 452.568 461.738C452.713 462.502 453.378 463.076 454.18 463.076C455.089 463.076 455.826 462.338 455.826 461.428C455.826 460.625 455.253 459.959 454.49 459.814C454.602 459.788 454.72 459.781 454.839 459.781C456.109 459.781 457.142 460.816 457.142 462.087Z" fill="#67626D"/>
<path d="M450.561 467.029C450.561 469.21 448.791 470.982 446.612 470.982C444.434 470.982 442.664 469.21 442.664 467.029C442.664 466.969 442.664 466.91 442.67 466.857C442.749 468.788 444.335 470.323 446.283 470.323C448.231 470.323 449.903 468.702 449.903 466.699C449.903 464.696 448.369 463.161 446.441 463.082C446.494 463.075 446.553 463.076 446.612 463.076C448.791 463.076 450.561 464.848 450.561 467.029Z" fill="#67626D"/>
<path d="M452.535 483.5C452.535 483.863 452.239 484.159 451.877 484.159C451.515 484.159 451.219 483.863 451.219 483.5C451.219 483.434 451.232 483.368 451.252 483.309C451.298 483.421 451.41 483.5 451.548 483.5C451.732 483.5 451.877 483.355 451.877 483.171C451.877 483.032 451.798 482.92 451.686 482.874C451.745 482.855 451.811 482.841 451.877 482.841C452.239 482.841 452.535 483.138 452.535 483.5Z" fill="#67626D"/>
<path d="M462.407 466.04C462.407 466.587 461.966 467.029 461.42 467.029C460.874 467.029 460.433 466.587 460.433 466.04C460.433 465.975 460.439 465.915 460.453 465.856C460.518 466.152 460.782 466.37 461.091 466.37C461.453 466.37 461.749 466.073 461.749 465.711C461.749 465.401 461.532 465.138 461.236 465.072C461.295 465.059 461.354 465.052 461.42 465.052C461.966 465.052 462.407 465.494 462.407 466.04Z" fill="#67626D"/>
<path d="M454.839 486.795C462.29 486.795 468.33 480.747 468.33 473.288C468.33 465.828 462.29 459.781 454.839 459.781C447.388 459.781 441.347 465.828 441.347 473.288C441.347 480.747 447.388 486.795 454.839 486.795Z" stroke="black" stroke-width="3" stroke-linecap="round" stroke-linejoin="round"/>
<path d="M24.755 455.169C28.0456 453.193 38.5756 461.672 35.9431 462.7C33.3106 463.728 24.0969 466.937 24.755 462.7C25.4131 458.463 24.755 455.169 24.755 455.169Z" fill="#7F99AD"/>
<path d="M27.2888 459.267C29.5133 458.325 36.6276 462.371 34.8506 462.865C33.0737 463.359 26.8413 464.887 27.2888 462.865C27.7363 460.842 27.2888 459.267 27.2888 459.267Z" fill="#57758F"/>
<path d="M24.755 455.169C28.0456 453.193 38.5756 461.672 35.9431 462.7C33.3106 463.728 24.0969 466.937 24.755 462.7C25.4131 458.463 24.755 455.169 24.755 455.169Z" stroke="black" stroke-width="4" stroke-miterlimit="10"/>
<path d="M-20.6819 478.704C-24.8215 475.383 -42.1039 470.969 -28.9809 466.594C-15.8579 462.219 -6.77579 470.264 2.45111 465.052C11.678 459.84 16.4823 476.971 15.9032 478.005C15.324 479.04 -3.06396 488.455 -6.78236 486.643C-10.5008 484.831 -20.6819 478.704 -20.6819 478.704Z" fill="#7F99AD"/>
<path d="M-15.6341 478.17C-18.9839 475.587 -32.8045 471.931 -22.4588 468.887C-12.1131 465.843 -4.74214 472.082 2.48406 468.333C9.71026 464.584 13.863 477.59 13.4221 478.355C12.9811 479.119 -1.45152 485.866 -4.43282 484.423C-7.41412 482.98 -15.6275 478.17 -15.6275 478.17H-15.6341Z" fill="#57758F"/>
<path d="M-20.6819 478.704C-24.8215 475.383 -42.1039 470.969 -28.9809 466.594C-15.8579 462.219 -6.77578 470.264 2.45111 465.052C11.678 459.84 16.4823 476.971 15.9032 478.005C15.324 479.04 -3.06397 488.455 -6.78236 486.643C-10.5008 484.831 -20.6819 478.704 -20.6819 478.704V478.704Z" stroke="black" stroke-width="4" stroke-linecap="round" stroke-linejoin="round"/>
<path d="M7.86089 474.355C7.13695 474.54 6.67626 474.764 6.49857 474.988C6.3472 475.218 6.3801 475.311 6.20241 475.548C6.05762 475.759 5.89309 475.996 5.69565 476.134C5.60351 476.207 5.50479 476.332 5.47847 476.556C5.43898 476.793 5.49163 477.07 5.60352 477.439C5.24155 477.59 4.85983 477.551 4.49128 477.386C3.70153 477.05 3.36589 475.871 3.58307 475.093C3.96478 472.899 7.15011 471.911 7.86089 474.349V474.355Z" fill="black"/>
<path d="M95.2859 929.123C95.2859 929.123 98.6357 911.59 102.499 912.005C106.362 912.42 118.866 914.397 122.157 924.939C125.448 935.481 108.995 944.046 106.362 944.046C103.73 944.046 95.2859 929.116 95.2859 929.116V929.123Z" fill="#7F99AD"/>
<path d="M100.334 930.137C100.334 930.137 102.769 917.395 105.572 917.698C108.376 918.001 117.471 919.437 119.86 927.1C122.249 934.762 110.291 940.989 108.376 940.989C106.461 940.989 100.327 930.137 100.327 930.137H100.334Z" fill="#57758F"/>
<path d="M95.2859 929.123C95.2859 929.123 98.6357 911.59 102.499 912.005C106.362 912.42 118.866 914.397 122.157 924.939C125.448 935.481 108.995 944.046 106.362 944.046C103.73 944.046 95.2859 929.116 95.2859 929.116V929.123Z" stroke="black" stroke-width="4" stroke-miterlimit="10"/>
<path d="M115.576 922.962C113.852 922.646 112.193 922.764 111.153 923.502C109.12 925.064 108.093 928.391 109.35 930.684C109.969 931.877 111.344 932.759 112.943 933.504C112.075 933.662 111.153 933.682 110.238 933.438C101.67 930.822 108.442 916.558 115.576 922.962Z" fill="black"/>
<path d="M103.071 917.691C105.447 918.627 104.236 922.508 101.755 921.644C101.781 920.63 101.604 920.274 101.755 919.523C102.018 918.805 102.407 918.409 103.071 917.691Z" fill="black"/>
<path d="M481.493 996.755C481.493 996.755 488.074 976.33 499.92 985.554C511.767 994.778 501.895 1000.6 499.92 999.99C497.946 999.384 489.851 998.699 488.963 1000.03C488.074 1001.36 481.493 996.748 481.493 996.748V996.755Z" fill="#7F99AD"/>
<path d="M487.113 995.622C487.113 995.622 491.345 982.477 498.973 988.414C506.594 994.35 500.243 998.092 498.973 997.704C497.703 997.315 492.49 996.873 491.924 997.73C491.358 998.586 487.12 995.622 487.12 995.622H487.113Z" fill="#57758F"/>
<path d="M481.493 996.755C481.493 996.755 488.074 976.33 499.92 985.554C511.767 994.778 501.895 1000.6 499.92 999.99C497.946 999.384 489.851 998.699 488.963 1000.03C488.074 1001.36 481.493 996.748 481.493 996.748V996.755Z" stroke="black" stroke-width="4" stroke-linecap="round" stroke-linejoin="round"/>
<path d="M499.92 992.143C498.301 993.467 496.412 993.671 494.497 993.23C494.195 993.157 493.892 993.138 493.576 993.197C493.418 992.426 494.116 991.728 494.701 991.359C496.426 990.377 498.558 990.621 499.927 992.136L499.92 992.143Z" fill="black"/>
<path d="M84.1716 618.469C84.1716 619.043 84.1651 619.609 84.1453 620.176C83.8887 629.051 81.6247 637.412 77.8076 644.837C77.8076 644.837 77.801 644.837 77.7944 644.844C68.245 663.417 48.8962 676.12 26.5858 676.12C9.7905 676.12 -5.33318 668.919 -15.8566 657.428C-20.1015 652.796 -23.6027 647.466 -26.1628 641.622C-27.3935 638.822 -28.407 635.896 -29.1836 632.885C-29.7693 630.612 -30.2168 628.287 -30.5262 625.915C-30.8355 623.477 -31 620.993 -31 618.469C-31 611.229 -29.664 604.304 -27.229 597.92C-25.3994 593.116 -22.9511 588.623 -19.9633 584.538C-11.7828 573.298 0.366173 565.134 14.4303 562.11C18.3461 561.26 22.4133 560.819 26.5858 560.819C30.9623 560.819 35.227 561.306 39.3205 562.235C45.599 563.652 51.4826 566.096 56.7937 569.384C61.0452 572.006 64.9215 575.169 68.3438 578.773C72.4965 583.148 75.9714 588.181 78.5908 593.696C81.164 599.086 82.9146 604.936 83.7044 611.09C84.0137 613.502 84.1716 615.966 84.1716 618.469Z" fill="#7693A8"/>
<path d="M28.8893 668.872C55.0593 668.872 76.2742 647.634 76.2742 621.434C76.2742 595.235 55.0593 573.996 28.8893 573.996C2.71934 573.996 -18.4956 595.235 -18.4956 621.434C-18.4956 647.634 2.71934 668.872 28.8893 668.872Z" fill="#57758F"/>
<path d="M84.1454 620.182C83.8887 629.051 81.6248 637.412 77.8077 644.837C77.8077 644.837 77.8011 644.837 77.7945 644.844C77.4457 645.061 69.5087 649.917 63.1776 654.173C60.3937 656.044 57.9126 657.797 56.5305 658.99C51.9236 662.943 44.0262 668.873 37.4449 664.26C30.8637 659.648 13.7525 663.602 13.7525 663.602C13.7525 663.602 8.23082 655.083 17.8987 655.386C27.5731 655.695 21.65 659.648 36.7868 653.719C51.9236 647.789 53.898 637.247 59.8211 633.953C65.7442 630.658 65.0861 631.317 71.0092 630C72.2333 629.729 73.951 628.702 75.9188 627.245C78.4395 625.374 81.3615 622.792 84.1454 620.182Z" fill="#957BAA"/>
<path d="M83.7043 611.09C81.1837 613.067 78.5907 614.595 75.9516 615.887C72.536 617.56 69.0479 618.845 65.5467 620.229C59.1629 622.752 49.291 622.752 46.6585 631.317C44.026 639.882 40.0773 641.2 36.7867 641.2C33.4961 641.2 16.3849 647.789 14.4105 647.13C12.4361 646.471 -0.0682373 645.812 -3.35886 650.424C-4.21442 651.623 -5.16212 652.572 -6.17562 653.336C-9.04504 655.517 -12.4475 656.275 -15.8566 657.428C-20.1015 652.796 -23.6027 647.466 -26.1628 641.622C-23.5106 642.057 -18.7853 642.63 -13.698 642.248C-11.592 642.083 -9.42018 641.76 -7.3076 641.2C2.56426 638.565 5.34812 630.401 12.1794 629.538C19.0173 628.682 24.5917 627.509 27.0662 627.766C29.5473 628.023 28.8892 617.481 36.1286 616.163C43.3679 614.846 46.6585 614.187 51.2654 613.528C55.8723 612.869 56.0697 612.869 60.9069 609.575C65.573 606.399 69.4099 602.604 71.4501 600.568L71.6672 600.351C72.5491 599.468 75.5502 596.595 78.5907 593.696C81.164 599.086 82.9146 604.936 83.7043 611.09Z" fill="#957BAA"/>
<path d="M36.1484 609.608C35.5363 610.115 27.3229 616.796 20.9918 616.163C14.4106 615.505 17.0431 616.163 5.79572 620.229C-4.32622 623.899 -6.31375 627.812 -17.5545 630.882C-18.7918 631.219 -20.1409 631.548 -21.6283 631.864C-24.195 632.404 -26.7353 632.727 -29.1836 632.885C-29.7693 630.612 -30.2168 628.287 -30.5261 625.915C-28.2293 625.803 -23.5632 625.5 -18.3772 624.781C-16.9095 624.577 -15.4024 624.34 -13.8888 624.07C-6.64939 622.752 1.90621 620.776 5.85495 615.505C9.8037 610.234 10.4618 612.21 12.1795 612.27C13.9038 612.322 23.6243 612.869 29.5474 611.551C34.7334 610.398 35.9246 609.753 36.1484 609.608Z" fill="#957BAA"/>
<path d="M68.3438 578.773C66.0798 581.632 63.7698 584.538 62.1969 586.515C62.0192 586.739 61.8415 586.956 61.6572 587.167C57.5242 592.003 52.0816 594.447 40.7355 595.08C29.0736 595.725 19.9651 602.762 19.6821 602.98C19.7348 602.821 21.6697 597.702 22.9662 597.056C24.2824 596.398 32.838 587.173 36.1879 582.891C39.5311 578.608 46.0005 582.561 52.5817 580.585C52.6739 580.558 52.7594 580.532 52.845 580.499C59.0971 578.358 56.7937 569.384 56.7937 569.384C61.0452 572.006 64.9215 575.169 68.3438 578.773Z" fill="#957BAA"/>
<path d="M39.3205 562.235C37.1947 564.39 33.4829 567.612 27.0662 572.046C25.9342 572.83 24.8549 573.568 23.8151 574.266C12.6072 581.81 6.32872 584.933 -2.70073 589.15C-4.41185 589.947 -6.06374 590.626 -7.64324 591.219C-15.2117 594.052 -21.2664 594.876 -25.0769 597.056C-25.7022 597.412 -26.4261 597.695 -27.229 597.919C-25.3994 593.116 -22.9512 588.623 -19.9633 584.538L4.53863 575.973C4.53863 575.973 7.87532 566.037 14.4302 562.11C18.3461 561.26 22.4133 560.819 26.5858 560.819C30.9623 560.819 35.2269 561.306 39.3205 562.235Z" fill="#957BAA"/>
<path d="M71.0092 630.658C72.2333 630.388 73.6483 629.479 75.6161 628.023C74.3525 638.407 69.9694 646.524 63.1117 653.719C60.3279 655.59 57.2544 657.138 55.8724 658.331C51.2655 662.284 44.0261 668.214 37.4449 663.602C30.8637 658.99 13.7524 662.943 13.7524 662.943C13.7524 662.943 8.69147 656.051 18.3593 656.354C28.0337 656.664 21.6499 659.648 36.7868 653.719C51.9236 647.789 54.5561 638.565 60.4792 635.27C66.4024 631.976 65.0861 631.976 71.0092 630.658Z" fill="#79598E"/>
<path d="M-2.70056 588.491C-4.41168 589.288 -6.06357 589.967 -7.64307 590.56C0.0372334 581.27 11.1858 574.952 23.8152 573.607C12.6074 581.151 6.32889 584.274 -2.70056 588.491Z" fill="#79598E"/>
<path d="M5.79548 620.229C-4.32646 623.898 -6.59699 626.929 -17.8377 630C-18.2392 628.01 -17.693 627.463 -17.8377 625.387C-16.3701 625.183 -14.7446 624.999 -13.2309 624.729C-5.99151 623.411 2.56409 621.434 6.51284 616.163C10.4616 610.893 10.7182 612.81 12.436 612.869C14.1602 612.922 22.9659 613.528 28.889 612.21C34.0751 611.057 35.9244 609.753 36.1481 609.608C35.5361 610.115 27.3227 616.137 20.9916 615.505C14.4103 614.846 17.0428 616.163 5.79548 620.229Z" fill="#79598E"/>
<path d="M24.2824 597.056C25.5987 596.398 33.4369 588.162 36.7868 583.879C40.13 579.597 46.0005 583.22 52.5817 581.244C52.6739 581.217 53.1543 581.277 53.2398 581.244C56.4383 583.121 58.4785 584.63 61.1373 587.173C57.0043 592.009 51.4234 593.788 40.0774 594.421C28.4154 595.067 19.9651 602.762 19.6821 602.98C19.7348 602.821 22.9859 597.702 24.2824 597.056Z" fill="#79598E"/>
<path d="M75.616 615.504C72.2003 617.178 69.0479 618.845 65.5467 620.229C59.1629 622.752 49.291 622.752 46.6586 631.317C44.0261 639.882 40.0773 641.2 36.7867 641.2C33.4961 641.2 16.3849 647.789 14.4105 647.13C12.4361 646.471 -0.0682373 645.153 -3.35886 649.765C-4.21442 650.964 -5.63596 651.637 -6.64948 652.401C-9.65052 649.1 -11.2563 647.235 -13.2307 643.177C-11.1247 643.012 -8.76205 642.419 -6.64948 641.859C3.22238 639.224 6.26291 630.863 13.0942 629.999C19.9321 629.143 25.0984 628.425 27.573 628.682C30.0541 628.939 30.8636 618.14 38.1029 616.822C45.3423 615.504 46.6586 614.187 51.2654 613.528C55.8723 612.869 56.9582 614.187 61.7954 610.892C66.4615 607.717 69.6271 603.045 71.6673 601.009C73.9838 605.727 74.9842 610.062 75.616 615.504Z" fill="#79598E"/>
<path d="M26.5858 676.12C58.3896 676.12 84.1716 650.309 84.1716 618.469C84.1716 586.63 58.3896 560.819 26.5858 560.819C-5.21795 560.819 -31 586.63 -31 618.469C-31 650.309 -5.21795 676.12 26.5858 676.12Z" stroke="black" stroke-width="4" stroke-linecap="round" stroke-linejoin="round"/>
<path d="M37.9384 559.929C30.5938 549.77 19.3662 535.756 7.77661 530.841C-1.52268 526.874 -10.9733 530.32 -16.2054 538.813C-18.2719 542.496 -18.963 546.864 -19.4895 551.041C-20.2726 557.999 -20.0489 565.069 -19.4631 572.053C-15.0142 613.943 4.12402 666.033 33.1341 697.013C35.5626 699.536 38.1161 701.928 40.8407 704.076C44.875 707.199 49.2976 710.058 54.3323 710.882C63.7632 712.153 69.5284 704.86 72.095 696.578C74.2603 689.93 74.9842 682.807 75.2211 675.731C75.3001 668.648 75.412 661.447 74.0497 654.47C74.5498 656.183 74.846 657.948 75.1158 659.714C76.669 672.121 77.2481 684.962 73.951 697.151C71.3645 706.625 64.7241 714.775 53.9703 713.596C48.3631 712.832 43.3679 709.794 38.9651 706.527C7.25011 680.897 -11.717 632.813 -19.8975 593.709C-22.9117 577.982 -26.3076 551.746 -18.5352 537.357C-14.9681 531.822 -9.01871 527.625 -2.3585 527.085C14.3644 525.464 29.8698 547.385 37.9516 559.929H37.9384Z" fill="white"/>
<path d="M568.365 956.564C568.365 931.092 588.991 910.444 614.434 910.444C618.034 910.444 621.535 910.859 624.898 911.636C630.762 913.007 636.205 915.491 640.969 918.864C647.314 923.344 652.48 929.393 655.902 936.443C658.844 942.524 660.502 949.35 660.502 956.564C660.502 982.036 639.877 1002.68 614.434 1002.68C608.682 1002.68 603.18 1001.63 598.106 999.7H598.099C595.467 998.699 592.953 997.466 590.577 996.023C585.884 993.177 581.738 989.507 578.342 985.225C572.097 977.351 568.365 967.396 568.365 956.564Z" fill="#3695B2"/>
<path d="M617.724 996.755C638.806 996.755 655.896 979.646 655.896 958.541C655.896 937.436 638.806 920.327 617.724 920.327C596.643 920.327 579.553 937.436 579.553 958.541C579.553 979.646 596.643 996.755 617.724 996.755Z" fill="#277DA0"/>
<path d="M635.494 936.798C635.494 938.775 624.799 942.985 620.936 947.142C617.066 951.293 613.118 952.611 614.434 956.564C615.75 960.517 620.357 963.752 614.434 963.127C608.511 962.494 606.536 964.471 604.562 965.129C602.588 965.788 599.955 973.036 597.981 969.083C596.006 965.129 599.613 957.882 601.1 956.564C602.588 955.246 591.4 956.564 591.4 953.929C591.4 951.293 601.502 940.751 596.118 944.046C590.741 947.34 582.844 954.588 583.502 957.882C584.16 961.176 592.058 963.812 588.767 969.083C586.99 971.922 586.148 976.541 585.444 978.939C584.851 980.988 584.351 981.417 583.463 977.733C583.101 976.231 582.804 974.782 582.548 973.411C582.548 973.405 582.541 973.398 582.548 973.392C581.62 968.444 581.185 964.53 579.823 963.067C579.553 962.777 579.251 962.58 578.895 962.494C576.263 961.835 572.972 965.129 574.288 968.424C575.605 971.718 578.237 976.33 578.895 979.624C579.112 980.698 578.836 982.826 578.342 985.225C572.097 977.351 568.365 967.396 568.365 956.564C568.365 931.093 588.991 910.444 614.434 910.444C618.034 910.444 621.535 910.859 624.898 911.636L612.459 919.668C612.459 919.668 611.13 920.274 609.709 921.17C609.702 921.17 609.702 921.177 609.702 921.177C607.82 922.376 605.786 924.095 606.536 925.598C607.589 927.713 615 924.741 617.547 923.14C617.645 923.746 618.593 924.306 621.673 923.621C623.838 923.14 625.556 922.224 626.905 921.44C629.255 920.076 630.466 919.134 630.887 921.644C630.946 922.007 630.966 922.349 630.953 922.685C630.821 926.059 627.175 928.292 622.989 928.892C618.383 929.551 606.214 930.895 606.378 936.482C606.536 942.069 613.118 946.022 612.459 945.363C611.801 944.705 615.092 938.116 617.724 938.116C620.357 938.116 628.254 938.116 630.229 936.798C632.203 935.481 635.494 934.822 635.494 936.798Z" fill="#D8D8D8"/>
<path d="M655.902 936.442C655.646 938.103 655.402 939.612 655.238 940.751C654.81 943.743 654.658 945.62 654.25 947.412C654.027 948.381 653.724 949.323 653.263 950.404C651.947 953.467 649.973 952.611 647.998 955.246C646.024 957.882 646.024 957.882 644.708 963.153C643.391 968.424 640.759 964.47 639.443 964.47C638.126 964.47 626.938 975.671 626.28 975.671C625.622 975.671 626.938 969.083 630.887 963.812C634.836 958.541 637.468 955.246 639.443 954.588C641.417 953.929 644.05 947.34 647.998 942.069C651.947 936.798 648.044 937.451 643.47 930.328H643.464C643.437 930.289 643.418 930.249 643.391 930.21C641.206 926.777 640.798 922.455 640.97 918.864C647.314 923.344 652.48 929.393 655.902 936.442Z" fill="#D8D8D8"/>
<path d="M617.724 980.942C617.724 982.919 619.041 990.166 618.382 992.802C618.04 994.165 616.118 995.351 613.703 996.544C611.452 997.657 608.761 998.778 606.536 1000.05C601.929 1002.68 603.246 999.39 598.106 999.7H598.099C595.467 998.699 592.952 997.466 590.577 996.023C591.663 994.33 592.301 992.215 594.032 990.825C594.558 990.403 595.072 990.015 595.565 989.659C598.185 987.788 600.481 986.766 603.246 986.213C606.536 985.554 606.536 984.236 611.143 978.965C615.75 973.695 613.776 973.036 613.776 973.036C613.776 973.036 620.357 973.695 620.357 976.33C620.357 978.965 617.724 978.965 617.724 980.942Z" fill="#D8D8D8"/>
<path d="M646.024 973.695C646.024 973.695 646.024 977.648 644.707 980.283C643.391 982.919 641.417 987.531 640.101 988.19C638.784 988.848 639.442 990.166 637.468 990.166C635.494 990.166 634.836 991.484 633.519 991.484C632.203 991.484 631.144 990.166 632.006 989.507C632.868 988.848 635.494 988.19 637.468 986.872C639.442 985.554 640.384 983.637 641.555 980.31C642.726 976.982 646.024 973.695 646.024 973.695Z" fill="#ADA8B2"/>
<path d="M568.365 956.564C568.365 931.092 588.991 910.444 614.434 910.444C618.034 910.444 621.535 910.859 624.898 911.636C630.762 913.007 636.205 915.491 640.969 918.864C647.314 923.344 652.48 929.393 655.902 936.443C658.844 942.524 660.502 949.35 660.502 956.564C660.502 982.036 639.877 1002.68 614.434 1002.68C608.682 1002.68 603.18 1001.63 598.106 999.7H598.099C595.467 998.699 592.953 997.466 590.577 996.023C585.884 993.177 581.738 989.507 578.342 985.225C572.097 977.351 568.365 967.396 568.365 956.564V956.564Z" stroke="black" stroke-width="4" stroke-miterlimit="10"/>
<path d="M620.837 940.929C620.738 940.369 621.357 939.776 621.673 940.092C621.805 940.224 621.469 940.534 620.837 940.929Z" fill="#ADA8B2"/>
<path d="M620.357 976.33C620.357 978.965 617.724 978.965 617.724 980.942C617.724 982.919 619.041 990.166 618.383 992.802C618.04 994.165 616.119 995.351 613.703 996.544C606.984 995.839 600.784 993.395 595.565 989.659C598.185 987.788 600.482 986.766 603.246 986.213C606.536 985.554 606.536 984.236 611.143 978.965C615.75 973.695 613.776 973.036 613.776 973.036C613.776 973.036 620.357 973.695 620.357 976.33Z" fill="#ADA8B2"/>
<path d="M635.494 936.798C635.494 938.775 624.799 942.985 620.936 947.142C617.066 951.293 613.117 952.611 614.434 956.564C615.75 960.517 620.357 963.752 614.434 963.126C608.511 962.494 606.536 964.471 604.562 965.129C602.588 965.788 599.955 973.036 597.981 969.083C596.006 965.129 599.613 957.882 601.1 956.564C602.588 955.246 591.399 956.564 591.399 953.929C591.399 951.293 601.502 940.751 596.118 944.046C590.741 947.34 582.844 954.588 583.502 957.882C584.16 961.176 592.058 963.812 588.767 969.083C586.99 971.922 586.148 976.541 585.443 978.939C584.331 977.187 583.364 975.342 582.548 973.411C582.548 973.405 582.541 973.398 582.548 973.392C581.62 968.443 581.185 964.53 579.823 963.067C579.645 961.585 579.553 960.069 579.553 958.541C579.553 940.191 592.472 924.86 609.702 921.177C607.82 922.376 605.786 924.095 606.536 925.598C607.589 927.713 615 924.741 617.547 923.14C617.645 923.746 618.593 924.306 621.673 923.621C623.838 923.14 625.556 922.224 626.905 921.44C628.287 921.783 629.636 922.198 630.953 922.685C630.821 926.059 627.175 928.292 622.989 928.892C618.382 929.551 606.214 930.895 606.378 936.482C606.536 942.069 613.117 946.022 612.459 945.363C611.801 944.705 615.092 938.116 617.724 938.116C620.357 938.116 628.254 938.116 630.229 936.798C632.203 935.481 635.494 934.822 635.494 936.798Z" fill="#ADA8B2"/>
<path d="M654.25 947.412C654.027 948.381 653.724 949.323 653.263 950.404C651.947 953.467 649.973 952.611 647.998 955.246C646.024 957.882 646.024 957.882 644.708 963.153C643.391 968.424 640.759 964.47 639.443 964.47C638.126 964.47 626.938 975.671 626.28 975.671C625.622 975.671 626.938 969.083 630.887 963.812C634.836 958.541 637.468 955.246 639.443 954.588C641.417 953.929 644.05 947.34 647.998 942.069C651.947 936.798 648.044 937.451 643.47 930.328C648.459 934.894 652.237 940.771 654.25 947.412Z" fill="#ADA8B2"/>
<path d="M739.052 470.567C739.052 471.931 738.979 473.275 738.828 474.599C737.36 488.014 728.64 499.247 716.682 504.287C714.497 505.203 712.2 505.921 709.824 506.402C707.468 506.883 705.027 507.134 702.526 507.134C699.104 507.134 695.793 506.666 692.654 505.777C677.274 501.468 666 487.335 666 470.567C666 464.993 667.244 459.715 669.475 454.985C672.344 448.89 676.846 443.718 682.42 440.035C688.185 436.22 695.102 434 702.526 434C712.457 434 721.473 437.973 728.055 444.423C733.629 449.872 737.466 457.1 738.657 465.184C738.92 466.943 739.052 468.735 739.052 470.567Z" fill="#7693A8"/>
<path d="M704.171 501.863C720.527 501.863 733.787 488.589 733.787 472.214C733.787 455.839 720.527 442.565 704.171 442.565C687.815 442.565 674.556 455.839 674.556 472.214C674.556 488.589 687.815 501.863 704.171 501.863Z" fill="#57758F"/>
<path d="M706.146 496.592C706.146 496.592 702.197 495.959 702.526 498.252C702.618 498.911 701.322 500.11 699.413 501.481C697.504 502.858 694.984 504.413 692.654 505.777C677.274 501.468 666 487.335 666 470.567C666 464.993 667.244 459.715 669.475 454.985L670.607 459.696C670.607 459.696 680.992 452.448 681.394 453.107C681.407 453.127 681.426 453.153 681.453 453.193C682.394 454.326 691.588 463.089 689.034 466.284C686.402 469.579 687.06 472.873 687.06 472.873C687.06 472.873 693.641 465.625 694.957 472.873C696.274 480.12 691.667 480.779 692.983 485.391C694.299 490.003 697.59 485.563 702.526 488.112C707.462 490.662 706.146 496.592 706.146 496.592Z" fill="#D8D8D8"/>
<path d="M728.055 444.423C727.14 446.387 726.146 448.034 725.231 448.495C724.665 448.778 723.909 449.095 723.027 449.352C719.822 450.3 714.879 450.511 710.753 445.86C705.488 439.93 697.59 446.518 697.59 446.518C697.59 446.518 693.944 446.518 690.061 446.136C689.278 446.064 688.488 445.972 687.718 445.86C685.685 445.57 683.842 442.908 682.42 440.035C688.186 436.22 695.102 434 702.526 434C712.457 434 721.474 437.973 728.055 444.423Z" fill="#D8D8D8"/>
<path d="M739.052 470.567C739.052 471.931 738.979 473.275 738.828 474.599C736.906 475.976 734.905 477.261 733.155 478.322C731.694 479.218 730.404 479.949 729.463 480.45C725.145 482.756 722.598 486.709 719.308 493.298C718.465 494.978 717.88 496.856 717.472 498.714C717.037 500.67 716.8 502.607 716.682 504.288C714.497 505.203 712.2 505.921 709.824 506.402C709.719 504.703 709.627 502.937 709.555 501.375C709.482 499.61 709.436 498.101 709.436 497.251C709.436 493.957 712.727 486.05 715.359 483.415C717.992 480.779 718.65 476.167 716.55 472.642C714.451 469.117 719.966 467.602 723.257 467.602C725.79 467.602 729.496 466.818 733.168 466.159C734.267 465.961 735.36 465.777 736.419 465.625C737.117 465.527 737.874 465.368 738.657 465.184C738.92 466.943 739.052 468.735 739.052 470.567Z" fill="#D8D8D8"/>
<path d="M739.052 470.567C739.052 471.931 738.979 473.275 738.828 474.599C737.36 488.014 728.64 499.247 716.682 504.287C714.497 505.203 712.2 505.921 709.824 506.402C707.468 506.883 705.027 507.134 702.526 507.134C699.104 507.134 695.793 506.666 692.654 505.777C677.274 501.468 666 487.335 666 470.567C666 464.993 667.244 459.715 669.475 454.985C672.344 448.89 676.846 443.718 682.42 440.035C688.185 436.22 695.102 434 702.526 434C712.457 434 721.473 437.973 728.055 444.423C733.629 449.872 737.466 457.1 738.657 465.184C738.92 466.943 739.052 468.735 739.052 470.567V470.567Z" stroke="black" stroke-width="4" stroke-miterlimit="10"/>
<path d="M706.146 496.592C706.146 496.592 702.197 495.959 702.526 498.252C702.618 498.911 701.322 500.11 699.413 501.481C685.316 499.201 674.556 486.966 674.556 472.214C674.556 464.98 677.149 458.338 681.453 453.193C682.394 454.326 691.588 463.089 689.034 466.284C686.402 469.579 687.06 472.873 687.06 472.873C687.06 472.873 693.641 465.625 694.958 472.873C696.274 480.12 691.667 480.779 692.983 485.391C694.299 490.003 697.59 485.563 702.526 488.112C707.462 490.662 706.146 496.592 706.146 496.592Z" fill="#ADA8B2"/>
<path d="M697.59 446.518C697.59 446.518 693.944 446.518 690.061 446.136C694.26 443.863 699.064 442.565 704.171 442.565C711.332 442.565 717.9 445.115 723.026 449.352C719.821 450.3 714.879 450.511 710.752 445.86C705.487 439.93 697.59 446.518 697.59 446.518Z" fill="#ADA8B2"/>
<path d="M733.787 472.214C733.787 474.309 733.569 476.352 733.155 478.322C731.694 479.218 730.404 479.949 729.463 480.45C725.145 482.756 722.598 486.709 719.308 493.298C718.465 494.978 717.88 496.856 717.472 498.714C715.01 499.952 712.352 500.861 709.555 501.375C709.482 499.61 709.436 498.101 709.436 497.251C709.436 493.957 712.727 486.05 715.359 483.415C717.992 480.779 718.65 476.167 716.55 472.642C714.451 469.117 719.966 467.602 723.257 467.602C725.79 467.602 729.496 466.818 733.168 466.159C733.576 468.116 733.787 470.139 733.787 472.214Z" fill="#ADA8B2"/>
<path d="M226.141 451.216C235.228 451.216 242.594 443.841 242.594 434.744C242.594 425.647 235.228 418.273 226.141 418.273C217.054 418.273 209.688 425.647 209.688 434.744C209.688 443.841 217.054 451.216 226.141 451.216Z" fill="#3695B2"/>
<path d="M226.141 451.216C235.228 451.216 242.594 443.841 242.594 434.744C242.594 425.647 235.228 418.273 226.141 418.273C217.054 418.273 209.688 425.647 209.688 434.744C209.688 443.841 217.054 451.216 226.141 451.216Z" stroke="black" stroke-width="3" stroke-linecap="round" stroke-linejoin="round"/>
<path d="M227.457 447.922C234 447.922 239.303 442.612 239.303 436.062C239.303 429.512 234 424.203 227.457 424.203C220.915 424.203 215.611 429.512 215.611 436.062C215.611 442.612 220.915 447.922 227.457 447.922Z" fill="#277DA0"/>
<path d="M-0.0101545 414.089C33.2777 430.607 73.4891 451.407 106.81 468.129C128.061 478.954 149.108 490.919 169.147 503.866L168.904 504.333C161.5 501.263 154.234 497.936 147.015 494.516C132.812 487.776 118.077 480.417 104.375 472.741C90.291 464.789 56.1475 446.004 41.5438 437.933C27.6113 430.139 13.6459 422.41 -0.253662 414.557L-0.0101545 414.089Z" fill="#F8834A"/>
<path d="M654.31 657.427C669.795 664.78 686.696 673.016 702.096 680.698C710.033 684.625 718.148 688.209 725.802 692.683C733.489 697.163 741.05 701.815 748.152 707.231L747.908 707.698C743.643 706.288 739.517 704.628 735.437 702.876C727.289 699.37 719.286 695.562 711.619 691.088C707.802 688.842 703.965 686.621 700.122 684.421C694.356 681.179 682.76 674.577 677.028 671.27C669.374 666.803 661.681 662.408 654.06 657.888L654.303 657.42L654.31 657.427Z" fill="#F8834A"/>
<path d="M531.839 481.629C543.686 487.585 567.411 499.656 579.191 505.717C591.057 511.686 602.897 517.709 614.322 524.508C618.152 526.735 621.936 529.048 625.681 531.439C625.74 531.479 625.76 531.558 625.721 531.624C625.688 531.676 625.615 531.696 625.556 531.676C621.476 529.917 617.441 528.079 613.453 526.155C601.423 520.502 589.8 514.072 578.204 507.588C566.601 501.237 543.258 488.33 531.714 481.873C531.648 481.84 531.629 481.754 531.662 481.695C531.695 481.636 531.774 481.609 531.839 481.642V481.629Z" fill="white"/>
<path d="M574.188 199.023C583.23 203.411 596.294 209.966 605.416 214.552C613.254 218.38 621.059 222.267 628.457 226.925C630.938 228.447 633.393 230.015 635.782 231.715C635.841 231.755 635.854 231.84 635.815 231.9C635.782 231.952 635.716 231.966 635.657 231.946C632.912 230.918 630.24 229.765 627.588 228.559C619.585 225.048 611.997 220.758 604.429 216.41C595.485 211.409 582.816 204.313 574.063 199.247C573.925 199.174 574.036 198.937 574.188 199.016V199.023Z" fill="white"/>
<path d="M95.125 20C101.417 22.9254 110.486 27.3595 116.81 30.4693C122.266 33.0323 127.689 35.648 132.691 39.0412C134.376 40.1415 136.041 41.2879 137.633 42.5661L137.508 42.7967C129.802 40.3391 122.714 36.4848 115.823 32.3273C109.683 28.8156 100.989 23.8214 95 20.2306L95.125 20V20Z" fill="#F8834A"/>
<path d="M370.658 862.333C387.842 870.589 406.605 879.813 423.709 888.398C428.125 890.579 432.548 892.747 436.99 894.881C445.862 899.19 454.378 904.145 462.73 909.396C466.909 912.025 471.035 914.753 475.03 917.724C475.148 917.81 475.175 917.981 475.083 918.1C475.01 918.198 474.885 918.231 474.78 918.192C470.074 916.551 465.507 914.654 460.992 912.671C451.963 908.698 443.085 904.422 434.542 899.487C430.284 897.003 426.013 894.558 421.728 892.121C415.305 888.53 402.393 881.23 396.002 877.573C387.473 872.645 378.904 867.782 370.401 862.795C370.276 862.722 370.237 862.557 370.309 862.432C370.382 862.314 370.526 862.268 370.652 862.327L370.658 862.333Z" fill="white"/>
<path d="M-27.5066 835.979C-16.7989 840.802 -5.13699 846.251 5.47196 851.396C8.20317 852.721 10.9739 853.953 13.738 855.218C19.2728 857.754 24.4391 860.937 29.4474 864.402C31.9483 866.155 34.4031 867.986 36.7263 870.075C36.8381 870.174 36.8447 870.345 36.746 870.457C36.6736 870.536 36.5749 870.563 36.4762 870.536C33.4488 869.785 30.5531 868.777 27.6968 867.69C22.0238 865.483 16.489 862.992 11.2898 859.83C8.69677 858.249 6.11692 856.647 3.49759 855.126C-0.424826 852.859 -8.30256 848.234 -12.1921 845.908C-17.3781 842.752 -22.6036 839.669 -27.7567 836.453C-27.8817 836.374 -27.9212 836.216 -27.8423 836.091C-27.7699 835.979 -27.6317 835.939 -27.5132 835.992L-27.5066 835.979Z" fill="white"/>
</svg>
