<?xml version="1.0" encoding="utf-8"?>
<!-- Generator: Adobe Illustrator 16.0.0, SVG Export Plug-In . SVG Version: 6.00 Build 0)  -->
<!DOCTYPE svg PUBLIC "-//W3C//DTD SVG 1.1//EN" "http://www.w3.org/Graphics/SVG/1.1/DTD/svg11.dtd">
<svg version="1.1" id="Layer_1" xmlns="http://www.w3.org/2000/svg" xmlns:xlink="http://www.w3.org/1999/xlink" x="0px" y="0px"
	 width="1340px" height="1525px" viewBox="22 0 1340 1525" enable-background="new 22 0 1340 1525" xml:space="preserve">
<path fill="#3695B2" d="M663,1400.84c-40.79,0-79.77-7.729-115.56-21.8C430.08,1332.91,347,1218.57,347,1084.84
	c0-43.07,8.62-84.14,24.23-121.55C418.85,849.1,531.55,768.84,663,768.84c55.16,0,107.03,14.141,152.16,38.99
	c29.72,16.35,56.52,37.35,79.42,62.01c52.39,56.4,84.42,131.96,84.42,215c0,23.83-2.64,47.051-7.64,69.37
	c-5.771,25.771-14.69,50.351-26.341,73.32C892.89,1330.36,786.18,1400.84,663,1400.84z"/>
<path fill="#277DA0" d="M678,1376.84c152.983,0,277-124.02,277-277c0-152.982-124.017-277-277-277s-277,124.018-277,277
	C401,1252.82,525.017,1376.84,678,1376.84z"/>
<path fill="#957BAA" d="M815.16,807.83c-8.391-0.38-16.48-1-23.16-1.99c-20.83-3.09-55.95,12.88-70.91,20.34
	c-4.43,2.2-7.09,3.66-7.09,3.66l-10.83-5.87L690,816.84c0,0,35-1,25.13-18s-84.13-3-96.13,0s-65,40-38,30
	c14.62-5.41,29.23-4.09,42.72-0.67c11.42,2.88,22.04,7.27,31.15,10.32c19.87,6.65,27.13,49.35,40.13,45.35s22,28,22,28s-21,15-19,36
	s49,65,43,61s-95,27-120.33,46.04c-25.34,19.05-55.67,47.96-55.02,16.57c0.649-31.39,33.35-44.61,48.35-76.04
	c15-31.44,0-57.57,0-57.57s-31,49-31,59s-13,64-37.01,60.391c-24.01-3.61-42.99,92.609-42.99,96.609s-44,55-44,51s17-76,16-82
	s-24-11-15-44s-2-52-6-54s-17,54-27,54c-6.33,0-16.66-6.81-22.88-20.67c-3.62-8.04-5.851-18.47-5.12-31.33c2-35,27-30,15.5-53.35
	c-7.59-15.42-29.36-13.37-43.27-10.2C418.85,849.1,531.55,768.84,663,768.84C718.16,768.84,770.03,782.98,815.16,807.83z"/>
<path fill="#957BAA" d="M979,1084.84c0,23.83-2.64,47.051-7.64,69.37c-4.521-4.18-11.351-9.69-19.101-15.26
	c-15.67-11.261-35.12-22.771-46.96-24.11c-17.689-2-64.3,6-68.3,0s33-11,53-15s46-28,56-59.04c0.56-1.729,1.07-3.399,1.55-5.01
	c8.13-27.33,5.45-37.95,5.45-37.95s-6.09,7.84-11.71,15.69c-4.82,6.729-9.29,13.46-9.29,15.31c0,4-31,44-31,44s-33-14-50-14
	s-58.39,26-58.39,26s1.39-26,1.39-32s-11-18-5-38s27-1,56-15s24-47.09,24-47.09s-39,28.09-55,32.87c-16,4.79-50-4.78-50-4.78
	s23-6,43-13s38.43-79.35,38.43-79.35s2.811-1.48,7.261-3.631c10.01-4.81,28.34-12.939,41.89-15.02
	C946.97,926.24,979,1001.8,979,1084.84z"/>
<path fill="#957BAA" d="M945.02,1227.53c-52.13,102.83-158.84,173.31-282.02,173.31c-40.79,0-79.77-7.729-115.56-21.8
	c10.739-6.51,22.479-14.729,27.439-22.03c0.04-0.06,0.08-0.109,0.12-0.17c10-15,26,8,49,14s63-24,67.65-30c4.649-6-26.65,0-76.65,0
	c-25.85,0-59.19-2.14-86.46-7.74c-20.73-13.31-39.57-29.31-56.03-47.51c-4.529-17.21-5.64-31.2,6.49-32.32
	c17-1.56,27-27.43,41.26-48.209c14.26-20.771,49.23,0,49.23,0s-18.49,47.779-2.5,52.14s34.01,4.64,51.01,13.64s82-26,77-28
	s-83-13-83-13l16-73c0,0,19,3,35,3.7c16,0.69-12,25.3,0,30.8s45,8.5,60.35-13.18c15.351-21.68,29.65-0.32,40.65,0s47-1.32,41.52,0
	c-5.479,1.32-41.52,52.81-41.52,52.81l-51,25.87c0,0,8,3,39.7-8.26c31.689-11.26,36.3-36.74,54-59.74c17.689-23,55.3-2,68.08,0
	c6.14,0.96,30.399,14.771,53.97,28.86C934.29,1221.02,939.8,1224.35,945.02,1227.53z"/>
<path fill="#79598E" d="M738,1094.84c0,0,0,14-9,18s-22-4-31,1s-20,11-20,7s-9.17-12,5.91-26s25.78-12,34.43-10
	c8.65,2,19.65,10,19.65,10H738z"/>
<path fill="#79598E" d="M663,1097.67v14.09c0,0-4.96-1.09-6.48,0C655,1112.85,655,1101.5,663,1097.67z"/>
<path fill="none" stroke="#000000" stroke-width="8" stroke-miterlimit="10" d="M663,1400.84c174.521,0,316-141.479,316-316
	c0-174.521-141.479-316-316-316s-316,141.479-316,316C347,1259.36,488.479,1400.84,663,1400.84z"/>
<path fill="#79598E" d="M714,829.84l-10.83-5.87c6.03,0.54,12.01,1.28,17.92,2.21C716.66,828.38,714,829.84,714,829.84z"/>
<path fill="#79598E" d="M503,1153.84c0,4-44,55-44,51s17-76,16-82s-24-11-15-44s-2-52-6-54s-17,54-27,54c-6.33,0-14.78-10.14-21-24
	c17.4-115.39,101.39-198.439,215-221c11.42,2.88,23.89,6.95,33,10c19.87,6.65,29,50,42,46s21,22,21,22s-21,15-19,36s49,65,43,61
	s-95,27-120.33,46.04c-25.34,19.05-55.67,47.96-55.02,16.57c0.649-31.39,37.35-45.181,52.35-76.61c15-31.439-4-57-4-57s-31,49-31,59
	s-13,64-37.01,60.391C521.98,1053.62,503,1149.84,503,1153.84z"/>
<path fill="#79598E" d="M927,1220.84c-44.29,94.05-138.17,156-249,156c-36.45,0-71.25-7.04-103.12-19.83
	c0.04-0.06,1.08-0.109,1.12-0.17c9-13,25,8,48,14s63-24,67.65-30c4.649-6-24.65-5-74.65-5c-25.85,0-59.73,0.6-87-5
	c-20.73-13.31-37.54-29.8-54-48c-4.53-17.21-3.13-26.88,9-28c17-1.56,24.74-26.22,39-47c14.26-20.77,45.49-2.779,45.49-2.779
	s-18.49,47.779-2.5,52.14s34.01,4.64,51.01,13.64s82-26,77-28s-83-13-83-13l19-70c0,0,16,0,32,0.7c16,0.69-12,25.3,0,30.8
	s45,8.5,60.35-13.18c15.351-21.68,29.65-0.32,40.65,0s47-1.32,41.52,0c-5.479,1.32-41.52,52.81-41.52,52.81l-51,25.87
	c0,0,8,3,39.7-8.26c31.689-11.26,36.3-36.74,54-59.74c17.689-23,55.52,1,68.3,3C881.14,1192.8,903.43,1206.75,927,1220.84z"/>
<path fill="#79598E" d="M764,980.84c0,0,23-6,43-13s41-77,41-77s2.55-1.85,7-4c40.74,33.15,67.28,72.971,84,124
	c-4.82,6.73-9,15.15-9,17c0,4-29,45-29,45s-33-14-50-14s-58.39,26-58.39,26s1.39-26,1.39-32s-11-18-5-38s27-1,56-15s25-50,25-50
	s-40,31-56,35.78C798,990.41,764,980.84,764,980.84z"/>
<path fill="#79598E" d="M955,1099.84c0,13.28-1.19,22.221-3,35c-15.67-11.26-34.86-18.66-46.7-20c-17.689-2-64.3,6-68.3,0
	s33-11,53-15s47-23.96,57-55c0.56-1.73,1.52-4.39,2-6C953.87,1059.4,955,1077.79,955,1099.84z"/>
<path fill="#D8D8D8" d="M783.5,738.84c11.322,0,20.5-9.178,20.5-20.5s-9.178-20.5-20.5-20.5s-20.5,9.178-20.5,20.5
	S772.178,738.84,783.5,738.84z"/>
<path fill="#ADA8B2" d="M784,734.84c8.837,0,16-7.163,16-16s-7.163-16-16-16s-16,7.163-16,16S775.163,734.84,784,734.84z"/>
<path fill="#67626D" d="M794,728.84c0,1.66-1.34,3-3,3s-3-1.34-3-3c0-0.07,0-0.15,0.01-0.22c0.141,1.25,1.2,2.22,2.49,2.22
	c1.38,0,2.5-1.12,2.5-2.5c0-1.29-0.97-2.35-2.22-2.49c0.069-0.01,0.149-0.01,0.22-0.01C792.66,725.84,794,727.18,794,728.84z"/>
<path fill="#67626D" d="M797,717.84c0,2.76-2.24,5-5,5s-5-2.24-5-5c0-0.17,0.01-0.34,0.03-0.51c0.239,1.98,1.93,3.51,3.97,3.51
	c2.21,0,4-1.79,4-4c0-2.04-1.53-3.73-3.51-3.97c0.17-0.021,0.34-0.03,0.51-0.03C794.76,712.84,797,715.08,797,717.84z"/>
<path fill="#67626D" d="M780,723.34c0,1.93-1.57,3.5-3.5,3.5s-3.5-1.57-3.5-3.5c0-0.09,0-0.18,0.01-0.27
	c0.11,1.55,1.41,2.77,2.99,2.77c1.66,0,3-1.34,3-3s-1.22-2.88-2.77-2.99c0.09-0.01,0.18-0.01,0.27-0.01
	C778.43,719.84,780,721.41,780,723.34z"/>
<path fill="#67626D" d="M784,716.34c0,0.83-0.67,1.5-1.5,1.5s-1.5-0.67-1.5-1.5c0-0.1,0.01-0.189,0.03-0.279
	c0.1,0.449,0.5,0.779,0.97,0.779c0.55,0,1-0.449,1-1c0-0.47-0.33-0.87-0.78-0.97c0.09-0.021,0.181-0.03,0.28-0.03
	C783.33,714.84,784,715.51,784,716.34z"/>
<path fill="#67626D" d="M787,701.34c0,1.93-1.57,3.5-3.5,3.5s-3.5-1.57-3.5-3.5c0-0.18,0.01-0.359,0.05-0.529
	c0.22,1.159,1.23,2.029,2.45,2.029c1.38,0,2.5-1.12,2.5-2.5c0-1.22-0.87-2.23-2.03-2.449c0.17-0.041,0.351-0.051,0.53-0.051
	C785.43,697.84,787,699.41,787,701.34z"/>
<path fill="#67626D" d="M777,708.84c0,3.311-2.69,6-6,6s-6-2.689-6-6c0-0.09,0-0.18,0.01-0.26c0.12,2.93,2.53,5.26,5.49,5.26
	s5.5-2.46,5.5-5.5s-2.33-5.37-5.26-5.49c0.08-0.01,0.17-0.01,0.26-0.01C774.31,702.84,777,705.53,777,708.84z"/>
<path fill="#67626D" d="M780,733.84c0,0.551-0.45,1-1,1s-1-0.449-1-1c0-0.1,0.02-0.199,0.05-0.29c0.07,0.17,0.24,0.29,0.45,0.29
	c0.28,0,0.5-0.22,0.5-0.5c0-0.21-0.12-0.38-0.29-0.449c0.09-0.031,0.19-0.051,0.29-0.051C779.55,732.84,780,733.29,780,733.84z"/>
<path fill="#67626D" d="M795,707.34c0,0.83-0.67,1.5-1.5,1.5s-1.5-0.67-1.5-1.5c0-0.1,0.01-0.189,0.03-0.279
	c0.1,0.449,0.5,0.779,0.97,0.779c0.55,0,1-0.449,1-1c0-0.47-0.33-0.87-0.78-0.97c0.09-0.021,0.181-0.03,0.28-0.03
	C794.33,705.84,795,706.51,795,707.34z"/>
<path fill="none" stroke="#000000" stroke-width="4" stroke-linecap="round" stroke-linejoin="round" d="M783.5,738.84
	c11.322,0,20.5-9.178,20.5-20.5s-9.178-20.5-20.5-20.5s-20.5,9.178-20.5,20.5S772.178,738.84,783.5,738.84z"/>
<path fill="#7F99AD" d="M130,690.84c5-3,21,9.87,17,11.43c-4,1.561-18,6.431-17,0C131,695.84,130,690.84,130,690.84z"/>
<path fill="#57758F" d="M133.85,697.061c3.38-1.431,14.19,4.709,11.49,5.459c-2.7,0.75-12.17,3.07-11.49,0
	C134.53,699.45,133.85,697.061,133.85,697.061z"/>
<path fill="none" stroke="#000000" stroke-width="4" stroke-miterlimit="10" d="M130,690.84c5-3,21,9.87,17,11.43
	c-4,1.561-18,6.431-17,0C131,695.84,130,690.84,130,690.84z"/>
<path fill="#7F99AD" d="M60.96,726.561c-6.29-5.041-32.55-11.74-12.61-18.381c19.94-6.64,33.74,5.57,47.76-2.34
	s21.32,18.09,20.44,19.66c-0.88,1.57-28.82,15.859-34.47,13.109S60.96,726.561,60.96,726.561z"/>
<path fill="#57758F" d="M68.63,725.75c-5.09-3.92-26.09-9.47-10.37-14.09c15.72-4.62,26.92,4.85,37.9-0.84
	c10.98-5.69,17.29,14.05,16.62,15.21c-0.67,1.159-22.6,11.399-27.13,9.21c-4.53-2.19-17.01-9.49-17.01-9.49H68.63z"/>
<path fill="none" stroke="#000000" stroke-width="4" stroke-linecap="round" stroke-linejoin="round" d="M60.96,726.561
	c-6.29-5.041-32.55-11.74-12.61-18.381c19.94-6.64,33.74,5.57,47.76-2.34s21.32,18.09,20.44,19.66
	c-0.88,1.57-28.82,15.859-34.47,13.109S60.96,726.561,60.96,726.561L60.96,726.561z"/>
<path d="M66.34,718.7c2.4,2.569,4.82,4.01,7.97,2.84c3.28-1.04,5.21-2.47,5.02-6.42c1.75,1.37,2.34,3.979,1.36,6.08
	c-1.12,2.45-3.53,3.75-5.99,4.38c-4.44,1.14-8.8-2.471-8.35-6.891L66.34,718.7z"/>
<path d="M104.33,719.96c-1.1,0.28-1.8,0.62-2.07,0.96c-0.23,0.35-0.18,0.49-0.45,0.85c-0.22,0.32-0.47,0.681-0.77,0.891
	c-0.14,0.109-0.29,0.3-0.33,0.64c-0.06,0.36,0.02,0.78,0.19,1.341c-0.55,0.229-1.13,0.17-1.69-0.08c-1.2-0.511-1.71-2.301-1.38-3.48
	c0.58-3.33,5.42-4.83,6.5-1.13V719.96z"/>
<path fill="#7F99AD" d="M237.17,1410.189c0,0,5.09-26.609,10.96-25.979s24.87,3.63,29.87,19.63s-20,29-24,29
	s-16.83-22.66-16.83-22.66V1410.189z"/>
<path fill="#57758F" d="M244.84,1411.73c0,0,3.7-19.341,7.96-18.881c4.26,0.461,18.08,2.641,21.71,14.271
	c3.63,11.63-14.54,21.08-17.45,21.08s-12.23-16.47-12.23-16.47H244.84z"/>
<path fill="none" stroke="#000000" stroke-width="4" stroke-miterlimit="10" d="M237.17,1410.189c0,0,5.09-26.609,10.96-25.979
	s24.87,3.63,29.87,19.63s-20,29-24,29s-16.83-22.66-16.83-22.66V1410.189z"/>
<path d="M268,1400.84c-2.62-0.479-5.14-0.3-6.72,0.82c-3.09,2.37-4.65,7.42-2.74,10.9c0.94,1.81,3.03,3.149,5.46,4.279
	c-1.32,0.24-2.72,0.271-4.11-0.1C246.87,1412.77,257.16,1391.12,268,1400.84z"/>
<path d="M249,1392.84c3.61,1.42,1.77,7.311-2,6c0.04-1.54-0.23-2.08,0-3.22C247.4,1394.53,247.99,1393.93,249,1392.84z"/>
<path fill="#7F99AD" d="M824,1512.84c0,0,10-31,28-17s3,22.83,0,21.91s-15.3-1.96-16.65,0.061c-1.35,2.02-11.35-4.98-11.35-4.98
	V1512.84z"/>
<path fill="#57758F" d="M832.54,1511.12c0,0,6.43-19.95,18.02-10.94c11.58,9.01,1.931,14.69,0,14.101
	c-1.93-0.591-9.85-1.261-10.71,0.04c-0.859,1.3-7.3-3.2-7.3-3.2H832.54z"/>
<path fill="none" stroke="#000000" stroke-width="4" stroke-linecap="round" stroke-linejoin="round" d="M824,1512.84
	c0,0,10-31,28-17s3,22.83,0,21.91s-15.3-1.96-16.65,0.061c-1.35,2.02-11.35-4.98-11.35-4.98V1512.84z"/>
<path d="M852,1505.84c-2.46,2.01-5.33,2.32-8.24,1.65c-0.46-0.11-0.92-0.141-1.399-0.051c-0.24-1.17,0.819-2.229,1.71-2.789
	c2.62-1.49,5.859-1.12,7.939,1.18L852,1505.84z"/>
<path fill="#7F99AD" d="M1317,1161.84c0-3-2-26,12-25s28,15,29,29s-26,17-29,17S1317,1161.84,1317,1161.84z"/>
<path fill="#57758F" d="M1323.36,1162.32c0-2.21-1.48-19.19,8.859-18.45c10.341,0.739,20.66,11.069,21.4,21.399
	s-19.19,12.541-21.4,12.541s-8.859-15.5-8.859-15.5V1162.32z"/>
<path fill="none" stroke="#000000" stroke-width="4" stroke-linecap="round" stroke-linejoin="round" d="M1317,1161.84
	c0-3-2-26,12-25s28,15,29,29s-26,17-29,17S1317,1161.84,1317,1161.84z"/>
<path d="M1331,1148.84c1.98,0.4,3.07,1.95,3.07,3.88c0.05,1.98-2.04,4.091-4.07,3.12c0.38-1.689,0.14-2.01,0.07-3.25
	C1330.17,1151.35,1330.41,1150.32,1331,1148.84z"/>
<path d="M1348,1162.84c-0.689,1.92-1.62,3.34-3.4,3.94c-0.399,0.13-0.979,0.149-1.6,1.06c-1.04-0.359-1.39-1.68-1.11-2.65
	C1342.64,1162.51,1345.63,1161.36,1348,1162.84z"/>
<path fill="#7693A8" d="M202,1005.34c0,0.87-0.01,1.73-0.04,2.59c-0.39,13.471-3.83,26.16-9.63,37.43c0,0-0.01,0-0.02,0.011
	c-14.51,28.19-43.91,47.47-77.81,47.47c-25.52,0-48.5-10.93-64.49-28.37c-6.45-7.03-11.77-15.12-15.66-23.989
	c-1.87-4.25-3.41-8.69-4.59-13.261c-0.89-3.45-1.57-6.979-2.04-10.579c-0.47-3.701-0.72-7.471-0.72-11.301
	c0-10.99,2.03-21.5,5.73-31.189c2.78-7.291,6.5-14.11,11.04-20.311c12.43-17.06,30.89-29.449,52.26-34.04
	c5.95-1.29,12.13-1.96,18.47-1.96c6.65,0,13.13,0.74,19.35,2.15c9.54,2.15,18.48,5.859,26.55,10.85
	c6.46,3.98,12.35,8.78,17.55,14.25c6.31,6.641,11.59,14.28,15.57,22.65c3.91,8.18,6.57,17.06,7.77,26.4
	C201.76,997.8,202,1001.54,202,1005.34z"/>
<path fill="#57758F" d="M118,1081.84c39.765,0,72-32.24,72-72c0-39.764-32.235-72-72-72c-39.765,0-72,32.236-72,72
	C46,1049.6,78.235,1081.84,118,1081.84z"/>
<path fill="#957BAA" d="M201.96,1007.939c-0.39,13.461-3.83,26.15-9.63,37.42c0,0-0.01,0-0.02,0.011
	c-0.53,0.33-12.59,7.7-22.21,14.16c-4.23,2.84-8,5.5-10.1,7.31c-7,6-19,15-29,8s-36-1-36-1s-8.39-12.93,6.3-12.47
	c14.7,0.47,5.7,6.47,28.7-2.53s26-25,35-30s8-4,17-6c1.86-0.41,4.47-1.97,7.46-4.18C193.29,1015.82,197.73,1011.9,201.96,1007.939z"
	/>
<path fill="#957BAA" d="M201.29,994.141c-3.83,3-7.77,5.319-11.78,7.279c-5.19,2.54-10.49,4.49-15.81,6.59
	c-9.7,3.83-24.7,3.83-28.7,16.83s-10,15-15,15s-31,10-34,9s-22-2-27,5c-1.3,1.82-2.74,3.26-4.28,4.42
	c-4.36,3.311-9.53,4.46-14.71,6.21c-6.45-7.03-11.77-15.12-15.66-23.989c4.03,0.66,11.21,1.529,18.94,0.949
	c3.2-0.25,6.5-0.74,9.71-1.59c15-4,19.23-16.39,29.61-17.699c10.39-1.301,18.86-3.08,22.62-2.69c3.77,0.39,2.77-15.61,13.77-17.61
	s16-3,23-4s7.3-1,14.65-6c7.09-4.82,12.92-10.58,16.02-13.67l0.33-0.33c1.34-1.34,5.9-5.699,10.52-10.1
	C197.43,975.92,200.09,984.8,201.29,994.141z"/>
<path fill="#957BAA" d="M129.03,991.891c-0.93,0.77-13.41,10.909-23.03,9.949c-10-1-6,0-23.09,6.17
	c-15.38,5.57-18.4,11.51-35.48,16.17c-1.88,0.51-3.93,1.01-6.19,1.49c-3.9,0.82-7.76,1.311-11.48,1.55
	c-0.89-3.45-1.57-6.979-2.04-10.579c3.49-0.171,10.58-0.631,18.46-1.721c2.23-0.311,4.52-0.67,6.82-1.08c11-2,24-5,30-13
	s7-5,9.61-4.91c2.62,0.08,17.39,0.91,26.39-1.09C126.88,993.09,128.69,992.109,129.03,991.891z"/>
<path fill="#957BAA" d="M177.95,945.09c-3.44,4.34-6.95,8.75-9.34,11.75c-0.27,0.34-0.54,0.67-0.82,0.99
	c-6.28,7.34-14.55,11.05-31.79,12.01c-17.72,0.98-31.56,11.66-31.99,11.99c0.08-0.24,3.02-8.01,4.99-8.99c2-1,15-15,20.09-21.5
	c5.08-6.5,14.91-0.5,24.91-3.5c0.14-0.04,0.27-0.08,0.4-0.13c9.5-3.25,6-16.87,6-16.87C166.86,934.82,172.75,939.62,177.95,945.09z"
	/>
<path fill="#957BAA" d="M133.85,919.99c-3.23,3.27-8.87,8.16-18.62,14.89c-1.72,1.19-3.36,2.31-4.94,3.37
	C93.26,949.7,83.72,954.439,70,960.84c-2.6,1.21-5.11,2.24-7.51,3.141c-11.5,4.3-20.7,5.55-26.49,8.859
	c-0.95,0.54-2.05,0.971-3.27,1.311c2.78-7.291,6.5-14.11,11.04-20.311l37.23-13c0,0,5.07-15.08,15.03-21.04
	c5.95-1.29,12.13-1.96,18.47-1.96C121.15,917.84,127.63,918.58,133.85,919.99z"/>
<path fill="#79598E" d="M182,1023.84c1.86-0.41,4.01-1.79,7-4c-1.92,15.76-8.58,28.08-19,39c-4.23,2.84-8.9,5.19-11,7
	c-7,6-18,15-28,8s-36-1-36-1s-7.69-10.46,7-10c14.7,0.471,5,5,28-4s27-23,36-28S173,1025.84,182,1023.84z"/>
<path fill="#79598E" d="M70,959.84c-2.6,1.21-5.11,2.24-7.51,3.141c11.67-14.101,28.61-23.69,47.8-25.73
	C93.26,948.7,83.72,953.439,70,959.84z"/>
<path fill="#79598E" d="M82.91,1008.01c-15.38,5.57-18.83,10.17-35.91,14.83c-0.61-3.02,0.22-3.85,0-7c2.23-0.31,4.7-0.59,7-1
	c11-2,24-5,30-13s6.39-5.09,9-5c2.62,0.08,16,1,25-1c7.88-1.75,10.69-3.73,11.03-3.949c-0.93,0.77-13.41,9.909-23.03,8.949
	C96,999.84,100,1001.84,82.91,1008.01z"/>
<path fill="#79598E" d="M111,972.84c2-1,13.91-13.5,19-20c5.08-6.5,14-1,24-4c0.14-0.04,0.87,0.051,1,0c4.86,2.85,7.96,5.141,12,9
	c-6.28,7.34-14.76,10.04-32,11c-17.72,0.98-30.56,12.66-30.99,12.99C104.09,981.59,109.03,973.82,111,972.84z"/>
<path fill="#79598E" d="M189,1000.84c-5.19,2.54-9.98,5.07-15.3,7.17c-9.7,3.83-24.7,3.83-28.7,16.83s-10,15-15,15s-31,10-34,9
	s-22-3-27,4c-1.3,1.82-3.46,2.84-5,4c-4.56-5.01-7-7.84-10-14c3.2-0.25,6.79-1.15,10-2c15-4,19.62-16.689,30-18
	c10.39-1.3,18.24-2.39,22-2c3.77,0.391,5-16,16-18s13-4,20-5s8.65,1,16-4c7.09-4.82,11.9-11.91,15-15
	C186.52,986,188.04,992.58,189,1000.84z"/>
<path fill="none" stroke="#000000" stroke-width="6" stroke-linecap="round" stroke-linejoin="round" d="M114.5,1092.84
	c48.325,0,87.5-39.17,87.5-87.5c0-48.324-39.175-87.5-87.5-87.5c-48.325,0-87.5,39.176-87.5,87.5
	C27,1053.67,66.175,1092.84,114.5,1092.84z"/>
<path fill="#FFFFFF" d="M131.75,916.49c-11.16-15.42-28.22-36.69-45.83-44.15c-14.13-6.02-28.49-0.79-36.44,12.1
	c-3.14,5.591-4.19,12.221-4.99,18.561c-1.19,10.561-0.85,21.29,0.04,31.891c6.76,63.579,35.84,142.64,79.92,189.659
	c3.69,3.83,7.57,7.46,11.71,10.72c6.13,4.74,12.85,9.08,20.5,10.33c14.33,1.931,23.09-9.14,26.99-21.709
	c3.29-10.091,4.39-20.9,4.75-31.641c0.12-10.75,0.29-21.68-1.78-32.27c0.76,2.6,1.21,5.279,1.62,7.959
	c2.36,18.83,3.24,38.32-1.77,56.82c-3.93,14.381-14.02,26.75-30.36,24.96c-8.52-1.159-16.11-5.77-22.8-10.729
	c-48.19-38.9-77.01-111.881-89.44-171.23c-4.58-23.869-9.74-63.689,2.07-85.529c5.42-8.4,14.46-14.771,24.58-15.59
	c25.41-2.461,48.97,30.81,61.25,49.85H131.75z"/>
<path fill="#3695B2" d="M956,1451.84c0-38.66,31.34-70,70-70c5.47,0,10.79,0.63,15.9,1.811c8.91,2.08,17.18,5.85,24.42,10.97
	c9.64,6.8,17.49,15.979,22.689,26.68c4.471,9.23,6.99,19.59,6.99,30.54c0,38.66-31.34,70-70,70c-8.74,0-17.1-1.6-24.811-4.529h-0.01
	c-4-1.521-7.819-3.391-11.43-5.58c-7.13-4.32-13.43-9.891-18.59-16.391C961.67,1483.39,956,1468.28,956,1451.84z"/>
<path fill="#277DA0" d="M1031,1512.84c32.03,0,58-25.97,58-58c0-32.029-25.97-58-58-58c-32.033,0-58,25.971-58,58
	C973,1486.87,998.967,1512.84,1031,1512.84z"/>
<path fill="#D8D8D8" d="M1058,1421.84c0,3-16.25,9.391-22.12,15.7c-5.88,6.3-11.88,8.3-9.88,14.3s9,10.91,0,9.96
	c-9-0.96-12,2.04-15,3.04s-7,12-10,6s2.48-17,4.74-19s-14.74,0-14.74-4s15.35-20,7.17-15c-8.17,5-20.17,16-19.17,21s13,9,8,17
	c-2.7,4.311-3.98,11.32-5.05,14.96c-0.9,3.11-1.66,3.761-3.011-1.83c-0.55-2.28-1-4.479-1.39-6.56c0-0.01-0.01-0.021,0-0.03
	c-1.41-7.51-2.069-13.45-4.14-15.67c-0.41-0.44-0.87-0.74-1.41-0.87c-4-1-9,4-7,9s6,12,7,17c0.33,1.63-0.09,4.86-0.84,8.5
	c-9.49-11.95-15.16-27.06-15.16-43.5c0-38.66,31.34-70,70-70c5.47,0,10.79,0.63,15.9,1.811l-18.9,12.189c0,0-2.02,0.92-4.18,2.28
	c-0.01,0-0.01,0.01-0.01,0.01c-2.86,1.82-5.95,4.431-4.811,6.71c1.6,3.21,12.86-1.3,16.73-3.729c0.149,0.92,1.59,1.77,6.27,0.729
	c3.29-0.729,5.9-2.12,7.95-3.31c3.569-2.07,5.41-3.5,6.05,0.31c0.09,0.55,0.12,1.07,0.1,1.58c-0.199,5.12-5.739,8.51-12.1,9.42
	c-7,1-25.49,3.04-25.24,11.521c0.24,8.479,10.24,14.479,9.24,13.479s4-11,8-11s16,0,19-2S1058,1418.84,1058,1421.84z"/>
<path fill="#D8D8D8" d="M1089.01,1421.3c-0.39,2.521-0.76,4.811-1.01,6.54c-0.65,4.54-0.88,7.391-1.5,10.11
	c-0.34,1.47-0.8,2.899-1.5,4.54c-2,4.649-5,3.35-8,7.35s-3,4-5,12s-6,2-8,2s-19,17-20,17s1-10,7-18s10-13,13-14s7-11,13-19
	s0.07-7.01-6.88-17.82h-0.01c-0.04-0.06-0.07-0.119-0.11-0.18c-3.32-5.21-3.939-11.77-3.68-17.22
	C1075.96,1401.42,1083.811,1410.6,1089.01,1421.3z"/>
<path fill="#D8D8D8" d="M1031,1488.84c0,3,2,14,1,18c-0.52,2.07-3.439,3.87-7.11,5.68c-3.42,1.69-7.51,3.391-10.89,5.32
	c-7,4-5-1-12.811-0.529h-0.01c-4-1.521-7.819-3.391-11.43-5.58c1.65-2.57,2.62-5.78,5.25-7.891c0.8-0.64,1.58-1.229,2.33-1.77
	c3.98-2.84,7.47-4.391,11.67-5.23c5-1,5-3,12-11s4-9,4-9s10,1,10,5S1031,1485.84,1031,1488.84z"/>
<path fill="#ADA8B2" d="M1074,1477.84c0,0,0,6-2,10s-5,11-7,12s-1,3-4,3s-4,2-6,2s-3.61-2-2.3-3c1.31-1,5.3-2,8.3-4
	s4.43-4.91,6.21-9.96S1074,1477.84,1074,1477.84z"/>
<path fill="none" stroke="#000000" stroke-width="6" stroke-miterlimit="10" d="M956,1451.84c0-38.66,31.34-70,70-70
	c5.47,0,10.79,0.63,15.9,1.811c8.91,2.08,17.18,5.85,24.42,10.97c9.64,6.8,17.49,15.979,22.689,26.68
	c4.471,9.23,6.99,19.59,6.99,30.54c0,38.66-31.34,70-70,70c-8.74,0-17.1-1.6-24.811-4.529h-0.01c-4-1.521-7.819-3.391-11.43-5.58
	c-7.13-4.32-13.43-9.891-18.59-16.391C961.67,1483.39,956,1468.28,956,1451.84L956,1451.84z"/>
<path fill="#ADA8B2" d="M1035.73,1428.11c-0.15-0.851,0.789-1.75,1.27-1.271C1037.2,1427.04,1036.689,1427.51,1035.73,1428.11z"/>
<path fill="#ADA8B2" d="M1035,1481.84c0,4-4,4-4,7s2,14,1,18c-0.52,2.07-3.439,3.87-7.11,5.68
	c-10.21-1.069-19.63-4.779-27.56-10.449c3.98-2.84,7.47-4.391,11.67-5.23c5-1,5-3,12-11s4-9,4-9S1035,1477.84,1035,1481.84z"/>
<path fill="#ADA8B2" d="M1058,1421.84c0,3-16.25,9.391-22.12,15.7c-5.88,6.3-11.88,8.3-9.88,14.3s9,10.91,0,9.96
	c-9-0.96-12,2.04-15,3.04s-7,12-10,6s2.48-17,4.74-19s-14.74,0-14.74-4s15.35-20,7.17-15c-8.17,5-20.17,16-19.17,21s13,9,8,17
	c-2.7,4.311-3.98,11.32-5.05,14.96c-1.69-2.66-3.16-5.46-4.4-8.39c0-0.01-0.01-0.021,0-0.03c-1.41-7.51-2.069-13.45-4.14-15.67
	c-0.271-2.25-0.41-4.55-0.41-6.87c0-27.85,19.63-51.12,45.811-56.71c-2.86,1.82-5.95,4.431-4.811,6.71
	c1.6,3.21,12.86-1.3,16.73-3.729c0.149,0.92,1.59,1.77,6.27,0.729c3.29-0.729,5.9-2.12,7.95-3.31c2.1,0.52,4.149,1.149,6.149,1.89
	c-0.199,5.12-5.739,8.51-12.1,9.42c-7,1-25.49,3.04-25.24,11.521c0.24,8.479,10.24,14.479,9.24,13.479s4-11,8-11s16,0,19-2
	S1058,1418.84,1058,1421.84z"/>
<path fill="#ADA8B2" d="M1086.5,1437.95c-0.34,1.47-0.8,2.899-1.5,4.54c-2,4.649-5,3.35-8,7.35s-3,4-5,12s-6,2-8,2s-19,17-20,17
	s1-10,7-18s10-13,13-14s7-11,13-19s0.07-7.01-6.88-17.82C1077.7,1418.95,1083.439,1427.87,1086.5,1437.95z"/>
<path fill="#7693A8" d="M1256,712.34c0,2.07-0.11,4.11-0.34,6.12c-2.23,20.36-15.48,37.41-33.65,45.06
	c-3.32,1.391-6.81,2.48-10.42,3.211c-3.58,0.729-7.29,1.109-11.09,1.109c-5.2,0-10.23-0.71-15-2.06
	c-23.37-6.54-40.5-27.99-40.5-53.44c0-8.46,1.89-16.47,5.28-23.65c4.359-9.25,11.2-17.1,19.67-22.689
	c8.76-5.79,19.27-9.16,30.55-9.16c15.09,0,28.79,6.03,38.79,15.82c8.47,8.27,14.3,19.24,16.11,31.51
	C1255.8,706.84,1256,709.561,1256,712.34z"/>
<path fill="#57758F" d="M1203,759.84c24.85,0,45-20.146,45-45c0-24.853-20.15-45-45-45s-45,20.147-45,45
	C1158,739.693,1178.15,759.84,1203,759.84z"/>
<path fill="#D8D8D8" d="M1206,751.84c0,0-6-0.96-5.5,2.52c0.14,1-1.83,2.82-4.73,4.9c-2.899,2.09-6.729,4.45-10.27,6.521
	c-23.37-6.54-40.5-27.99-40.5-53.44c0-8.46,1.89-16.47,5.28-23.65l1.72,7.15c0,0,15.78-11,16.39-10c0.021,0.03,0.05,0.07,0.091,0.13
	c1.43,1.72,15.399,15.021,11.52,19.87c-4,5-3,10-3,10s10-11,12,0s-5,12-3,19s7,0.26,14.5,4.13S1206,751.84,1206,751.84z"/>
<path fill="#D8D8D8" d="M1239.29,672.66c-1.39,2.98-2.9,5.48-4.29,6.18c-0.86,0.43-2.01,0.91-3.35,1.301
	c-4.87,1.439-12.381,1.76-18.65-5.301c-8-9-20,1-20,1s-5.54,0-11.439-0.58c-1.19-0.109-2.391-0.25-3.561-0.42
	c-3.09-0.439-5.89-4.48-8.05-8.84c8.76-5.79,19.27-9.16,30.55-9.16C1215.59,656.84,1229.29,662.87,1239.29,672.66z"/>
<path fill="#D8D8D8" d="M1256,712.34c0,2.07-0.11,4.11-0.34,6.12c-2.92,2.09-5.96,4.04-8.62,5.649c-2.22,1.36-4.18,2.471-5.61,3.23
	c-6.56,3.5-10.43,9.5-15.43,19.5c-1.28,2.551-2.17,5.4-2.79,8.221c-0.66,2.97-1.021,5.909-1.2,8.459
	c-3.32,1.391-6.81,2.48-10.42,3.211c-0.16-2.58-0.3-5.261-0.41-7.631c-0.109-2.68-0.18-4.97-0.18-6.26c0-5,5-17,9-21
	s5-11,1.811-16.35c-3.19-5.35,5.189-7.65,10.189-7.65c3.85,0,9.48-1.189,15.061-2.189c1.67-0.301,3.329-0.58,4.939-0.811
	c1.061-0.15,2.21-0.39,3.4-0.67C1255.8,706.84,1256,709.561,1256,712.34z"/>
<path fill="none" stroke="#000000" stroke-width="5" stroke-miterlimit="10" d="M1256,712.34c0,2.07-0.11,4.11-0.34,6.12
	c-2.23,20.36-15.48,37.41-33.65,45.06c-3.32,1.391-6.81,2.48-10.42,3.211c-3.58,0.729-7.29,1.109-11.09,1.109
	c-5.2,0-10.23-0.71-15-2.06c-23.37-6.54-40.5-27.99-40.5-53.44c0-8.46,1.89-16.47,5.28-23.65c4.359-9.25,11.2-17.1,19.67-22.689
	c8.76-5.79,19.27-9.16,30.55-9.16c15.09,0,28.79,6.03,38.79,15.82c8.47,8.27,14.3,19.24,16.11,31.51
	C1255.8,706.84,1256,709.561,1256,712.34L1256,712.34z"/>
<path fill="#ADA8B2" d="M1206,751.84c0,0-6-0.96-5.5,2.52c0.14,1-1.83,2.82-4.73,4.9c-21.42-3.46-37.77-22.029-37.77-44.42
	c0-10.98,3.939-21.06,10.48-28.87c1.43,1.72,15.399,15.021,11.52,19.87c-4,5-3,10-3,10s10-11,12,0s-5,12-3,19s7,0.26,14.5,4.13
	S1206,751.84,1206,751.84z"/>
<path fill="#ADA8B2" d="M1193,675.84c0,0-5.54,0-11.439-0.58c6.379-3.449,13.68-5.42,21.439-5.42c10.88,0,20.86,3.87,28.65,10.301
	c-4.87,1.439-12.381,1.76-18.65-5.301C1205,665.84,1193,675.84,1193,675.84z"/>
<path fill="#ADA8B2" d="M1248,714.84c0,3.18-0.33,6.28-0.96,9.27c-2.22,1.36-4.18,2.471-5.61,3.23c-6.56,3.5-10.43,9.5-15.43,19.5
	c-1.28,2.551-2.17,5.4-2.79,8.221c-3.74,1.879-7.78,3.26-12.03,4.039c-0.109-2.68-0.18-4.97-0.18-6.26c0-5,5-17,9-21
	s5-11,1.811-16.35c-3.19-5.35,5.189-7.65,10.189-7.65c3.85,0,9.48-1.189,15.061-2.189C1247.68,708.62,1248,711.689,1248,714.84z"/>
<path fill="#3695B2" d="M436,684.84c13.807,0,25-11.193,25-25s-11.193-25-25-25s-25,11.193-25,25S422.193,684.84,436,684.84z"/>
<path fill="none" stroke="#000000" stroke-width="4" stroke-linecap="round" stroke-linejoin="round" d="M436,684.84
	c13.807,0,25-11.193,25-25s-11.193-25-25-25s-25,11.193-25,25S422.193,684.84,436,684.84z"/>
<path fill="#277DA0" d="M438,679.84c9.941,0,18-8.059,18-18s-8.059-18-18-18s-18,8.059-18,18S428.059,679.84,438,679.84z"/>
<path fill="#F8834A" d="M92.37,628.49c50.58,25.07,111.68,56.64,162.31,82.02c32.29,16.43,64.27,34.59,94.72,54.24l-0.37,0.71
	c-11.25-4.66-22.29-9.71-33.261-14.899c-21.58-10.23-43.97-21.4-64.79-33.051c-21.4-12.07-73.28-40.58-95.47-52.83
	C134.34,652.85,113.12,641.12,92,629.2L92.37,628.49z"/>
<path fill="#F8834A" d="M1086.59,997.82c23.53,11.16,49.21,23.66,72.61,35.32c12.06,5.959,24.39,11.399,36.02,18.189
	c11.681,6.8,23.17,13.859,33.96,22.08l-0.369,0.71c-6.48-2.14-12.75-4.66-18.95-7.32c-12.38-5.319-24.54-11.1-36.19-17.89
	c-5.8-3.41-11.63-6.78-17.47-10.12c-8.761-4.92-26.38-14.94-35.09-19.96c-11.63-6.78-23.32-13.45-34.9-20.311l0.37-0.709
	L1086.59,997.82z"/>
<path fill="#FFFFFF" d="M900.5,731c18,9.04,54.05,27.359,71.95,36.561c18.03,9.06,36.02,18.199,53.38,28.52
	c5.82,3.38,11.57,6.89,17.26,10.52c0.09,0.061,0.12,0.181,0.061,0.28c-0.051,0.08-0.16,0.11-0.25,0.08
	c-6.2-2.67-12.33-5.46-18.391-8.38c-18.279-8.58-35.939-18.34-53.56-28.18c-17.63-9.641-53.101-29.23-70.641-39.03
	c-0.1-0.05-0.13-0.181-0.079-0.271c0.05-0.09,0.17-0.13,0.27-0.08V731z"/>
<path fill="#FFFFFF" d="M1002.5,267c13.74,6.66,33.59,16.61,47.45,23.57c11.91,5.81,23.77,11.71,35.01,18.78
	c3.771,2.31,7.5,4.69,11.13,7.27c0.09,0.06,0.11,0.19,0.05,0.28c-0.05,0.08-0.149,0.1-0.239,0.07c-4.17-1.56-8.23-3.31-12.261-5.14
	c-12.159-5.33-23.689-11.84-35.189-18.44c-13.59-7.59-32.84-18.36-46.14-26.05c-0.211-0.11-0.041-0.47,0.189-0.35V267z"/>
<path fill="#F8834A" d="M139.5,0c9.56,4.44,23.34,11.17,32.95,15.89c8.29,3.891,16.53,7.86,24.13,13.01
	c2.56,1.67,5.09,3.41,7.51,5.35l-0.19,0.35c-11.71-3.73-22.48-9.58-32.95-15.89c-9.33-5.33-22.54-12.91-31.64-18.36L139.5,0L139.5,0
	z"/>
<path fill="#FFFFFF" d="M655.59,1308.82c26.11,12.529,54.62,26.529,80.61,39.56c6.71,3.31,13.43,6.601,20.18,9.84
	c13.48,6.54,26.42,14.061,39.11,22.03c6.35,3.99,12.62,8.13,18.689,12.64c0.181,0.13,0.221,0.391,0.08,0.57
	c-0.109,0.15-0.3,0.2-0.46,0.14c-7.149-2.489-14.09-5.369-20.95-8.38c-13.72-6.03-27.21-12.52-40.189-20.01
	c-6.47-3.771-12.96-7.479-19.47-11.18c-9.761-5.45-29.381-16.53-39.091-22.08c-12.96-7.48-25.979-14.86-38.899-22.431
	c-0.19-0.109-0.25-0.359-0.141-0.55c0.11-0.18,0.33-0.25,0.521-0.159L655.59,1308.82z"/>
<path fill="#FFFFFF" d="M50.59,1268.82c16.27,7.319,33.99,15.59,50.11,23.399c4.15,2.011,8.36,3.88,12.56,5.8
	c8.41,3.851,16.26,8.681,23.87,13.94c3.8,2.66,7.53,5.44,11.06,8.61c0.17,0.149,0.18,0.41,0.03,0.58
	c-0.11,0.119-0.26,0.16-0.41,0.119c-4.6-1.14-9-2.67-13.34-4.319c-8.62-3.351-17.03-7.13-24.93-11.931
	c-3.94-2.399-7.86-4.83-11.84-7.14c-5.96-3.44-17.93-10.46-23.84-13.99c-7.88-4.79-15.82-9.47-23.65-14.35
	c-0.19-0.12-0.25-0.36-0.13-0.55c0.11-0.17,0.32-0.23,0.5-0.15L50.59,1268.82z"/>
</svg>
