<svg width="50" height="50" viewBox="0 0 50 50" fill="none" xmlns="http://www.w3.org/2000/svg">
<path d="M24.993 0C11.1917 0 0 11.1917 0 24.993C0 38.7943 11.1917 49.986 24.993 49.986C38.7943 49.986 50 38.7943 50 24.993C50 11.1917 38.8083 0 24.993 0ZM18.211 16.3411C20.1786 19.4251 20.9461 23.5696 18.4203 27.156H11.1917L18.211 16.3411ZM40.4968 30.4773C35.2498 32.9193 35.4731 38.9059 31.1052 38.9059H17.7784C12.9082 38.9059 9.48925 34.6637 9.48925 30.1423H17.3318C17.3318 31.8867 18.1133 33.1426 19.6483 33.1426H23.5138V30.1423H19.6762C24.1697 24.2813 23.3184 20.6391 19.6762 13.0059C21.0299 13.2431 22.3137 13.578 23.5138 14.0106V12.1965C23.5138 10.6894 26.3466 10.7033 26.3466 12.1965V15.2805C32.7798 18.7692 35.3196 25.0907 28.8306 30.1423H26.3466V33.1426H29.64C30.6447 33.1426 31.5099 32.1379 32.5705 30.8261L40.4968 28.6073V30.4773Z" fill="white"/>
</svg>
