<svg width="50" height="50" viewBox="0 0 50 50" fill="none" xmlns="http://www.w3.org/2000/svg">
<path d="M25.007 0C11.1917 0 0 11.1917 0 24.993C0 38.7943 11.1917 49.986 25.007 49.986C38.8222 49.986 50 38.7943 50 24.993C50 11.1917 38.8083 0 25.007 0ZM37.1337 18.8948C37.1337 32.4449 24.6302 41.4318 10.8568 34.245C14.513 34.4265 17.4435 33.5333 19.7321 31.6913C16.9272 31.4262 15.1968 29.8912 14.1502 27.5467C15.127 27.6863 16.062 27.6584 16.8992 27.4212C13.3408 26.4583 12.3779 24.1557 12.1407 21.4764C13.0338 21.9648 13.9408 22.23 14.8898 22.1881C12.0988 20.0809 11.4429 17.4295 13.0059 14.2339C16.1736 18.1273 20.36 20.0809 25.2861 20.5694C24.2953 12.2802 33.2124 11.8197 35.5289 15.113C36.9941 14.8618 38.1524 14.2897 39.1711 13.5361C38.8222 14.7921 37.9849 15.8945 36.5895 16.8574C37.664 16.8574 38.7943 16.5504 39.9805 15.9224C39.2409 17.1923 38.3198 18.225 37.1337 18.8948Z" fill="white"/>
</svg>
