<?xml version="1.0" encoding="utf-8"?>
<!-- Generator: Adobe Illustrator 16.0.0, SVG Export Plug-In . SVG Version: 6.00 Build 0)  -->
<!DOCTYPE svg PUBLIC "-//W3C//DTD SVG 1.1//EN" "http://www.w3.org/Graphics/SVG/1.1/DTD/svg11.dtd">
<svg version="1.1" id="Layer_1" xmlns="http://www.w3.org/2000/svg" xmlns:xlink="http://www.w3.org/1999/xlink" x="0px" y="0px"
	 width="1918px" height="5158.771px" viewBox="0 0 1918 5158.771" enable-background="new 0 0 1918 5158.771" xml:space="preserve">
<rect y="0.167" display="none" fill="#702D2D" stroke="#000000" stroke-miterlimit="10" width="1918" height="5786.333"/>
<path opacity="0.05" fill="#FFFFFF" enable-background="new    " d="M1918-70v238.111c-147.97,52.279-333.061,89.764-519.46,88.014
	c-274.03-2.57-250.41-87.134-521.455-80.031c-320.565,8.403-465.854,129.619-802.163,80.031
	C47.031,252.014,22.207,247.371,0,242.239V-70H1918z"/>
<path opacity="0.05" fill="#FFFFFF" enable-background="new    " d="M1918,594.58V1389c-70.55-4.729-155.15-13.568-256.73-27.938
	c-474.368-67.103-458.459-133.096-718.253-145.982c-456.754-22.658-628.595,175.26-877.084,32.996
	c-24.165-13.828-46.072-29.177-65.931-45.396V423c49.259,32.236,114.76,79.48,211.779,135.154
	c186.406,106.978,476.713,273.589,773.194,243.973c214.487-21.428,197.647-122.136,469.509-182.979
	C1545.02,598.891,1735.65,556.225,1918,594.58z"/>
<path opacity="0.05" fill="#FFFFFF" enable-background="new    " d="M1917,1559v682.878
	c-148.48-41.418-336.189-108.052-576.4-43.729c-195.448,52.336-156.85,119.399-388.594,188.127
	c-301.604,89.448-386.866-18.242-751.216,47.03C119.794,2447.816,53.813,2465.708-1,2483v-654.339
	c97.788-26.078,198.024-25.347,276.711-24.777c364.54,2.652,433.379,181.184,713.257,146.1
	c134.422-16.853,100.862-55.817,502.472-235.157C1690.13,1626.105,1823.811,1579.613,1917,1559L1917,1559z"/>
<path opacity="0.05" fill="#FFFFFF" enable-background="new    " d="M1917,2864.758v870.592c-136.76,5.4-299.6-23.77-422.561-59.27
	c-415.921-120.086-405.939-321.331-738.229-356.923c-198.413-21.257-463.916,22.435-631.341,49.987
	C72.304,3377.803,31.826,3385.602-1,3391.87V2588c115.02,18.057,213.717,44,256.732,55.309
	c463.337,121.813,466.274,328.775,819.148,343.924c193.601,8.308,500.5-40.771,725.24-93.979
	C1842.23,2883.284,1881.24,2873.227,1917,2864.758z"/>
<path opacity="0.05" fill="#FFFFFF" enable-background="new    " d="M1919,3990.992v391.646
	c-93.061-20.071-210.82-48.965-366.62-52.188c-277.84-5.747-271.41,78.53-694.272,125.144
	c-209.082,23.045-358.156,17.369-656.315,6.006c-73.624-2.804-140.494-5.416-200.791-8.358v-493.765
	c54.683-9.16,118.377-13.555,193.798-11.463c366.139,10.183,395.288,156.349,701.271,187.213
	c240.063,24.22,250.963-62.84,881.083-131.147C1830.061,3998.341,1877.13,3993.846,1919,3990.992z"/>
</svg>
